<svg width="95" height="95" id="eltmBNPpxnu1" xmlns="http://www.w3.org/2000/svg" xmlns:xlink="http://www.w3.org/1999/xlink" viewBox="0 0 95 95" shape-rendering="geometricPrecision" text-rendering="geometricPrecision"><style><![CDATA[#eltmBNPpxnu6_to {animation: eltmBNPpxnu6_to__to 1111.111111111111ms linear infinite normal forwards}@keyframes eltmBNPpxnu6_to__to { 0% {offset-distance: 0%} 5% {offset-distance: 0%} 50% {offset-distance: 50%} 90% {offset-distance: 100%} 100% {offset-distance: 100%}} #eltmBNPpxnu6_tr {animation: eltmBNPpxnu6_tr__tr 1111.111111111111ms linear infinite normal forwards}@keyframes eltmBNPpxnu6_tr__tr { 0% {transform: rotate(4.550541deg)} 5% {transform: rotate(4.550541deg)} 45% {transform: rotate(-90deg)} 90% {transform: rotate(-180deg)} 100% {transform: rotate(-180deg)}} #eltmBNPpxnu6 {animation: eltmBNPpxnu6_c_o 1111.111111111111ms linear infinite normal forwards}@keyframes eltmBNPpxnu6_c_o { 0% {opacity: 0} 5% {opacity: 0} 20% {opacity: 0.7} 70% {opacity: 0.6} 90% {opacity: 0} 100% {opacity: 0}} #eltmBNPpxnu11_to {animation: eltmBNPpxnu11_to__to 1111.111111111111ms linear infinite normal forwards}@keyframes eltmBNPpxnu11_to__to { 0% {transform: translate(-0.562934px,10.166762px)} 5% {transform: translate(-0.562934px,10.166762px)} 80% {transform: translate(90.300704px,92.254739px)} 100% {transform: translate(90.300704px,92.254739px)}} #eltmBNPpxnu11 {animation: eltmBNPpxnu11_c_o 1111.111111111111ms linear infinite normal forwards}@keyframes eltmBNPpxnu11_c_o { 0% {opacity: 0} 5% {opacity: 0} 25% {opacity: 1} 60% {opacity: 0.363636} 80% {opacity: 0} 100% {opacity: 0}} #eltmBNPpxnu16_tr {animation: eltmBNPpxnu16_tr__tr 1111.111111111111ms linear infinite normal forwards}@keyframes eltmBNPpxnu16_tr__tr { 0% {transform: translate(37.580194px,27.077943px) rotate(0deg)} 80% {transform: translate(37.580194px,27.077943px) rotate(0deg)} 100% {transform: translate(37.580194px,27.077943px) rotate(120deg)}} #eltmBNPpxnu16_ts {animation: eltmBNPpxnu16_ts__ts 1111.111111111111ms linear infinite normal forwards}@keyframes eltmBNPpxnu16_ts__ts { 0% {transform: scale(0,0)} 80% {transform: scale(0,0)} 85% {transform: scale(1,1)} 95% {transform: scale(1,1)} 100% {transform: scale(0,0)}} #eltmBNPpxnu16 {animation: eltmBNPpxnu16_c_o 1111.111111111111ms linear infinite normal forwards}@keyframes eltmBNPpxnu16_c_o { 0% {opacity: 0} 80% {opacity: 0} 90% {opacity: 1} 100% {opacity: 0}} #eltmBNPpxnu17_to {animation: eltmBNPpxnu17_to__to 1111.111111111111ms linear infinite normal forwards}@keyframes eltmBNPpxnu17_to__to { 0% {offset-distance: 0%} 5% {offset-distance: 0%} 25% {offset-distance: 33.333333%} 50% {offset-distance: 66.666667%} 70% {offset-distance: 100%} 100% {offset-distance: 100%}} #eltmBNPpxnu17_tr {animation: eltmBNPpxnu17_tr__tr 1111.111111111111ms linear infinite normal forwards}@keyframes eltmBNPpxnu17_tr__tr { 0% {transform: rotate(0deg)} 5% {transform: rotate(0deg)} 75% {transform: rotate(720deg)} 100% {transform: rotate(720deg)}} #eltmBNPpxnu17_ts {animation: eltmBNPpxnu17_ts__ts 1111.111111111111ms linear infinite normal forwards}@keyframes eltmBNPpxnu17_ts__ts { 0% {transform: scale(0,0)} 5% {transform: scale(0,0)} 35% {transform: scale(1,1)} 60% {transform: scale(1,1)} 75% {transform: scale(0,0)} 100% {transform: scale(0,0)}} #eltmBNPpxnu17 {animation: eltmBNPpxnu17_c_o 1111.111111111111ms linear infinite normal forwards}@keyframes eltmBNPpxnu17_c_o { 0% {opacity: 0} 5% {opacity: 0} 25% {opacity: 1} 60% {opacity: 1} 75% {opacity: 0} 100% {opacity: 0}}]]></style><defs><linearGradient id="eltmBNPpxnu4-fill" x1="13.1128" y1="13.1224" x2="81.6694" y2="81.6694" spreadMethod="pad" gradientUnits="userSpaceOnUse"><stop id="eltmBNPpxnu4-fill-0" offset="9%" stop-color="rgb(255,212,166)"/><stop id="eltmBNPpxnu4-fill-1" offset="100%" stop-color="rgb(158,60,11)"/></linearGradient><linearGradient id="eltmBNPpxnu9-fill" x1="13.1128" y1="13.1224" x2="81.6694" y2="81.6694" spreadMethod="pad" gradientUnits="userSpaceOnUse"><stop id="eltmBNPpxnu9-fill-0" offset="9%" stop-color="rgb(255,212,166)"/><stop id="eltmBNPpxnu9-fill-1" offset="100%" stop-color="rgb(158,60,11)"/></linearGradient></defs><path id="eltmBNPpxnu2" d="M47.1368,86.5998C68.9317,86.5998,86.5998,68.9317,86.5998,47.1368C86.5998,25.342,68.9317,7.67383,47.1368,7.67383C25.342,7.67383,7.67383,25.342,7.67383,47.1368C7.67383,68.9317,25.342,86.5998,47.1368,86.5998Z" transform="matrix(1 0 0 1 0.69387 0.736183)" fill="rgb(255,140,34)" stroke="none" stroke-width="1" stroke-miterlimit="1"/><path id="eltmBNPpxnu3" d="M65.9007,42.513C66.6914,37.2592,62.6672,34.4349,57.1647,32.5508L58.9496,25.4339L54.5916,24.3542L52.8538,31.2836C51.7081,30.9998,50.5314,30.7321,49.3621,30.4668L51.1123,23.4917L46.7567,22.4121L44.9705,29.5266C44.0222,29.3119,43.0913,29.0997,42.1876,28.8763L42.1926,28.8541L36.1824,27.3624L35.0231,31.9894C35.0231,31.9894,38.2565,32.726,38.1883,32.7717C39.9534,33.2097,40.2724,34.3707,40.219,35.2912L38.1858,43.399C38.3074,43.4298,38.4651,43.4742,38.6389,43.5433C38.4936,43.5075,38.3385,43.4681,38.1783,43.4298L35.3284,54.7875C35.1124,55.3206,34.565,56.1201,33.3312,55.8166C33.3747,55.8795,30.1635,55.0306,30.1635,55.0306L28,59.9895L33.6713,61.3949C34.7264,61.6577,35.7604,61.9329,36.7782,62.192L34.9746,69.3904L39.3278,70.47L41.1139,63.3481C42.3031,63.6689,43.4574,63.9651,44.587,64.2439L42.807,71.3325L47.1651,72.4121L48.9686,65.2273C56.4001,66.6253,61.9882,66.0614,64.3404,59.38C66.2358,54.0003,64.2461,50.8972,60.3361,48.8736C63.1836,48.2209,65.3285,46.359,65.9007,42.513ZM55.9433,56.3928C54.5965,61.7725,45.4844,58.8642,42.5302,58.135L44.9234,48.5985C47.8776,49.3314,57.3509,50.7824,55.9433,56.3928ZM57.2913,42.4353C56.0624,47.3288,48.4783,44.8426,46.0182,44.233L48.1879,35.5836C50.6481,36.1932,58.571,37.3308,57.2913,42.4353Z" transform="matrix(1 0 0 1 0.69387 0.736183)" fill="rgb(255,255,255)" stroke="none" stroke-width="1" stroke-miterlimit="1"/><path id="eltmBNPpxnu4" d="M47.1753,7.67391C54.9766,7.6834,62.6002,10.005,69.0827,14.3453C75.5652,18.6856,80.6158,24.8499,83.5965,32.0594C86.5771,39.2689,87.354,47.2002,85.829,54.851C84.304,62.5019,80.5455,69.5291,75.0285,75.0448C69.5114,80.5606,62.4833,84.3173,54.832,85.8404C47.1808,87.3636,39.2498,86.5848,32.041,83.6024C24.8322,80.62,18.6691,75.5679,14.3303,69.0843C9.99161,62.6007,7.6719,54.9767,7.66431,47.1753C7.65926,41.9857,8.67786,36.846,10.6618,32.0506C12.6457,27.2551,15.5561,22.8981,19.2261,19.2289C22.8962,15.5598,27.2539,12.6505,32.0498,10.6677C36.8457,8.68496,41.9857,7.6676,47.1753,7.67391ZM47.1753,0.000016C37.8525,-0.00757,28.7368,2.74954,20.981,7.9227C13.2251,13.0959,7.17749,20.4527,3.6028,29.063C0.02811,37.6732,-0.91307,47.1501,0.898274,56.2952C2.70962,65.4404,7.19214,73.843,13.779,80.4406C20.3658,87.0382,28.7612,91.5343,37.9033,93.3606C47.0455,95.1868,56.5239,94.2611,65.14,90.7004C73.756,87.1397,81.1227,81.1041,86.3085,73.3567C91.4943,65.6093,94.2662,56.4981,94.2738,47.1753C94.2688,34.6785,89.3074,22.6938,80.478,13.85C71.6486,5.00625,59.6721,0.025415,47.1753,0.000016Z" transform="matrix(1 0 0 1 0.69387 0.736183)" fill="url(#eltmBNPpxnu4-fill)" stroke="none" stroke-width="1" stroke-miterlimit="1"/><g id="eltmBNPpxnu5" transform="matrix(1 0 0 1 0.69387 0.736183)" mask="url(#eltmBNPpxnu8)"><g id="eltmBNPpxnu6_to" style="offset-path:path('M17.371059,15.079629C0.522838,28.939759,-2.01033,60.90192,19.266596,80.461087C32.656559,90.716493,51.355646,95.788854,73.033467,82.679358');offset-rotate:0deg"><g id="eltmBNPpxnu6_tr" transform="rotate(4.550541)"><g id="eltmBNPpxnu6" transform="translate(-17.371059,-15.079629)" opacity="0"><rect id="eltmBNPpxnu7" width="21.9294" height="9.45398" rx="0" ry="0" transform="matrix(0.796767 0.604286 -0.604286 0.796767 10.792991 4.743071)" opacity="0.35" fill="rgb(255,255,255)" stroke="none" stroke-width="1" stroke-miterlimit="1"/></g></g></g><mask id="eltmBNPpxnu8" mask-type="alpha"><path id="eltmBNPpxnu9" d="M47.1753,7.67391C54.9766,7.6834,62.6002,10.005,69.0827,14.3453C75.5652,18.6856,80.6158,24.8499,83.5965,32.0594C86.5771,39.2689,87.354,47.2002,85.829,54.851C84.304,62.5019,80.5455,69.5291,75.0285,75.0448C69.5114,80.5606,62.4833,84.3173,54.832,85.8404C47.1808,87.3636,39.2498,86.5848,32.041,83.6024C24.8322,80.62,18.6691,75.5679,14.3303,69.0843C9.99161,62.6007,7.6719,54.9767,7.66431,47.1753C7.65926,41.9857,8.67786,36.846,10.6618,32.0506C12.6457,27.2551,15.5561,22.8981,19.2261,19.2289C22.8962,15.5598,27.2539,12.6505,32.0498,10.6677C36.8457,8.68496,41.9857,7.6676,47.1753,7.67391ZM47.1753,0.000016C37.8525,-0.00757,28.7368,2.74954,20.981,7.9227C13.2251,13.0959,7.17749,20.4527,3.6028,29.063C0.02811,37.6732,-0.91307,47.1501,0.898274,56.2952C2.70962,65.4404,7.19214,73.843,13.779,80.4406C20.3658,87.0382,28.7612,91.5343,37.9033,93.3606C47.0455,95.1868,56.5239,94.2611,65.14,90.7004C73.756,87.1397,81.1227,81.1041,86.3085,73.3567C91.4943,65.6093,94.2662,56.4981,94.2738,47.1753C94.2688,34.6785,89.3074,22.6938,80.478,13.85C71.6486,5.00625,59.6721,0.025415,47.1753,0.000016Z" fill="url(#eltmBNPpxnu9-fill)" stroke="none" stroke-width="1" stroke-miterlimit="1"/></mask></g><g id="eltmBNPpxnu10" transform="matrix(1 0 0 1 0.69387 0.736183)" mask="url(#eltmBNPpxnu14)"><g id="eltmBNPpxnu11_to" transform="translate(-0.562934,10.166762)"><g id="eltmBNPpxnu11" transform="translate(-47.398406,-46.926431)" opacity="0"><rect id="eltmBNPpxnu12" width="139.027" height="22.2955" rx="0" ry="0" transform="matrix(0.707107 -0.707107 0.707107 0.707107 -5.336958 93.144473)" opacity="0.25" fill="rgb(255,255,255)" stroke="none" stroke-width="1" stroke-miterlimit="1"/><rect id="eltmBNPpxnu13" width="139.027" height="9.20502" rx="0" ry="0" transform="matrix(0.707107 -0.707107 0.707107 0.707107 -13.938468 83.250047)" opacity="0.25" fill="rgb(255,255,255)" stroke="none" stroke-width="1" stroke-miterlimit="1"/></g></g><mask id="eltmBNPpxnu14" mask-type="alpha"><path id="eltmBNPpxnu15" d="M47.1368,86.5998C68.9317,86.5998,86.5998,68.9317,86.5998,47.1368C86.5998,25.342,68.9317,7.67383,47.1368,7.67383C25.342,7.67383,7.67383,25.342,7.67383,47.1368C7.67383,68.9317,25.342,86.5998,47.1368,86.5998Z" fill="rgb(255,140,34)" stroke="none" stroke-width="1" stroke-miterlimit="1"/></mask></g><g id="eltmBNPpxnu16_tr" transform="translate(37.580194,27.077943) rotate(0)"><g id="eltmBNPpxnu16_ts" transform="scale(0,0)"><path id="eltmBNPpxnu16" d="M40.8037,22.5691L39.5095,24.6552C39.1988,25.1593,39.0342,25.7397,39.0342,26.3318C39.0342,26.9239,39.1988,27.5044,39.5095,28.0084L40.8037,30.099C40.8172,30.1209,40.8228,30.1468,40.8196,30.1723C40.8164,30.1978,40.8046,30.2215,40.7861,30.2394C40.7677,30.2573,40.7437,30.2684,40.7181,30.2709C40.6925,30.2733,40.6668,30.267,40.6453,30.2529L38.5592,28.9632C38.0543,28.6526,37.4732,28.4881,36.8804,28.4881C36.2876,28.4881,35.7064,28.6526,35.2015,28.9632L33.1155,30.2529C33.0962,30.2592,33.0755,30.2602,33.0557,30.2558C33.0359,30.2514,33.0176,30.2418,33.0028,30.2279C32.988,30.214,32.9772,30.1964,32.9716,30.1769C32.9659,30.1574,32.9656,30.1368,32.9706,30.1171L34.2603,28.0265C34.571,27.5225,34.7356,26.942,34.7356,26.3499C34.7356,25.7578,34.571,25.1773,34.2603,24.6733L32.9706,22.5872C32.9566,22.5657,32.9502,22.5401,32.9527,22.5145C32.9551,22.4889,32.9662,22.4649,32.9841,22.4464C33.002,22.428,33.0257,22.4162,33.0512,22.413C33.0768,22.4098,33.1026,22.4154,33.1245,22.4289L35.2106,23.7185C35.714,24.0332,36.2958,24.2,36.8894,24.2C37.4831,24.2,38.0648,24.0332,38.5683,23.7185L40.6634,22.4243C40.6834,22.4182,40.7046,22.4177,40.7248,22.4229C40.745,22.4281,40.7634,22.4388,40.7779,22.4537C40.7925,22.4687,40.8026,22.4874,40.8071,22.5078C40.8117,22.5282,40.8105,22.5494,40.8037,22.5691Z" transform="translate(-36.886324,-26.34176)" opacity="0" fill="rgb(255,255,255)" stroke="none" stroke-width="1" stroke-miterlimit="1"/></g></g><g id="eltmBNPpxnu17_to" style="offset-path:path('M18.148297,20.197258C18.148297,20.197258,7.450009,33.978509,9.094003,51.100327C11.603031,71.284369,23.528845,78.388434,28.383478,82.043376C41.684338,89.154084,52.136206,88.69548,70.729136,81.084072');offset-rotate:0deg"><g id="eltmBNPpxnu17_tr" transform="rotate(0)"><g id="eltmBNPpxnu17_ts" transform="scale(0,0)"><path id="eltmBNPpxnu17" d="M68.4795,50.8025L67.1853,52.8886C66.8746,53.3927,66.71,53.9731,66.71,54.5652C66.71,55.1573,66.8746,55.7378,67.1853,56.2418L68.4795,58.3324C68.493,58.3543,68.4985,58.3802,68.4953,58.4057C68.4922,58.4312,68.4804,58.4549,68.4619,58.4728C68.4435,58.4907,68.4195,58.5018,68.3939,58.5042C68.3683,58.5067,68.3426,58.5004,68.3211,58.4863L66.235,57.1966C65.7301,56.886,65.149,56.7215,64.5562,56.7215C63.9634,56.7215,63.3822,56.886,62.8773,57.1966L60.7912,58.4863C60.7719,58.4926,60.7513,58.4936,60.7315,58.4892C60.7117,58.4848,60.6934,58.4752,60.6786,58.4613C60.6638,58.4474,60.653,58.4298,60.6473,58.4103C60.6417,58.3908,60.6414,58.3702,60.6464,58.3505L61.9361,56.2599C62.2468,55.7559,62.4114,55.1754,62.4114,54.5833C62.4114,53.9912,62.2468,53.4107,61.9361,52.9067L60.6464,50.8206C60.6323,50.7991,60.626,50.7735,60.6284,50.7479C60.6309,50.7223,60.642,50.6983,60.6599,50.6798C60.6778,50.6614,60.7015,50.6496,60.727,50.6464C60.7525,50.6432,60.7784,50.6488,60.8003,50.6623L62.8864,51.9519C63.3898,52.2666,63.9715,52.4334,64.5652,52.4334C65.1589,52.4334,65.7406,52.2666,66.2441,51.9519L68.3392,50.6577C68.3592,50.6516,68.3804,50.6511,68.4006,50.6563C68.4208,50.6615,68.4392,50.6722,68.4537,50.6871C68.4682,50.7021,68.4783,50.7208,68.4829,50.7412C68.4874,50.7616,68.4863,50.7828,68.4795,50.8025Z" transform="translate(-64.562046,-54.575124)" opacity="0" fill="rgb(255,255,255)" stroke="none" stroke-width="1" stroke-miterlimit="1"/></g></g></g></svg>