<svg  width="96" height="104" id="eYXWJ5eTwvI1" xmlns="http://www.w3.org/2000/svg" xmlns:xlink="http://www.w3.org/1999/xlink" viewBox="0 0 96 104" shape-rendering="geometricPrecision" text-rendering="geometricPrecision"><style><![CDATA[#eYXWJ5eTwvI18_to {animation: eYXWJ5eTwvI18_to__to 1111.111111111111ms linear infinite normal forwards}@keyframes eYXWJ5eTwvI18_to__to { 0% {transform: translate(18.594488px,-4.13377px)} 5% {transform: translate(18.594488px,-4.13377px)} 85% {transform: translate(102.267248px,79.538992px)} 100% {transform: translate(102.267248px,79.538992px)}} #eYXWJ5eTwvI18 {animation: eYXWJ5eTwvI18_c_o 1111.111111111111ms linear infinite normal forwards}@keyframes eYXWJ5eTwvI18_c_o { 0% {opacity: 0} 5% {opacity: 0} 35% {opacity: 1} 65% {opacity: 1} 85% {opacity: 0} 100% {opacity: 0}} #eYXWJ5eTwvI24_to {animation: eYXWJ5eTwvI24_to__to 1111.111111111111ms linear infinite normal forwards}@keyframes eYXWJ5eTwvI24_to__to { 0% {transform: translate(6.998096px,46.528524px)} 22% {transform: translate(6.998096px,46.528524px)} 67% {transform: translate(33.812671px,100.03237px)} 92% {transform: translate(72.945177px,100.03237px)} 100% {transform: translate(72.945177px,100.03237px)}} #eYXWJ5eTwvI24_tr {animation: eYXWJ5eTwvI24_tr__tr 1111.111111111111ms linear infinite normal forwards}@keyframes eYXWJ5eTwvI24_tr__tr { 0% {transform: rotate(0deg)} 22% {transform: rotate(0deg)} 67% {transform: rotate(-60deg)} 92% {transform: rotate(-92deg)} 100% {transform: rotate(-92deg)}} #eYXWJ5eTwvI24 {animation: eYXWJ5eTwvI24_c_o 1111.111111111111ms linear infinite normal forwards}@keyframes eYXWJ5eTwvI24_c_o { 0% {opacity: 0} 22% {opacity: 0} 37% {opacity: 1} 77% {opacity: 1} 92% {opacity: 0} 100% {opacity: 0}} #eYXWJ5eTwvI28_tr {animation: eYXWJ5eTwvI28_tr__tr 1111.111111111111ms linear infinite normal forwards}@keyframes eYXWJ5eTwvI28_tr__tr { 0% {transform: translate(48.011628px,22.766048px) rotate(0deg)} 66.5% {transform: translate(48.011628px,22.766048px) rotate(0deg)} 86.5% {transform: translate(48.011628px,22.766048px) rotate(180deg)} 100% {transform: translate(48.011628px,22.766048px) rotate(180deg)}} #eYXWJ5eTwvI28_ts {animation: eYXWJ5eTwvI28_ts__ts 1111.111111111111ms linear infinite normal forwards}@keyframes eYXWJ5eTwvI28_ts__ts { 0% {transform: scale(0,0)} 66.5% {transform: scale(0,0)} 75% {transform: scale(1,1)} 76.5% {transform: scale(1,1)} 86.5% {transform: scale(0,0)} 100% {transform: scale(0,0)}} #eYXWJ5eTwvI28 {animation: eYXWJ5eTwvI28_c_o 1111.111111111111ms linear infinite normal forwards}@keyframes eYXWJ5eTwvI28_c_o { 0% {opacity: 0} 66.5% {opacity: 0} 76.5% {opacity: 1} 86.5% {opacity: 0} 100% {opacity: 0}} #eYXWJ5eTwvI29_tr {animation: eYXWJ5eTwvI29_tr__tr 1111.111111111111ms linear infinite normal forwards}@keyframes eYXWJ5eTwvI29_tr__tr { 0% {transform: translate(65.214749px,54.552194px) rotate(0deg)} 79.5% {transform: translate(65.214749px,54.552194px) rotate(0deg)} 99.5% {transform: translate(65.214749px,54.552194px) rotate(180deg)} 100% {transform: translate(65.214749px,54.552194px) rotate(180deg)}} #eYXWJ5eTwvI29_ts {animation: eYXWJ5eTwvI29_ts__ts 1111.111111111111ms linear infinite normal forwards}@keyframes eYXWJ5eTwvI29_ts__ts { 0% {transform: scale(0,0)} 80% {transform: scale(0,0)} 90% {transform: scale(1,1)} 100% {transform: scale(0,0)}} #eYXWJ5eTwvI29 {animation: eYXWJ5eTwvI29_c_o 1111.111111111111ms linear infinite normal forwards}@keyframes eYXWJ5eTwvI29_c_o { 0% {opacity: 0} 79.5% {opacity: 0} 89.5% {opacity: 1} 99.5% {opacity: 0} 100% {opacity: 0}} #eYXWJ5eTwvI30_to {animation: eYXWJ5eTwvI30_to__to 1111.111111111111ms linear infinite normal forwards}@keyframes eYXWJ5eTwvI30_to__to { 0% {transform: translate(25.214749px,23.077959px)} 35% {transform: translate(8.843862px,52.644386px)} 70% {transform: translate(35.34918px,96.436626px)} 85% {transform: translate(59.938979px,96.963396px)} 100% {transform: translate(59.938979px,96.963396px)}} #eYXWJ5eTwvI30_tr {animation: eYXWJ5eTwvI30_tr__tr 1111.111111111111ms linear infinite normal forwards}@keyframes eYXWJ5eTwvI30_tr__tr { 0% {transform: rotate(720deg)} 85% {transform: rotate(0deg)} 100% {transform: rotate(0deg)}} #eYXWJ5eTwvI30_ts {animation: eYXWJ5eTwvI30_ts__ts 1111.111111111111ms linear infinite normal forwards}@keyframes eYXWJ5eTwvI30_ts__ts { 0% {transform: scale(0,0)} 35% {transform: scale(1,1)} 70% {transform: scale(0.8,0.8)} 85% {transform: scale(0,0)} 100% {transform: scale(0,0)}} #eYXWJ5eTwvI30 {animation: eYXWJ5eTwvI30_c_o 1111.111111111111ms linear infinite normal forwards}@keyframes eYXWJ5eTwvI30_c_o { 0% {opacity: 1} 20% {opacity: 1} 70% {opacity: 1} 85% {opacity: 0} 100% {opacity: 0}}]]></style><g id="eYXWJ5eTwvI2" transform="matrix(1 0 0 1 -0.699874 0.143068)" mask="url(#eYXWJ5eTwvI11)"><g id="eYXWJ5eTwvI3"><path id="eYXWJ5eTwvI4" d="M65.0263,103.962L31.7695,103.962L36.0669,96.2884L36.0765,96.2884L48.4027,74.3027L60.7193,96.2884L60.7289,96.2884L65.0263,103.962Z" fill="rgb(108,74,216)" stroke="none" stroke-width="1" stroke-miterlimit="1"/><path id="eYXWJ5eTwvI5" d="M48.4031,74.3029L36.0769,96.2886L36.0673,96.2886L31.7699,103.962L0,51.9814L35.8851,51.9814L48.4031,74.3029Z" transform="matrix(1 0 0 1 0.30805 0)" fill="rgb(190,148,255)" stroke="none" stroke-width="1" stroke-miterlimit="1"/><path id="eYXWJ5eTwvI6" d="M96.7968,51.9814L65.0269,103.962L60.7295,96.2886L60.7199,96.2886L48.4033,74.3029L60.9118,51.9814L96.7968,51.9814Z" fill="rgb(90,41,183)" stroke="none" stroke-width="1" stroke-miterlimit="1"/><path id="eYXWJ5eTwvI7" d="M65.0263,0L60.7289,7.6739L60.7193,7.6739L48.3931,29.65L36.0765,7.6739L36.0669,7.6739L31.7695,0L65.0263,0Z" fill="rgb(190,148,255)" stroke="none" stroke-width="1" stroke-miterlimit="1"/><path id="eYXWJ5eTwvI8" d="M96.7967,51.981L60.9116,51.981L48.3936,29.6596L48.3936,29.65L60.7198,7.6739L60.7293,7.6739L65.0267,0L96.7967,51.981Z" fill="rgb(108,74,216)" stroke="none" stroke-width="1" stroke-miterlimit="1"/><path id="eYXWJ5eTwvI9" d="M48.3935,29.65L48.3935,29.6596L35.8755,51.981L0,51.981L31.7699,0L36.0673,7.6739L36.0769,7.6739L48.3935,29.65Z" fill="rgb(216,192,255)" stroke="none" stroke-width="1" stroke-miterlimit="1"/><path id="eYXWJ5eTwvI10" d="M59.665,7.67383L37.1421,7.67383C36.8123,7.68081,36.4897,7.77276,36.2058,7.94079C35.9218,8.10883,35.6859,8.34726,35.521,8.63307L9.62163,51.0409C9.44236,51.3393,9.34766,51.6808,9.34766,52.0289C9.34766,52.377,9.44236,52.7186,9.62163,53.017L35.521,95.4248C35.6859,95.7106,35.9218,95.9491,36.2058,96.1171C36.4897,96.2851,36.8123,96.3771,37.1421,96.3841L59.665,96.3841C59.9949,96.3771,60.3174,96.2851,60.6014,96.1171C60.8854,95.9491,61.1212,95.7106,61.2861,95.4248L87.2047,52.9786C87.384,52.6802,87.4787,52.3387,87.4787,51.9906C87.4787,51.6425,87.384,51.3009,87.2047,51.0026L61.3053,8.5947C61.134,8.31327,60.8931,8.08071,60.6058,7.91942C60.3185,7.75813,59.9945,7.67355,59.665,7.67383Z" fill="rgb(158,92,255)" stroke="none" stroke-width="1" stroke-miterlimit="1"/></g><mask id="eYXWJ5eTwvI11" mask-type="alpha"><path id="eYXWJ5eTwvI12" d="M0.94904,50.4333L30.6243,1.44564C31.1679,0.548197,32.1409,0,33.1902,0L63.3098,0C64.3591,0,65.3321,0.5482,65.8757,1.44564L95.5584,50.4456C96.1372,51.4011,96.1372,52.5989,95.5584,53.5544L65.8757,102.554C65.3321,103.452,64.3591,104,63.3098,104L33.6764,104C32.6346,104,31.6674,103.46,31.1214,102.572L0.959989,53.56C0.370585,52.6022,0.366359,51.3952,0.94904,50.4333Z" fill="rgb(196,196,196)" stroke="none" stroke-width="1" stroke-miterlimit="1"/></mask></g><path id="eYXWJ5eTwvI13" d="M31.5078,50.2034L48.7114,22.623L65.915,50.2034L48.7114,42.5574L31.5078,50.2034Z" transform="matrix(1 0 0 1 -0.699874 0.143068)" fill="rgb(255,255,255)" stroke="none" stroke-width="1" stroke-miterlimit="1"/><path id="eYXWJ5eTwvI14" d="M32.873,57.8496L48.7113,81.3339L64.5495,57.8496L48.7113,67.4072L32.873,57.8496Z" transform="matrix(1 0 0 1 -0.699874 0.143068)" fill="rgb(255,255,255)" stroke="none" stroke-width="1" stroke-miterlimit="1"/><path id="eYXWJ5eTwvI15" d="M32.0537,54.48L48.7112,46.834L65.3686,54.48L65.3304,54.5032L32.092,54.5032L32.0537,54.48Z" transform="matrix(1 0 0 1 -0.699874 0.143068)" fill="rgb(255,255,255)" stroke="none" stroke-width="1" stroke-miterlimit="1"/><path id="eYXWJ5eTwvI16" d="M32.0537,54.5268L48.7112,62.1729L65.3686,54.5268L65.3304,54.5036L32.092,54.5036L32.0537,54.5268Z" transform="matrix(1 0 0 1 -0.699874 0.143068)" fill="rgb(255,255,255)" stroke="none" stroke-width="1" stroke-miterlimit="1"/><g id="eYXWJ5eTwvI17" transform="matrix(1 0 0 1 -0.699874 0.143068)" mask="url(#eYXWJ5eTwvI21)"><g id="eYXWJ5eTwvI18_to" transform="translate(18.594488,-4.13377)"><g id="eYXWJ5eTwvI18" transform="translate(-48.398406,-51.926435)" opacity="0"><rect id="eYXWJ5eTwvI19" width="139.027" height="22.2955" rx="0" ry="0" transform="matrix(0.707107 -0.707107 0.707107 0.707107 -4.336917 98.1445)" opacity="0.25" fill="rgb(255,255,255)" stroke="none" stroke-width="1" stroke-miterlimit="1"/><rect id="eYXWJ5eTwvI20" width="139.027" height="9.20502" rx="0" ry="0" transform="matrix(0.707107 -0.707107 0.707107 0.707107 -11.84585 88.875168)" opacity="0.25" fill="rgb(255,255,255)" stroke="none" stroke-width="1" stroke-miterlimit="1"/></g></g><mask id="eYXWJ5eTwvI21" mask-type="alpha"><path id="eYXWJ5eTwvI22" d="M59.665,7.67383L37.1421,7.67383C36.8123,7.68081,36.4897,7.77276,36.2058,7.94079C35.9218,8.10883,35.6859,8.34726,35.521,8.63307L9.62163,51.0409C9.44236,51.3393,9.34766,51.6808,9.34766,52.0289C9.34766,52.377,9.44236,52.7186,9.62163,53.017L35.521,95.4248C35.6859,95.7106,35.9218,95.9491,36.2058,96.1171C36.4897,96.2851,36.8123,96.3771,37.1421,96.3841L59.665,96.3841C59.9949,96.3771,60.3174,96.2851,60.6014,96.1171C60.8854,95.9491,61.1212,95.7106,61.2861,95.4248L87.2047,52.9786C87.384,52.6802,87.4787,52.3387,87.4787,51.9906C87.4787,51.6425,87.384,51.3009,87.2047,51.0026L61.3053,8.5947C61.134,8.31327,60.8931,8.08071,60.6058,7.91942C60.3185,7.75813,59.9945,7.67355,59.665,7.67383Z" fill="rgb(158,92,255)" stroke="none" stroke-width="1" stroke-miterlimit="1"/></mask></g><g id="eYXWJ5eTwvI23" transform="matrix(1 0 0 1 -0.699874 0.143068)" mask="url(#eYXWJ5eTwvI26)"><g id="eYXWJ5eTwvI24_to" transform="translate(6.998096,46.528524)"><g id="eYXWJ5eTwvI24_tr" transform="rotate(0)"><g id="eYXWJ5eTwvI24" transform="translate(-6.508651,-58.24313)" opacity="0"><rect id="eYXWJ5eTwvI25" width="21.9294" height="7.85926" rx="0" ry="0" transform="matrix(1 0 0 1 -4.45605 54.3135)" opacity="0.25" fill="rgb(255,255,255)" stroke="none" stroke-width="1" stroke-miterlimit="1"/></g></g></g><mask id="eYXWJ5eTwvI26" mask-type="alpha"><path id="eYXWJ5eTwvI27" d="M9.3004,51.9814C9.32645,51.9814,9.34732,52.0029,9.34732,52.0289C9.34732,52.377,9.44203,52.7186,9.62129,53.017L35.5207,95.4248C35.6856,95.7106,35.9214,95.9491,36.2054,96.1171C36.4894,96.2851,36.8119,96.3771,37.1418,96.3841L59.6647,96.3841C59.9946,96.3771,60.3171,96.2851,60.6011,96.1171C60.6139,96.1095,60.6267,96.1017,60.6394,96.0938C60.7606,96.0182,60.9267,96.0475,60.9966,96.1722L61.0594,96.2843C61.0608,96.2868,61.0636,96.2884,61.0665,96.2884C61.0695,96.2884,61.0722,96.29,61.0737,96.2926L64.5351,102.474C64.9084,103.14,64.4266,103.962,63.6626,103.962L32.6728,103.962C32.3244,103.962,32.0012,103.781,31.8195,103.484L1.27234,53.5029C0.865077,52.8366,1.34464,51.9814,2.12559,51.9814L9.3004,51.9814Z" clip-rule="evenodd" fill="rgb(190,148,255)" fill-rule="evenodd" stroke="none" stroke-width="1" stroke-miterlimit="1"/></mask></g><g id="eYXWJ5eTwvI28_tr" transform="translate(48.011628,22.766048) rotate(0)"><g id="eYXWJ5eTwvI28_ts" transform="scale(0,0)"><path id="eYXWJ5eTwvI28" d="M52.6289,18.8504L51.3347,20.9365C51.024,21.4405,50.8594,22.021,50.8594,22.6131C50.8594,23.2052,51.024,23.7856,51.3347,24.2897L52.6289,26.3803C52.6424,26.4022,52.6479,26.428,52.6448,26.4535C52.6416,26.479,52.6298,26.5027,52.6113,26.5206C52.5929,26.5386,52.5689,26.5496,52.5433,26.5521C52.5177,26.5546,52.492,26.5482,52.4705,26.5341L50.3844,25.2445C49.8795,24.9338,49.2984,24.7694,48.7056,24.7694C48.1128,24.7694,47.5316,24.9338,47.0267,25.2445L44.9406,26.5341C44.9214,26.5404,44.9007,26.5415,44.8809,26.5371C44.8611,26.5327,44.8428,26.523,44.828,26.5092C44.8132,26.4953,44.8024,26.4777,44.7968,26.4582C44.7911,26.4387,44.7908,26.418,44.7958,26.3984L46.0855,24.3077C46.3962,23.8037,46.5608,23.2233,46.5608,22.6312C46.5608,22.0391,46.3962,21.4586,46.0855,20.9546L44.7958,18.8685C44.7817,18.847,44.7754,18.8213,44.7779,18.7957C44.7803,18.7701,44.7914,18.7461,44.8093,18.7277C44.8272,18.7092,44.8509,18.6974,44.8764,18.6942C44.9019,18.691,44.9278,18.6967,44.9497,18.7101L47.0358,19.9998C47.5392,20.3144,48.1209,20.4813,48.7146,20.4813C49.3083,20.4813,49.89,20.3144,50.3935,19.9998L52.4886,18.7056C52.5086,18.6995,52.5298,18.699,52.55,18.7041C52.5702,18.7093,52.5886,18.72,52.6031,18.735C52.6177,18.75,52.6278,18.7687,52.6323,18.7891C52.6368,18.8094,52.6357,18.8307,52.6289,18.8504Z" transform="translate(-48.711502,-22.62298)" opacity="0" fill="rgb(255,255,255)" stroke="none" stroke-width="1" stroke-miterlimit="1"/></g></g><g id="eYXWJ5eTwvI29_tr" transform="translate(65.214749,54.552194) rotate(0)"><g id="eYXWJ5eTwvI29_ts" transform="scale(0,0)"><path id="eYXWJ5eTwvI29" d="M69.832,50.6365L68.5378,52.7226C68.2271,53.2266,68.0626,53.8071,68.0626,54.3992C68.0626,54.9913,68.2271,55.5718,68.5378,56.0758L69.832,58.1664C69.8455,58.1883,69.8511,58.2141,69.8479,58.2397C69.8447,58.2652,69.8329,58.2889,69.8145,58.3068C69.796,58.3247,69.772,58.3358,69.7464,58.3382C69.7208,58.3407,69.6952,58.3343,69.6737,58.3203L67.5875,57.0306C67.0827,56.72,66.5015,56.5555,65.9087,56.5555C65.3159,56.5555,64.7348,56.72,64.2299,57.0306L62.1438,58.3203C62.1245,58.3266,62.1039,58.3276,62.084,58.3232C62.0642,58.3188,62.0459,58.3092,62.0311,58.2953C62.0163,58.2814,62.0055,58.2638,61.9999,58.2443C61.9942,58.2248,61.9939,58.2042,61.999,58.1845L63.2886,56.0939C63.5994,55.5899,63.7639,55.0094,63.7639,54.4173C63.7639,53.8252,63.5994,53.2447,63.2886,52.7407L61.999,50.6546C61.9849,50.6331,61.9785,50.6074,61.981,50.5818C61.9834,50.5562,61.9945,50.5323,62.0124,50.5138C62.0304,50.4954,62.054,50.4836,62.0796,50.4804C62.1051,50.4772,62.1309,50.4828,62.1528,50.4962L64.2389,51.7859C64.7424,52.1006,65.3241,52.2674,65.9177,52.2674C66.5114,52.2674,67.0932,52.1006,67.5966,51.7859L69.6917,50.4917C69.7117,50.4856,69.7329,50.4851,69.7531,50.4903C69.7734,50.4955,69.7917,50.5061,69.8063,50.5211C69.8208,50.5361,69.8309,50.5548,69.8354,50.5752C69.84,50.5955,69.8388,50.6168,69.832,50.6365Z" transform="translate(-65.914623,-54.409126)" opacity="0" fill="rgb(255,255,255)" stroke="none" stroke-width="1" stroke-miterlimit="1"/></g></g><g id="eYXWJ5eTwvI30_to" transform="translate(25.214749,23.077959)"><g id="eYXWJ5eTwvI30_tr" transform="rotate(720)"><g id="eYXWJ5eTwvI30_ts" transform="scale(0,0)"><path id="eYXWJ5eTwvI30" d="M69.832,50.6365L68.5378,52.7226C68.2271,53.2266,68.0626,53.8071,68.0626,54.3992C68.0626,54.9913,68.2271,55.5718,68.5378,56.0758L69.832,58.1664C69.8455,58.1883,69.8511,58.2141,69.8479,58.2397C69.8447,58.2652,69.8329,58.2889,69.8145,58.3068C69.796,58.3247,69.772,58.3358,69.7464,58.3382C69.7208,58.3407,69.6952,58.3343,69.6737,58.3203L67.5875,57.0306C67.0827,56.72,66.5015,56.5555,65.9087,56.5555C65.3159,56.5555,64.7348,56.72,64.2299,57.0306L62.1438,58.3203C62.1245,58.3266,62.1039,58.3276,62.084,58.3232C62.0642,58.3188,62.0459,58.3092,62.0311,58.2953C62.0163,58.2814,62.0055,58.2638,61.9999,58.2443C61.9942,58.2248,61.9939,58.2042,61.999,58.1845L63.2886,56.0939C63.5994,55.5899,63.7639,55.0094,63.7639,54.4173C63.7639,53.8252,63.5994,53.2447,63.2886,52.7407L61.999,50.6546C61.9849,50.6331,61.9785,50.6074,61.981,50.5818C61.9834,50.5562,61.9945,50.5323,62.0124,50.5138C62.0304,50.4954,62.054,50.4836,62.0796,50.4804C62.1051,50.4772,62.1309,50.4828,62.1528,50.4962L64.2389,51.7859C64.7424,52.1006,65.3241,52.2674,65.9177,52.2674C66.5114,52.2674,67.0932,52.1006,67.5966,51.7859L69.6917,50.4917C69.7117,50.4856,69.7329,50.4851,69.7531,50.4903C69.7734,50.4955,69.7917,50.5061,69.8063,50.5211C69.8208,50.5361,69.8309,50.5548,69.8354,50.5752C69.84,50.5955,69.8388,50.6168,69.832,50.6365Z" transform="translate(-65.914623,-54.409126)" fill="rgb(255,255,255)" stroke="none" stroke-width="1" stroke-miterlimit="1"/></g></g></g></svg>