<svg width="105" height="91" id="eDAlNGoY34h1" xmlns="http://www.w3.org/2000/svg" xmlns:xlink="http://www.w3.org/1999/xlink" viewBox="0 0 105 91" shape-rendering="geometricPrecision" text-rendering="geometricPrecision"><style><![CDATA[#eDAlNGoY34h27_to {animation: eDAlNGoY34h27_to__to 1000ms linear infinite normal forwards}@keyframes eDAlNGoY34h27_to__to { 0% {transform: translate(17.50182px,-9.736374px)} 11.111111% {transform: translate(17.50182px,-9.736374px)} 77.777778% {transform: translate(106.014234px,78.776041px)} 100% {transform: translate(106.014234px,78.776041px)}} #eDAlNGoY34h27 {animation: eDAlNGoY34h27_c_o 1000ms linear infinite normal forwards}@keyframes eDAlNGoY34h27_c_o { 0% {opacity: 0} 11.111111% {opacity: 0} 27.777778% {opacity: 0.8} 55.555556% {opacity: 0.8} 72.222222% {opacity: 0} 100% {opacity: 0}} #eDAlNGoY34h33_to {animation: eDAlNGoY34h33_to__to 1000ms linear infinite normal forwards}@keyframes eDAlNGoY34h33_to__to { 0% {transform: translate(2.98347px,42.020379px)} 2.777778% {transform: translate(2.98347px,42.020379px)} 11.111111% {transform: translate(1.321521px,40.348527px)} 30% {transform: translate(5.610347px,45.756698px)} 50% {transform: translate(30.022983px,86.787584px)} 77.777778% {transform: translate(90.733312px,87.273664px)} 100% {transform: translate(90.733312px,87.273664px)}} #eDAlNGoY34h33_tr {animation: eDAlNGoY34h33_tr__tr 1000ms linear infinite normal forwards}@keyframes eDAlNGoY34h33_tr__tr { 0% {transform: rotate(-30.883148deg)} 11.666667% {transform: rotate(-30.883148deg)} 44.444444% {transform: rotate(-30.883148deg)} 50% {transform: rotate(-87.451972deg)} 67.222222% {transform: rotate(-87.451972deg)} 77.777778% {transform: rotate(-131.407192deg)} 100% {transform: rotate(-131.407192deg)}} #eDAlNGoY34h37_tr {animation: eDAlNGoY34h37_tr__tr 1000ms linear infinite normal forwards}@keyframes eDAlNGoY34h37_tr__tr { 0% {transform: translate(39.689987px,25.063128px) rotate(0deg)} 61.111111% {transform: translate(39.689987px,25.063128px) rotate(0deg)} 94.444444% {transform: translate(39.689987px,25.063128px) rotate(240deg)} 100% {transform: translate(39.689987px,25.063128px) rotate(240deg)}} #eDAlNGoY34h37_ts {animation: eDAlNGoY34h37_ts__ts 1000ms linear infinite normal forwards}@keyframes eDAlNGoY34h37_ts__ts { 0% {transform: scale(0,0)} 61.111111% {transform: scale(0,0)} 83.333333% {transform: scale(1,1)} 94.444444% {transform: scale(0.3,0.3)} 100% {transform: scale(0.3,0.3)}} #eDAlNGoY34h37 {animation: eDAlNGoY34h37_c_o 1000ms linear infinite normal forwards}@keyframes eDAlNGoY34h37_c_o { 0% {opacity: 1} 83.333333% {opacity: 1} 94.444444% {opacity: 0} 100% {opacity: 0}} #eDAlNGoY34h38_to {animation: eDAlNGoY34h38_to__to 1000ms linear infinite normal forwards}@keyframes eDAlNGoY34h38_to__to { 0% {transform: translate(28.003588px,12.794987px)} 11.111111% {transform: translate(28.003588px,12.794987px)} 38.888889% {transform: translate(9.279667px,46.067906px)} 72.222222% {transform: translate(30.885454px,83.903817px)} 100% {transform: translate(75.228774px,83.706039px)}} #eDAlNGoY34h38_tr {animation: eDAlNGoY34h38_tr__tr 1000ms linear infinite normal forwards}@keyframes eDAlNGoY34h38_tr__tr { 0% {transform: rotate(240deg)} 11.111111% {transform: rotate(240deg)} 100% {transform: rotate(960deg)}} #eDAlNGoY34h38_ts {animation: eDAlNGoY34h38_ts__ts 1000ms linear infinite normal forwards}@keyframes eDAlNGoY34h38_ts__ts { 0% {transform: scale(0,0)} 11.111111% {transform: scale(0,0)} 38.888889% {transform: scale(1,1)} 72.222222% {transform: scale(1,1)} 100% {transform: scale(0,0)}} #eDAlNGoY34h38 {animation: eDAlNGoY34h38_c_o 1000ms linear infinite normal forwards}@keyframes eDAlNGoY34h38_c_o { 0% {opacity: 0} 11.111111% {opacity: 0} 38.888889% {opacity: 1} 72.222222% {opacity: 1} 100% {opacity: 0}}]]></style><g id="eDAlNGoY34h2" transform="matrix(1 0 0 1 0.428663 0.262404)" mask="url(#eDAlNGoY34h11)"><g id="eDAlNGoY34h3"><path id="eDAlNGoY34h4" d="M78.8388,91.0412L26.2822,91.0412L52.5653,45.5254L78.8388,91.0412Z" fill="rgb(221,55,55)" stroke="none" stroke-width="1" stroke-miterlimit="1"/><path id="eDAlNGoY34h5" d="M52.5652,45.5252L26.2821,91.041L-0.000977,45.5156L52.5556,45.5156L52.5652,45.5252Z" fill="rgb(255,136,136)" stroke="none" stroke-width="1" stroke-miterlimit="1"/><path id="eDAlNGoY34h6" d="M105.122,45.5158L52.5654,45.5158L78.8389,0L105.122,45.5158Z" fill="rgb(221,55,55)" stroke="none" stroke-width="1" stroke-miterlimit="1"/><path id="eDAlNGoY34h7" d="M52.5556,45.5158L-0.000977,45.5158L26.2821,0L52.5556,45.5158Z" fill="rgb(255,192,189)" stroke="none" stroke-width="1" stroke-miterlimit="1"/><path id="eDAlNGoY34h8" d="M78.8388,0L52.5653,45.5158L52.5557,45.5158L26.2822,0L78.8388,0Z" fill="rgb(255,136,136)" stroke="none" stroke-width="1" stroke-miterlimit="1"/><path id="eDAlNGoY34h9" d="M105.122,45.5156L78.8389,91.041L52.5654,45.5252L52.5654,45.5156L105.122,45.5156Z" fill="rgb(165,35,32)" stroke="none" stroke-width="1" stroke-miterlimit="1"/><path id="eDAlNGoY34h10" d="M30.0072,82.4298L9.29727,46.5639C9.13433,46.2704,9.04883,45.9403,9.04883,45.6046C9.04883,45.269,9.13433,44.9389,9.29727,44.6454L30.0168,8.76036C30.1882,8.4633,30.4361,8.21763,30.7347,8.04893C31.0333,7.88022,31.3717,7.79465,31.7146,7.80112L73.1345,7.80112C73.4774,7.79465,73.8158,7.88022,74.1144,8.04893C74.413,8.21763,74.6609,8.4633,74.8323,8.76036L95.5519,44.6454C95.7202,44.9371,95.8089,45.2679,95.8089,45.6046C95.8089,45.9414,95.7202,46.2722,95.5519,46.5639L74.8323,82.4298C74.6609,82.7268,74.413,82.9725,74.1144,83.1412C73.8158,83.3099,73.4774,83.3955,73.1345,83.389L31.705,83.389C31.3621,83.3955,31.0238,83.3099,30.7252,83.1412C30.4265,82.9725,30.1786,82.7268,30.0072,82.4298Z" fill="rgb(255,81,64)" stroke="none" stroke-width="1" stroke-miterlimit="1"/></g><mask id="eDAlNGoY34h11" mask-type="alpha"><path id="eDAlNGoY34h12" d="M25.1353,89.4884L0.857706,47.0027C0.326297,46.0727,0.331009,44.93,0.870067,44.0044L25.6311,1.49016C26.1685,0.567505,27.1558,0,28.2235,0L77.2581,0C78.3346,0,79.3287,0.576858,79.8628,1.51158L104.148,44.0116C104.676,44.9339,104.676,46.0661,104.148,46.9884L79.8628,89.4884C79.3287,90.4231,78.3346,91,77.2581,91L27.74,91C26.6634,91,25.6694,90.4231,25.1353,89.4884Z" fill="rgb(196,196,196)" stroke="none" stroke-width="1" stroke-miterlimit="1"/></mask></g><path id="eDAlNGoY34h13" d="M53.9461,34.3378C41.158,34.3378,35.7326,42.4311,35.7326,42.4311C36.5114,42.1847,37.3378,42.1247,38.1443,42.2559C38.1443,42.2559,33.3911,47.0141,31.0266,53.4961C31.0266,53.4961,36.9134,52.7838,41.81,55.8781C40.6062,45.7547,49.9781,42.1376,53.3743,44.5296C52.91,43.1933,51.2807,41.0421,46.9745,41.9724C50.8064,38.0133,58.4128,39.7229,62.3077,44.5039C62.5804,43.7576,62.7614,42.9813,62.8465,42.1917C62.8465,42.1917,65.0605,43.3428,65.6824,45.2034C65.8257,43.9782,66.8417,42.4966,66.8417,42.4966C66.8417,42.4966,67.6743,43.5708,68.2246,45.4256C68.6296,44.8768,69.1764,44.447,69.8071,44.1819C70.4378,43.9168,71.1288,43.8263,71.8071,43.9198C71.8071,43.9198,66.7342,34.3378,53.9461,34.3378Z" transform="matrix(1 0 0 1 0.428663 0.262403)" fill="rgb(255,255,255)" stroke="none" stroke-width="1" stroke-miterlimit="1"/><path id="eDAlNGoY34h14" d="M46.9736,41.968C41.4523,43.4923,38.0432,47.5739,36.6875,53.8465C38.5043,54.2137,40.2406,54.9002,41.8148,55.8737C40.6111,45.7503,49.983,42.1332,53.3792,44.5252C52.9063,43.1889,51.2727,41.042,46.9736,41.968Z" transform="matrix(1 0 0 1 0.428663 0.262403)" fill="rgb(255,255,255)" stroke="none" stroke-width="1" stroke-miterlimit="1"/><path id="eDAlNGoY34h15" d="M47.3248,36.7847C44.0877,32.0976,39.6654,30.4992,39.6654,30.4992C39.6654,30.4992,36.2921,32.884,37.1462,38.3845C37.7552,35.2617,39.5594,33.716,39.5594,33.716C39.5594,33.716,41.7089,35.3016,42.6074,38.5156C43.5059,41.7295,47.3248,36.7847,47.3248,36.7847Z" transform="matrix(1 0 0 1 0.428663 0.262403)" fill="rgb(255,255,255)" stroke="none" stroke-width="1" stroke-miterlimit="1"/><path id="eDAlNGoY34h16" d="M68.9757,47.1576C69.6664,45.5905,70.9618,45.5378,70.9618,45.5378C70.8601,46.5125,70.5618,47.4568,70.0848,48.3144C69.7954,47.8599,69.4184,47.4667,68.9757,47.1576Z" transform="matrix(1 0 0 1 0.428663 0.262403)" fill="rgb(255,255,255)" stroke="none" stroke-width="1" stroke-miterlimit="1"/><path id="eDAlNGoY34h17" d="M55.5394,48.811C63.0025,50.1673,63.7448,58.7834,68.0481,58.7834C70.6634,58.7834,71.6106,57.2662,71.6106,57.2662C69.9254,57.4899,68.703,56.0239,68.6156,55.0224C68.5282,54.0209,68.746,52.7174,68.746,52.7174C68.746,52.7174,71.0388,52.8256,72.0204,53.5864C72.9347,53.0678,74.1026,52.9538,74.1026,52.9538C74.1026,52.9538,72.8745,51.0249,69.6603,50.0946C69.2504,51.0135,68.2187,51.8683,68.2187,51.8683C68.2187,51.8683,66.1924,48.6842,61.3044,47.5374C61.6509,48.172,61.8639,48.8699,61.9306,49.5889C61.9306,49.5889,59.6737,47.8181,55.5394,48.811Z" transform="matrix(1 0 0 1 0.428663 0.262403)" fill="rgb(255,255,255)" stroke="none" stroke-width="1" stroke-miterlimit="1"/><path id="eDAlNGoY34h18" d="M55.2571,52.8234C54.383,51.8476,54.5678,50.9016,54.5678,50.9016C54.5678,50.9016,54.9977,50.46,56.2703,50.46C58.9758,50.46,61.4104,55.2481,63.5786,57.2668C60.4718,56.187,54.8874,59.4038,53.8413,53.4204C54.8043,55.1057,56.1442,55.1171,56.1442,55.1171C55.9524,54.6816,55.8845,54.2021,55.9478,53.7309C56.7804,54.6185,58.4585,54.6498,58.4585,54.6498C56.7303,53.409,55.998,51.2307,55.998,51.2307C55.3646,51.8689,55.2571,52.8234,55.2571,52.8234Z" transform="matrix(1 0 0 1 0.428663 0.262403)" fill="rgb(255,255,255)" stroke="none" stroke-width="1" stroke-miterlimit="1"/><path id="eDAlNGoY34h19" d="M54.5255,49.2386C50.2867,50.5578,52.7557,59.1697,58.4691,58.5101C64.1825,57.8505,66.6372,59.5358,67.6404,62.1386C66.0575,61.1317,64.2174,60.5972,62.3382,60.5986C62.7995,60.8006,63.2056,61.1092,63.5227,61.4987C63.8397,61.8882,64.0586,62.3475,64.161,62.8381C63.1315,61.865,61.7626,61.3267,60.3421,61.3365C57.2983,61.3365,54.1572,62.4563,51.5405,61.3565C48.739,57.5784,49.8811,53.863,49.8811,53.863C48.6645,54.5154,48.4065,55.8774,48.4065,55.8774C48.4065,55.8774,47.5754,49.1759,54.5255,49.2386Z" transform="matrix(1 0 0 1 0.428663 0.262403)" fill="rgb(255,255,255)" stroke="none" stroke-width="1" stroke-miterlimit="1"/><path id="eDAlNGoY34h20" d="M54.8782,42.3998C55.9056,44.7362,57.0635,46.054,57.0635,46.054C57.0635,46.054,58.4879,46.2506,59.779,45.658C59.779,45.658,58.3933,43.2817,54.8782,42.3998Z" transform="matrix(1 0 0 1 0.428663 0.262403)" fill="rgb(255,255,255)" stroke="none" stroke-width="1" stroke-miterlimit="1"/><path id="eDAlNGoY34h21" d="M62.3643,32.3841C63.5752,30.2144,65.1802,29.787,65.1802,29.787C65.1802,29.787,67.2767,32.3185,67.4114,36.5183C66.1778,35.5925,64.806,34.8642,63.3459,34.36C64.146,34.2844,64.9531,34.3816,65.7118,34.6449C65.623,33.3751,65.1788,32.1553,64.4293,31.1233C64.4293,31.1233,63.6368,31.3042,62.3643,32.3841Z" transform="matrix(1 0 0 1 0.428663 0.262403)" fill="rgb(255,255,255)" stroke="none" stroke-width="1" stroke-miterlimit="1"/><path id="eDAlNGoY34h22" d="M72.0863,56.3209C72.8102,55.6588,73.4045,54.869,73.8389,53.9916C73.3551,54.0813,72.8859,54.2366,72.4446,54.4532C72.194,55.0437,72.0719,55.6802,72.0863,56.3209Z" transform="matrix(1 0 0 1 0.428663 0.262403)" fill="rgb(255,255,255)" stroke="none" stroke-width="1" stroke-miterlimit="1"/><path id="eDAlNGoY34h23" d="M65.9533,24.8008L65.3629,25.0857C64.6426,25.4234,63.946,25.8089,63.2778,26.2397C62.6146,26.6683,61.9777,27.136,61.3705,27.6401C60.7686,28.1425,60.1946,28.6771,59.6509,29.2413C59.3772,29.5263,59.1121,29.8112,58.8541,30.1132C58.7266,30.2557,58.6005,30.4138,58.4758,30.5691C58.4758,30.5691,52.8542,30.5577,50.3235,32.6419C54.3602,31.7145,59.2583,32.6334,59.2583,32.6334L59.6237,32.1248L59.767,31.931L59.9289,31.7259C60.0392,31.5834,60.1525,31.4524,60.27,31.317C60.5021,31.0463,60.7443,30.7828,60.9865,30.5249C61.4849,30.0092,62.0111,29.5208,62.5628,29.0618C63.1105,28.606,63.6847,28.1827,64.2824,27.7939C64.6941,27.5289,65.1164,27.2844,65.5492,27.0602C66.054,27.6121,66.5122,28.2043,66.9191,28.831C67.1809,29.2385,67.4226,29.6583,67.6442,30.0904C67.862,30.5178,68.0626,30.968,68.2389,31.421C68.5929,32.3295,68.862,33.2685,69.0428,34.2261C69.1317,34.7062,69.2005,35.1906,69.2434,35.6749C69.2664,35.9171,69.2807,36.1579,69.2907,36.3987L69.2907,37.0839L69.2764,37.6224L69.7149,37.9216L69.7937,37.9757L69.8869,38.0412L70.0746,38.1837C70.2007,38.2787,70.3254,38.3784,70.4486,38.4829C70.6951,38.688,70.9344,38.9103,71.1651,39.1311C71.6279,39.5825,72.0566,40.0673,72.4476,40.5814C72.8361,41.0901,73.183,41.6289,73.4851,42.1926C73.7433,42.6852,73.9632,43.1967,74.1429,43.7227C74.0655,44.066,73.9867,44.4093,73.8936,44.7498C73.7832,45.1686,73.6542,45.5846,73.521,45.9978C73.3877,46.4109,73.2344,46.8184,73.0767,47.2201C72.9979,47.421,72.9134,47.619,72.8288,47.8156L72.697,48.1005C72.6554,48.1931,72.6053,48.2957,72.568,48.3684L72.1825,49.1334L72.899,49.5807C73.671,50.0628,74.3913,50.6223,75.0486,51.2504C75.2148,51.4042,75.3695,51.5695,75.5257,51.7319C75.6819,51.8943,75.831,52.0653,75.9714,52.2419C76.2594,52.5879,76.5242,52.9525,76.7639,53.3332C77.2483,54.0886,77.6335,54.9025,77.9103,55.755C78.0491,56.1795,78.1597,56.6126,78.2413,57.0514C78.2814,57.2694,78.3144,57.4888,78.3387,57.7068L78.3387,57.721C77.7691,57.9493,77.2114,58.206,76.6678,58.4903C75.9085,58.892,75.1761,59.3422,74.4753,59.838C73.7746,60.3241,73.1045,60.8527,72.4691,61.4208C71.8386,61.9774,71.2499,62.5792,70.708,63.2215C71.3519,62.6979,72.0335,62.2218,72.7471,61.7969C73.4509,61.3702,74.1796,60.9858,74.9296,60.6458C75.6694,60.3126,76.43,60.0271,77.2067,59.791C77.9711,59.5571,78.7512,59.3766,79.541,59.2511L80.2389,59.1399L80.2389,58.127L80.2289,57.919C80.2203,57.7766,80.2074,57.6469,80.193,57.513C80.1644,57.2466,80.1243,56.9845,80.077,56.7224C79.9797,56.2041,79.849,55.6925,79.6858,55.1909C79.3608,54.1884,78.9091,53.231,78.3416,52.3416C78.0608,51.8947,77.7511,51.4664,77.4144,51.0595C77.2511,50.8529,77.072,50.662,76.8971,50.4654C76.7223,50.2688,76.5346,50.085,76.344,49.9069C75.7907,49.3765,75.1971,48.8892,74.5685,48.4496C74.6487,48.2629,74.7276,48.0749,74.8021,47.8868C74.975,47.448,75.1355,47.0059,75.2836,46.5605C75.4269,46.1146,75.5702,45.6673,75.6862,45.2128C75.8023,44.7584,75.9141,44.3025,76.013,43.8437L76.0631,43.6115L75.99,43.3807C75.7657,42.6691,75.478,41.9787,75.1302,41.3179C74.7834,40.6624,74.3837,40.0359,73.9351,39.4445C73.4882,38.8593,72.9987,38.3074,72.4706,37.7934C72.2055,37.5369,71.9332,37.2876,71.648,37.0497C71.5047,36.93,71.3614,36.8146,71.211,36.6993L71.1579,36.6594C71.1579,36.5468,71.1579,36.4343,71.1508,36.3217C71.1393,36.0468,71.1235,35.7732,71.0978,35.5011C71.049,34.9569,70.9731,34.417,70.8742,33.8813C70.6754,32.8089,70.378,31.757,69.9857,30.7386C69.7866,30.23,69.5558,29.73,69.3165,29.2399C69.067,28.7514,68.7925,28.2759,68.494,27.8153C67.753,26.7267,66.9017,25.7166,65.9533,24.8008Z" transform="matrix(1 0 0 1 0.428663 0.262403)" fill="rgb(255,255,255)" stroke="none" stroke-width="1" stroke-miterlimit="1"/><path id="eDAlNGoY34h24" d="M67.364,43.3469C67.7196,44.01,68.0049,44.708,68.2152,45.4297C68.6197,44.8801,69.1663,44.4495,69.7971,44.1836C70.4278,43.9178,71.1191,43.8265,71.7978,43.9196C69.9033,42.6517,68.1608,43.0463,67.364,43.3469Z" transform="matrix(1 0 0 1 0.428663 0.262403)" fill="rgb(255,255,255)" stroke="none" stroke-width="1" stroke-miterlimit="1"/><path id="eDAlNGoY34h25" d="M47.3794,64.0973C46.5622,63.3789,45.7038,62.7082,44.8085,62.0886C43.0073,60.8436,41.0828,59.7849,39.0651,58.9288C37.0364,58.0681,34.9319,57.3961,32.7785,56.9215C30.9844,56.5267,29.1648,56.2564,27.333,56.1123C27.4993,55.4332,27.6903,54.7589,27.9062,54.0893C28.5582,52.0821,29.4108,50.1449,30.4513,48.3068C30.7106,47.848,30.9829,47.395,31.2666,46.9534C31.4099,46.7326,31.5532,46.5132,31.6965,46.2981L31.9273,45.9732C32.0003,45.8721,32.0835,45.761,32.1465,45.6783L33.4262,44.0329L31.344,44.1868L30.4025,44.2551L30.4212,44.2295C30.7883,43.7449,31.182,43.2807,31.6005,42.8391C32.0218,42.3903,32.4603,41.9558,32.9246,41.5355C33.1539,41.3261,33.3875,41.1195,33.6239,40.9187C33.8604,40.7178,34.1054,40.5141,34.3404,40.3374L34.7116,40.0525L34.7016,39.5838L34.7016,39.1564C34.7016,39.0139,34.7016,38.8601,34.7145,38.7119C34.7259,38.4142,34.7445,38.1164,34.7689,37.8158C34.8162,37.2175,34.8878,36.6206,34.9796,36.0294C35.1586,34.8498,35.4395,33.6877,35.8193,32.5561C36.1877,31.4442,36.6931,30.3819,37.324,29.3935C37.8491,28.5739,38.4933,27.836,39.2356,27.2038C39.8585,27.4536,40.4713,27.7252,41.0741,28.0187C41.8324,28.3889,42.5709,28.7979,43.2867,29.2439C43.9987,29.6882,44.6848,30.1724,45.3416,30.6941C45.6683,30.9548,45.9865,31.2241,46.2903,31.5047C46.4422,31.6472,46.5912,31.7897,46.7345,31.9321L46.9437,32.1487L47.0426,32.2555L47.1171,32.351L47.5112,32.794C44.2353,27.1454,38.9132,25.1011,38.9132,25.1011L38.5105,25.4045C37.4213,26.2253,36.4882,27.2326,35.7548,28.3791C35.0397,29.4958,34.4669,30.6965,34.0495,31.9535C33.6354,33.1863,33.3286,34.4523,33.1324,35.7373C33.0369,36.3755,32.9614,37.0166,32.906,37.6606C32.8802,37.9825,32.8606,38.3054,32.8472,38.6293C32.8401,38.7917,32.8358,38.9541,32.8329,39.1179L32.8329,39.1578C32.6896,39.2747,32.5463,39.39,32.4116,39.5097C32.1594,39.7263,31.9101,39.9457,31.665,40.1707C31.1749,40.6181,30.7001,41.0854,30.2406,41.5726C29.7746,42.0643,29.3364,42.5813,28.928,43.1211C28.5009,43.6823,28.13,44.2835,27.8203,44.9162L27.1339,46.3508L29.5599,46.1713C29.3077,46.573,29.0627,46.979,28.8291,47.3907C27.7255,49.3407,26.8216,51.3958,26.1307,53.5252C25.787,54.5926,25.5,55.6773,25.2709,56.7747L25.0488,57.8845L26.1723,57.8845C28.2964,57.8456,30.4201,57.9805,32.522,58.2877C34.6332,58.5966,36.711,59.1002,38.7283,59.7921C40.7571,60.4883,42.7094,61.3881,44.5549,62.4775C45.4812,63.0252,46.3749,63.6255,47.2318,64.2754C48.0963,64.9197,48.9054,65.6345,49.6507,66.4123C48.9602,65.5787,48.2004,64.8043,47.3794,64.0973Z" transform="matrix(1 0 0 1 0.428663 0.262403)" fill="rgb(255,255,255)" stroke="none" stroke-width="1" stroke-miterlimit="1"/><g id="eDAlNGoY34h26" transform="matrix(1 0 0 1 0.428663 0.262403)" mask="url(#eDAlNGoY34h30)"><g id="eDAlNGoY34h27_to" transform="translate(17.50182,-9.736374)"><g id="eDAlNGoY34h27" transform="translate(-39.908215,-33.979181)" opacity="0"><rect id="eDAlNGoY34h28" width="139.027" height="22.2955" rx="0" ry="0" transform="matrix(0.707107 -0.707107 0.707107 0.707107 -12.726819 80.142023)" opacity="0.32" fill="rgb(255,255,255)" stroke="none" stroke-width="1" stroke-miterlimit="1"/><rect id="eDAlNGoY34h29" width="139.027" height="9.20502" rx="0" ry="0" transform="matrix(0.707107 -0.707107 0.707107 0.707107 -21.428663 70.302695)" opacity="0.32" fill="rgb(255,255,255)" stroke="none" stroke-width="1" stroke-miterlimit="1"/></g></g><mask id="eDAlNGoY34h30" mask-type="alpha"><path id="eDAlNGoY34h31" d="M30.0775,82.4415L9.36758,46.5756C9.20464,46.2822,9.11914,45.952,9.11914,45.6164C9.11914,45.2807,9.20464,44.9506,9.36758,44.6571L30.0871,8.77208C30.2585,8.47502,30.5064,8.22935,30.8051,8.06065C31.1037,7.89194,31.442,7.80637,31.7849,7.81284L73.2048,7.81284C73.5477,7.80637,73.8861,7.89194,74.1847,8.06065C74.4833,8.22935,74.7312,8.47502,74.9026,8.77208L95.6222,44.6571C95.7906,44.9488,95.8792,45.2796,95.8792,45.6164C95.8792,45.9531,95.7906,46.284,95.6222,46.5756L74.9026,82.4415C74.7312,82.7385,74.4833,82.9842,74.1847,83.1529C73.8861,83.3216,73.5477,83.4072,73.2048,83.4007L31.7754,83.4007C31.4324,83.4072,31.0941,83.3216,30.7955,83.1529C30.4969,82.9842,30.2489,82.7385,30.0775,82.4415Z" fill="rgb(255,255,255)" stroke="none" stroke-width="1" stroke-miterlimit="1"/></mask></g><g id="eDAlNGoY34h32" transform="matrix(1 0 0 1 0.428663 0.262403)" mask="url(#eDAlNGoY34h35)"><g id="eDAlNGoY34h33_to" transform="translate(2.98347,42.020379)"><g id="eDAlNGoY34h33_tr" transform="rotate(-30.883148)"><g id="eDAlNGoY34h33" transform="scale(0.548872,1.034401) translate(-9.119714,-52.24703)" opacity="0.6"><rect id="eDAlNGoY34h34" width="21.9294" height="7.85926" rx="0" ry="0" transform="matrix(1 0 0 1 -1.844986 48.3174)" opacity="0.25" fill="rgb(255,255,255)" stroke="none" stroke-width="1" stroke-miterlimit="1"/></g></g></g><mask id="eDAlNGoY34h35" mask-type="alpha"><path id="eDAlNGoY34h36" d="M9.43396,46.5756L30.4513,83.1412C31.024166,83.3971,74.188,83.214882,74.4753,83.382982L78.8388,91.041C76.6678,91.041,28.833989,91.041,26.2822,91.041L0.431987,46.25C0.239544,45.9167,0.480108,45.5,0.865005,45.5L9.18895,45.5C9.18667,45.5387,9.18552,45.5775,9.18552,45.6164C9.18552,45.952,9.27102,46.2822,9.43396,46.5756Z" transform="matrix(1 0 0 1 0 0.000001)" fill="rgb(39,83,169)" stroke="none" stroke-width="1" stroke-linecap="round" stroke-linejoin="round" stroke-miterlimit="1"/></mask></g><g id="eDAlNGoY34h37_tr" transform="translate(39.689987,25.063128) rotate(0)"><g id="eDAlNGoY34h37_ts" transform="scale(0,0)"><path id="eDAlNGoY34h37" d="M43.1787,21.0281L41.8845,23.1142C41.5738,23.6182,41.4092,24.1987,41.4092,24.7908C41.4092,25.3829,41.5738,25.9634,41.8845,26.4674L43.1787,28.558C43.1922,28.5799,43.1978,28.6057,43.1946,28.6313C43.1914,28.6568,43.1796,28.6805,43.1611,28.6984C43.1427,28.7163,43.1187,28.7274,43.0931,28.7298C43.0675,28.7323,43.0418,28.7259,43.0203,28.7119L40.9342,27.4222C40.4293,27.1116,39.8482,26.9471,39.2554,26.9471C38.6626,26.9471,38.0814,27.1116,37.5765,27.4222L35.4905,28.7119C35.4712,28.7182,35.4505,28.7192,35.4307,28.7148C35.4109,28.7104,35.3926,28.7008,35.3778,28.6869C35.363,28.673,35.3522,28.6554,35.3466,28.6359C35.3409,28.6164,35.3406,28.5958,35.3456,28.5761L36.6353,26.4855C36.946,25.9815,37.1106,25.401,37.1106,24.8089C37.1106,24.2168,36.946,23.6363,36.6353,23.1323L35.3456,21.0462C35.3316,21.0247,35.3252,20.999,35.3277,20.9734C35.3301,20.9478,35.3412,20.9239,35.3591,20.9054C35.377,20.887,35.4007,20.8752,35.4262,20.872C35.4518,20.8688,35.4776,20.8744,35.4995,20.8878L37.5856,22.1775C38.089,22.4922,38.6708,22.659,39.2644,22.659C39.8581,22.659,40.4398,22.4922,40.9433,22.1775L43.0384,20.8833C43.0584,20.8772,43.0796,20.8767,43.0998,20.8819C43.12,20.8871,43.1384,20.8977,43.1529,20.9127C43.1675,20.9277,43.1776,20.9464,43.1821,20.9668C43.1867,20.9871,43.1855,21.0084,43.1787,21.0281Z" transform="translate(-39.261324,-24.800725)" fill="rgb(255,255,255)" stroke="none" stroke-width="1" stroke-miterlimit="1"/></g></g><g id="eDAlNGoY34h38_to" transform="translate(28.003588,12.794987)"><g id="eDAlNGoY34h38_tr" transform="rotate(240)"><g id="eDAlNGoY34h38_ts" transform="scale(0,0)"><path id="eDAlNGoY34h38" d="M43.1787,21.0281L41.8845,23.1142C41.5738,23.6182,41.4092,24.1987,41.4092,24.7908C41.4092,25.3829,41.5738,25.9634,41.8845,26.4674L43.1787,28.558C43.1922,28.5799,43.1978,28.6057,43.1946,28.6313C43.1914,28.6568,43.1796,28.6805,43.1611,28.6984C43.1427,28.7163,43.1187,28.7274,43.0931,28.7298C43.0675,28.7323,43.0418,28.7259,43.0203,28.7119L40.9342,27.4222C40.4293,27.1116,39.8482,26.9471,39.2554,26.9471C38.6626,26.9471,38.0814,27.1116,37.5765,27.4222L35.4905,28.7119C35.4712,28.7182,35.4505,28.7192,35.4307,28.7148C35.4109,28.7104,35.3926,28.7008,35.3778,28.6869C35.363,28.673,35.3522,28.6554,35.3466,28.6359C35.3409,28.6164,35.3406,28.5958,35.3456,28.5761L36.6353,26.4855C36.946,25.9815,37.1106,25.401,37.1106,24.8089C37.1106,24.2168,36.946,23.6363,36.6353,23.1323L35.3456,21.0462C35.3316,21.0247,35.3252,20.999,35.3277,20.9734C35.3301,20.9478,35.3412,20.9239,35.3591,20.9054C35.377,20.887,35.4007,20.8752,35.4262,20.872C35.4518,20.8688,35.4776,20.8744,35.4995,20.8878L37.5856,22.1775C38.089,22.4922,38.6708,22.659,39.2644,22.659C39.8581,22.659,40.4398,22.4922,40.9433,22.1775L43.0384,20.8833C43.0584,20.8772,43.0796,20.8767,43.0998,20.8819C43.12,20.8871,43.1384,20.8977,43.1529,20.9127C43.1675,20.9277,43.1776,20.9464,43.1821,20.9668C43.1867,20.9871,43.1855,21.0084,43.1787,21.0281Z" transform="translate(-39.261324,-24.800725)" opacity="0" fill="rgb(255,255,255)" stroke="none" stroke-width="1" stroke-miterlimit="1"/></g></g></g></svg>