<svg width="107" height="106" id="eeBy2STd0Cl1" xmlns="http://www.w3.org/2000/svg" xmlns:xlink="http://www.w3.org/1999/xlink" viewBox="0 0 107 106" shape-rendering="geometricPrecision" text-rendering="geometricPrecision"><style><![CDATA[#eeBy2STd0Cl11_to {animation: eeBy2STd0Cl11_to__to 1111.111111111111ms linear infinite normal forwards}@keyframes eeBy2STd0Cl11_to__to { 0% {transform: translate(20.647773px,19.239711px)} 10% {transform: translate(20.647773px,19.239711px)} 80% {transform: translate(90.516594px,91.554957px)} 100% {transform: translate(90.516594px,91.554957px)}} #eeBy2STd0Cl11 {animation: eeBy2STd0Cl11_c_o 1111.111111111111ms linear infinite normal forwards}@keyframes eeBy2STd0Cl11_c_o { 0% {opacity: 0} 10% {opacity: 0} 25% {opacity: 1} 65% {opacity: 1} 80% {opacity: 0} 100% {opacity: 0}} #eeBy2STd0Cl17_to {animation: eeBy2STd0Cl17_to__to 1111.111111111111ms linear infinite normal forwards}@keyframes eeBy2STd0Cl17_to__to { 0% {transform: translate(5.247894px,49.501867px)} 65% {transform: translate(59.472008px,108.474128px)} 100% {transform: translate(59.472008px,108.474128px)}} #eeBy2STd0Cl17_tr {animation: eeBy2STd0Cl17_tr__tr 1111.111111111111ms linear infinite normal forwards}@keyframes eeBy2STd0Cl17_tr__tr { 0% {transform: rotate(-19.346632deg)} 65% {transform: rotate(-50.790719deg)} 100% {transform: rotate(-50.790719deg)}} #eeBy2STd0Cl17 {animation: eeBy2STd0Cl17_c_o 1111.111111111111ms linear infinite normal forwards}@keyframes eeBy2STd0Cl17_c_o { 0% {opacity: 0} 15% {opacity: 1} 45% {opacity: 1} 65% {opacity: 0} 100% {opacity: 0}} #eeBy2STd0Cl23_tr {animation: eeBy2STd0Cl23_tr__tr 1111.111111111111ms linear infinite normal forwards}@keyframes eeBy2STd0Cl23_tr__tr { 0% {transform: translate(54.606608px,26.958528px) rotate(0deg)} 65% {transform: translate(54.606608px,26.958528px) rotate(0deg)} 90% {transform: translate(54.606608px,26.958528px) rotate(180deg)} 100% {transform: translate(54.606608px,26.958528px) rotate(180deg)}} #eeBy2STd0Cl23_ts {animation: eeBy2STd0Cl23_ts__ts 1111.111111111111ms linear infinite normal forwards}@keyframes eeBy2STd0Cl23_ts__ts { 0% {transform: scale(0,0)} 65% {transform: scale(0,0)} 75% {transform: scale(1,1)} 80% {transform: scale(1,1)} 90% {transform: scale(0,0)} 100% {transform: scale(0,0)}} #eeBy2STd0Cl23 {animation: eeBy2STd0Cl23_c_o 1111.111111111111ms linear infinite normal forwards}@keyframes eeBy2STd0Cl23_c_o { 0% {opacity: 0} 65% {opacity: 0} 75% {opacity: 1} 80% {opacity: 1} 90% {opacity: 0} 100% {opacity: 0}} #eeBy2STd0Cl24_tr {animation: eeBy2STd0Cl24_tr__tr 1111.111111111111ms linear infinite normal forwards}@keyframes eeBy2STd0Cl24_tr__tr { 0% {transform: translate(71.046072px,63.166531px) rotate(0deg)} 75% {transform: translate(71.046072px,63.166531px) rotate(0deg)} 100% {transform: translate(71.046072px,63.166531px) rotate(180deg)}} #eeBy2STd0Cl24_ts {animation: eeBy2STd0Cl24_ts__ts 1111.111111111111ms linear infinite normal forwards}@keyframes eeBy2STd0Cl24_ts__ts { 0% {transform: scale(0,0)} 75% {transform: scale(0,0)} 85% {transform: scale(1,1)} 90% {transform: scale(1,1)} 100% {transform: scale(0,0)}} #eeBy2STd0Cl24 {animation: eeBy2STd0Cl24_c_o 1111.111111111111ms linear infinite normal forwards}@keyframes eeBy2STd0Cl24_c_o { 0% {opacity: 0} 75% {opacity: 0} 85% {opacity: 1} 90% {opacity: 1} 100% {opacity: 0}} #eeBy2STd0Cl25_to {animation: eeBy2STd0Cl25_to__to 1111.111111111111ms linear infinite normal forwards}@keyframes eeBy2STd0Cl25_to__to { 0% {transform: translate(36.731399px,26.058816px)} 5% {transform: translate(36.731399px,26.058816px)} 35% {transform: translate(11.021779px,53.081649px)} 85% {transform: translate(54.453866px,95.891612px)} 100% {transform: translate(54.453866px,95.891612px)}} #eeBy2STd0Cl25_tr {animation: eeBy2STd0Cl25_tr__tr 1111.111111111111ms linear infinite normal forwards}@keyframes eeBy2STd0Cl25_tr__tr { 0% {transform: rotate(0deg)} 5% {transform: rotate(0deg)} 85% {transform: rotate(360deg)} 100% {transform: rotate(360deg)}} #eeBy2STd0Cl25_ts {animation: eeBy2STd0Cl25_ts__ts 1111.111111111111ms linear infinite normal forwards}@keyframes eeBy2STd0Cl25_ts__ts { 0% {transform: scale(0,0)} 5% {transform: scale(0,0)} 30% {transform: scale(1,1)} 50% {transform: scale(1,1)} 85% {transform: scale(0,0)} 100% {transform: scale(0,0)}} #eeBy2STd0Cl25 {animation: eeBy2STd0Cl25_c_o 1111.111111111111ms linear infinite normal forwards}@keyframes eeBy2STd0Cl25_c_o { 0% {opacity: 0} 5% {opacity: 0} 25% {opacity: 1} 65% {opacity: 1} 85% {opacity: 0} 100% {opacity: 0}}]]></style><g id="eeBy2STd0Cl2" transform="matrix(1 0 0 1 15.601168 13.601168)" mask="url(#eeBy2STd0Cl21)"><g id="eeBy2STd0Cl3"><path id="eeBy2STd0Cl4" d="M54.9825,0L54.9825,54L0.987305,54L54.9825,0Z" transform="matrix(1 0 0 1 -17 -15)" fill="rgb(255,229,160)" stroke="none" stroke-width="1" stroke-miterlimit="1"/><path id="eeBy2STd0Cl5" d="M0.987305,54L54.9825,54L54.9825,108L0.987305,54Z" transform="matrix(1 0 0 1 -17 -15)" fill="rgb(225,172,38)" stroke="none" stroke-width="1" stroke-miterlimit="1"/><path id="eeBy2STd0Cl6" d="M54.9824,108L54.9824,54L108.987,54L54.9824,108Z" transform="matrix(1 0 0 1 -17 -15)" fill="rgb(148,112,23)" stroke="none" stroke-width="1" stroke-miterlimit="1"/><path id="eeBy2STd0Cl7" d="M108.987,54L54.9824,54L54.9824,0L108.987,54Z" transform="matrix(1 0 0 1 -17 -15)" fill="rgb(225,172,38)" stroke="none" stroke-width="1" stroke-miterlimit="1"/><path id="eeBy2STd0Cl8" d="M56.7518,12.647L97.0384,52.93C97.2281,53.1102,97.3792,53.3271,97.4824,53.5676C97.5857,53.808,97.6389,54.067,97.6389,54.3287C97.6389,54.5904,97.5857,54.8493,97.4824,55.0898C97.3792,55.3302,97.2281,55.5472,97.0384,55.7274L56.7518,96.0104C56.5681,96.1941,56.3501,96.3399,56.1101,96.4393C55.87,96.5388,55.6128,96.59,55.353,96.59C55.0931,96.59,54.8359,96.5388,54.5959,96.4393C54.3558,96.3399,54.1378,96.1941,53.9541,96.0104L13.6676,55.7274C13.4838,55.5437,13.338,55.3257,13.2385,55.0857C13.1391,54.8457,13.0879,54.5885,13.0879,54.3287C13.0879,54.0689,13.1391,53.8116,13.2385,53.5716C13.338,53.3316,13.4838,53.1136,13.6676,52.93L53.9541,12.647C54.1378,12.4632,54.3558,12.3175,54.5959,12.218C54.8359,12.1186,55.0931,12.0674,55.353,12.0674C55.6128,12.0674,55.87,12.1186,56.1101,12.218C56.3501,12.3175,56.5681,12.4632,56.7518,12.647Z" transform="matrix(1 0 0 1 -17 -15)" fill="rgb(255,193,32)" stroke="none" stroke-width="1" stroke-miterlimit="1"/><path id="eeBy2STd0Cl9" d="M66.5321,50.4373L72.2644,44.7055L61.4472,33.8891L55.7149,28.1573L55.7147,28.1572L49.9824,33.889L49.9825,33.8891L39.1652,44.7056L44.8975,50.4373L55.7148,39.6209L66.5321,50.4373ZM29.1797,54.6901L34.912,48.9583L40.6443,54.6901L34.912,60.4219L29.1797,54.6901ZM49.9695,54.7344L55.7018,49.0026L61.4341,54.7344L55.7018,60.4662L49.9695,54.7344ZM76.5175,48.9583L70.7852,54.6901L76.5175,60.4219L82.2498,54.6901L76.5175,48.9583ZM39.165,64.674L44.8973,58.9422L55.715,69.759L66.532,58.943L72.2643,64.6748L55.7146,81.223L49.9823,75.4912L49.9827,75.4907L39.165,64.674Z" transform="matrix(1 0 0 1 -17 -15)" clip-rule="evenodd" fill="rgb(255,255,255)" fill-rule="evenodd" stroke="none" stroke-width="1" stroke-miterlimit="1"/><g id="eeBy2STd0Cl10" mask="url(#eeBy2STd0Cl14)"><g id="eeBy2STd0Cl11_to" transform="translate(20.647773,19.239711)"><g id="eeBy2STd0Cl11" transform="translate(-54.895481,-53.979029)" opacity="0"><rect id="eeBy2STd0Cl12" width="139.027" height="22.2955" rx="0" ry="0" transform="matrix(0.707107 -0.707107 0.707107 0.707107 -14.839858 85.197014)" opacity="0.28" fill="rgb(255,255,255)" stroke="none" stroke-width="1" stroke-miterlimit="1"/><rect id="eeBy2STd0Cl13" width="139.027" height="9.20502" rx="0" ry="0" transform="matrix(0.707107 -0.707107 0.707107 0.707107 -23.441413 75.302716)" opacity="0.28" fill="rgb(255,255,255)" stroke="none" stroke-width="1" stroke-miterlimit="1"/></g></g><mask id="eeBy2STd0Cl14" mask-type="alpha"><path id="eeBy2STd0Cl15" d="M56.7528,12.647L97.0393,52.93C97.2291,53.1102,97.3801,53.3271,97.4834,53.5676C97.5866,53.808,97.6399,54.067,97.6399,54.3287C97.6399,54.5904,97.5866,54.8493,97.4834,55.0898C97.3801,55.3302,97.2291,55.5472,97.0393,55.7274L56.7528,96.0104C56.5691,96.1941,56.351,96.3399,56.111,96.4393C55.871,96.5388,55.6137,96.59,55.3539,96.59C55.0941,96.59,54.8369,96.5388,54.5968,96.4393C54.3568,96.3399,54.1388,96.1941,53.9551,96.0104L13.6685,55.7274C13.4848,55.5437,13.339,55.3257,13.2395,55.0857C13.1401,54.8457,13.0889,54.5885,13.0889,54.3287C13.0889,54.0689,13.1401,53.8116,13.2395,53.5716C13.339,53.3316,13.4848,53.1136,13.6685,52.93L53.9551,12.647C54.1388,12.4632,54.3568,12.3175,54.5968,12.218C54.8369,12.1186,55.0941,12.0674,55.3539,12.0674C55.6137,12.0674,55.871,12.1186,56.111,12.218C56.351,12.3175,56.5691,12.4632,56.7528,12.647Z" transform="matrix(1 0 0 1 -17 -15)" fill="rgb(255,193,32)" stroke="none" stroke-width="1" stroke-miterlimit="1"/></mask></g><g id="eeBy2STd0Cl16" mask="url(#eeBy2STd0Cl19)"><g id="eeBy2STd0Cl17_to" transform="translate(5.247894,49.501867)"><g id="eeBy2STd0Cl17_tr" transform="rotate(-19.346632)"><g id="eeBy2STd0Cl17" transform="translate(-13.971553,-61.867941)" opacity="0"><rect id="eeBy2STd0Cl18" width="23.4016" height="7.85926" rx="0" ry="0" transform="matrix(0.999511 0.031283 -0.031283 0.999511 -8.6714 37.993809)" opacity="0.25" fill="rgb(255,255,255)" stroke="none" stroke-width="1" stroke-miterlimit="1"/></g></g></g><mask id="eeBy2STd0Cl19" mask-type="alpha"><path id="eeBy2STd0Cl20" d="M13.1164,54.0088L0.987387,54.0088L54.9826,108.01L54.9826,96.5643C54.8507,96.5391,54.7215,96.5005,54.5969,96.4489C54.3569,96.3494,54.1388,96.2036,53.9552,96.0199L13.6686,55.7362C13.4848,55.5525,13.3391,55.3345,13.2396,55.0945C13.1401,54.8545,13.0889,54.5972,13.0889,54.3374C13.0889,54.227,13.0982,54.1171,13.1164,54.0088Z" transform="matrix(1 0 0 1 -16.999999 -15)" clip-rule="evenodd" fill="rgb(225,172,38)" fill-rule="evenodd" stroke="none" stroke-width="1" stroke-miterlimit="1"/></mask></g></g><mask id="eeBy2STd0Cl21" mask-type="alpha"><path id="eeBy2STd0Cl22" d="M56.8674,106.119L106.856,56.13C108.032,54.9546,108.027,53.0475,106.846,51.8776L56.8574,2.35163C55.6843,1.18936,53.7924,1.19375,52.6247,2.36147L3.09878,51.8874C1.93106,53.0551,1.92666,54.947,3.08894,56.1201L52.6149,106.109C53.7848,107.29,55.6919,107.294,56.8674,106.119Z" transform="matrix(1 0 0 1 -17 -15)" fill="rgb(196,196,196)" stroke="none" stroke-width="1" stroke-miterlimit="1"/></mask></g><g id="eeBy2STd0Cl23_tr" transform="translate(54.606608,26.958528) rotate(0)"><g id="eeBy2STd0Cl23_ts" transform="scale(0,0)"><path id="eeBy2STd0Cl23" d="M59.9228,24.5848L58.6287,26.6709C58.3179,27.1749,58.1534,27.7553,58.1534,28.3474C58.1534,28.9395,58.3179,29.52,58.6287,30.024L59.9228,32.1147C59.9363,32.1366,59.9419,32.1624,59.9387,32.1879C59.9355,32.2134,59.9237,32.2371,59.9053,32.255C59.8868,32.2729,59.8629,32.284,59.8373,32.2865C59.8117,32.2889,59.786,32.2826,59.7645,32.2685L57.6784,30.9788C57.1735,30.6682,56.5923,30.5038,55.9995,30.5038C55.4067,30.5038,54.8256,30.6682,54.3207,30.9788L52.2346,32.2685C52.2153,32.2748,52.1947,32.2758,52.1749,32.2715C52.155,32.2671,52.1368,32.2574,52.122,32.2435C52.1072,32.2296,52.0964,32.212,52.0907,32.1925C52.085,32.173,52.0847,32.1524,52.0898,32.1327L53.3794,30.0421C53.6902,29.5381,53.8547,28.9576,53.8547,28.3655C53.8547,27.7734,53.6902,27.193,53.3794,26.689L52.0898,24.6029C52.0757,24.5813,52.0694,24.5557,52.0718,24.5301C52.0743,24.5045,52.0853,24.4805,52.1033,24.4621C52.1212,24.4436,52.1449,24.4318,52.1704,24.4286C52.1959,24.4254,52.2217,24.431,52.2437,24.4445L54.3297,25.7342C54.8332,26.0488,55.4149,26.2156,56.0086,26.2156C56.6022,26.2156,57.184,26.0488,57.6874,25.7342L59.7826,24.44C59.8025,24.4338,59.8238,24.4333,59.844,24.4385C59.8642,24.4437,59.8826,24.4544,59.8971,24.4694C59.9116,24.4844,59.9217,24.5031,59.9262,24.5234C59.9308,24.5438,59.9296,24.565,59.9228,24.5848Z" transform="translate(-56.00544,-28.35736)" opacity="0" fill="rgb(255,255,255)" stroke="none" stroke-width="1" stroke-miterlimit="1"/></g></g><g id="eeBy2STd0Cl24_tr" transform="translate(71.046072,63.166531) rotate(0)"><g id="eeBy2STd0Cl24_ts" transform="scale(0,0)"><path id="eeBy2STd0Cl24" d="M76.3623,60.7928L75.0681,62.8789C74.7574,63.3829,74.5928,63.9634,74.5928,64.5555C74.5928,65.1476,74.7574,65.728,75.0681,66.232L76.3623,68.3227C76.3758,68.3446,76.3813,68.3704,76.3782,68.3959C76.375,68.4214,76.3632,68.4451,76.3447,68.463C76.3263,68.4809,76.3023,68.492,76.2767,68.4945C76.2511,68.4969,76.2254,68.4906,76.2039,68.4765L74.1178,67.1868C73.6129,66.8762,73.0318,66.7118,72.439,66.7118C71.8462,66.7118,71.265,66.8762,70.7601,67.1868L68.674,68.4765C68.6548,68.4828,68.6341,68.4838,68.6143,68.4795C68.5945,68.4751,68.5762,68.4654,68.5614,68.4515C68.5466,68.4377,68.5358,68.42,68.5301,68.4005C68.5245,68.3811,68.5242,68.3604,68.5292,68.3408L69.8189,66.2501C70.1296,65.7461,70.2942,65.1656,70.2942,64.5735C70.2942,63.9814,70.1296,63.401,69.8189,62.897L68.5292,60.8109C68.5151,60.7894,68.5088,60.7637,68.5113,60.7381C68.5137,60.7125,68.5248,60.6885,68.5427,60.6701C68.5606,60.6516,68.5843,60.6398,68.6098,60.6366C68.6353,60.6334,68.6612,60.639,68.6831,60.6525L70.7692,61.9422C71.2726,62.2568,71.8543,62.4236,72.448,62.4236C73.0417,62.4236,73.6234,62.2568,74.1269,61.9422L76.222,60.648C76.242,60.6418,76.2632,60.6413,76.2834,60.6465C76.3036,60.6517,76.322,60.6624,76.3365,60.6774C76.3511,60.6924,76.3612,60.7111,76.3657,60.7314C76.3702,60.7518,76.3691,60.773,76.3623,60.7928Z" transform="translate(-72.444904,-64.565363)" opacity="0" fill="rgb(255,255,255)" stroke="none" stroke-width="1" stroke-miterlimit="1"/></g></g><g id="eeBy2STd0Cl25_to" transform="translate(36.731399,26.058816)"><g id="eeBy2STd0Cl25_tr" transform="rotate(0)"><g id="eeBy2STd0Cl25_ts" transform="scale(0,0)"><path id="eeBy2STd0Cl25" d="M76.3623,60.7928L75.0681,62.8789C74.7574,63.3829,74.5928,63.9634,74.5928,64.5555C74.5928,65.1476,74.7574,65.728,75.0681,66.232L76.3623,68.3227C76.3758,68.3446,76.3813,68.3704,76.3782,68.3959C76.375,68.4214,76.3632,68.4451,76.3447,68.463C76.3263,68.4809,76.3023,68.492,76.2767,68.4945C76.2511,68.4969,76.2254,68.4906,76.2039,68.4765L74.1178,67.1868C73.6129,66.8762,73.0318,66.7118,72.439,66.7118C71.8462,66.7118,71.265,66.8762,70.7601,67.1868L68.674,68.4765C68.6548,68.4828,68.6341,68.4838,68.6143,68.4795C68.5945,68.4751,68.5762,68.4654,68.5614,68.4515C68.5466,68.4377,68.5358,68.42,68.5301,68.4005C68.5245,68.3811,68.5242,68.3604,68.5292,68.3408L69.8189,66.2501C70.1296,65.7461,70.2942,65.1656,70.2942,64.5735C70.2942,63.9814,70.1296,63.401,69.8189,62.897L68.5292,60.8109C68.5151,60.7894,68.5088,60.7637,68.5113,60.7381C68.5137,60.7125,68.5248,60.6885,68.5427,60.6701C68.5606,60.6516,68.5843,60.6398,68.6098,60.6366C68.6353,60.6334,68.6612,60.639,68.6831,60.6525L70.7692,61.9422C71.2726,62.2568,71.8543,62.4236,72.448,62.4236C73.0417,62.4236,73.6234,62.2568,74.1269,61.9422L76.222,60.648C76.242,60.6418,76.2632,60.6413,76.2834,60.6465C76.3036,60.6517,76.322,60.6624,76.3365,60.6774C76.3511,60.6924,76.3612,60.7111,76.3657,60.7314C76.3702,60.7518,76.3691,60.773,76.3623,60.7928Z" transform="translate(-72.444904,-64.565363)" opacity="0" fill="rgb(255,255,255)" stroke="none" stroke-width="1" stroke-miterlimit="1"/></g></g></g></svg>