<svg width="107" height="91" id="e978t2ABcpT1" xmlns="http://www.w3.org/2000/svg" xmlns:xlink="http://www.w3.org/1999/xlink" viewBox="0 0 107 91" shape-rendering="geometricPrecision" text-rendering="geometricPrecision"><style><![CDATA[#e978t2ABcpT11_to {animation: e978t2ABcpT11_to__to 1111.111111111111ms linear infinite normal forwards}@keyframes e978t2ABcpT11_to__to { 0% {transform: translate(37.654028px,0.804671px)} 25% {transform: translate(37.654028px,0.804671px)} 50% {transform: translate(10.416px,31.675262px)} 85% {transform: translate(59.300665px,88.787315px)} 100% {transform: translate(59.300665px,88.787315px)}} #e978t2ABcpT11_tr {animation: e978t2ABcpT11_tr__tr 1111.111111111111ms linear infinite normal forwards}@keyframes e978t2ABcpT11_tr__tr { 0% {transform: rotate(0deg)} 25% {transform: rotate(0deg)} 50% {transform: rotate(-31.024089deg)} 65% {transform: rotate(-68.265666deg)} 85% {transform: rotate(-70deg)} 100% {transform: rotate(-70deg)}} #e978t2ABcpT11 {animation: e978t2ABcpT11_c_o 1111.111111111111ms linear infinite normal forwards}@keyframes e978t2ABcpT11_c_o { 0% {opacity: 0} 25% {opacity: 0} 40% {opacity: 1} 70% {opacity: 1} 85% {opacity: 0} 100% {opacity: 0}} #e978t2ABcpT19_to {animation: e978t2ABcpT19_to__to 1111.111111111111ms linear infinite normal forwards}@keyframes e978t2ABcpT19_to__to { 0% {transform: translate(0.023419px,0.828994px)} 15% {transform: translate(0.023419px,0.828994px)} 90% {transform: translate(81.127877px,81.933457px)} 100% {transform: translate(81.127877px,81.933457px)}} #e978t2ABcpT19 {animation: e978t2ABcpT19_c_o 1111.111111111111ms linear infinite normal forwards}@keyframes e978t2ABcpT19_c_o { 0% {opacity: 0} 15% {opacity: 0} 30% {opacity: 1} 70% {opacity: 1} 90% {opacity: 0} 100% {opacity: 0}} #e978t2ABcpT24_tr {animation: e978t2ABcpT24_tr__tr 1111.111111111111ms linear infinite normal forwards}@keyframes e978t2ABcpT24_tr__tr { 0% {transform: translate(37.599351px,22.683914px) rotate(0deg)} 64% {transform: translate(37.599351px,22.683914px) rotate(0deg)} 89% {transform: translate(37.599351px,22.683914px) rotate(170deg)} 100% {transform: translate(37.599351px,22.683914px) rotate(170deg)}} #e978t2ABcpT24_ts {animation: e978t2ABcpT24_ts__ts 1111.111111111111ms linear infinite normal forwards}@keyframes e978t2ABcpT24_ts__ts { 0% {transform: scale(0,0)} 64% {transform: scale(0,0)} 75% {transform: scale(1,1)} 89% {transform: scale(0,0)} 100% {transform: scale(0,0)}} #e978t2ABcpT24 {animation: e978t2ABcpT24_c_o 1111.111111111111ms linear infinite normal forwards}@keyframes e978t2ABcpT24_c_o { 0% {opacity: 0} 64% {opacity: 0} 74% {opacity: 1} 79% {opacity: 1} 89% {opacity: 0} 100% {opacity: 0}} #e978t2ABcpT25_tr {animation: e978t2ABcpT25_tr__tr 1111.111111111111ms linear infinite normal forwards}@keyframes e978t2ABcpT25_tr__tr { 0% {transform: translate(72.734135px,39.984716px) rotate(0deg)} 75% {transform: translate(72.734135px,39.984716px) rotate(0deg)} 100% {transform: translate(72.734135px,39.984716px) rotate(170deg)}} #e978t2ABcpT25_ts {animation: e978t2ABcpT25_ts__ts 1111.111111111111ms linear infinite normal forwards}@keyframes e978t2ABcpT25_ts__ts { 0% {transform: scale(0,0)} 75% {transform: scale(0,0)} 85% {transform: scale(1,1)} 90% {transform: scale(1,1)} 100% {transform: scale(0,0)}} #e978t2ABcpT25 {animation: e978t2ABcpT25_c_o 1111.111111111111ms linear infinite normal forwards}@keyframes e978t2ABcpT25_c_o { 0% {opacity: 0} 75% {opacity: 0} 85% {opacity: 1} 90% {opacity: 1} 100% {opacity: 0}} #e978t2ABcpT26_to {animation: e978t2ABcpT26_to__to 1111.111111111111ms linear infinite normal forwards}@keyframes e978t2ABcpT26_to__to { 0% {transform: translate(29.34127px,9.561329px)} 10% {transform: translate(29.34127px,9.561329px)} 30% {transform: translate(9.985359px,33.292184px)} 90% {transform: translate(53.841699px,81.125337px)} 100% {transform: translate(53.841699px,81.125337px)}} #e978t2ABcpT26_tr {animation: e978t2ABcpT26_tr__tr 1111.111111111111ms linear infinite normal forwards}@keyframes e978t2ABcpT26_tr__tr { 0% {transform: rotate(0deg)} 10% {transform: rotate(0deg)} 90% {transform: rotate(360deg)} 100% {transform: rotate(360deg)}} #e978t2ABcpT26_ts {animation: e978t2ABcpT26_ts__ts 1111.111111111111ms linear infinite normal forwards}@keyframes e978t2ABcpT26_ts__ts { 0% {transform: scale(0,0)} 10% {transform: scale(0,0)} 30% {transform: scale(1,1)} 70% {transform: scale(1,1)} 90% {transform: scale(0,0)} 100% {transform: scale(0,0)}} #e978t2ABcpT26 {animation: e978t2ABcpT26_c_o 1111.111111111111ms linear infinite normal forwards}@keyframes e978t2ABcpT26_c_o { 0% {opacity: 0} 10% {opacity: 0} 30% {opacity: 1} 70% {opacity: 1} 90% {opacity: 0} 100% {opacity: 0}}]]></style><g id="e978t2ABcpT2" transform="matrix(1 0 0 1 -0.709768 -0.07004)" mask="url(#e978t2ABcpT15)"><g id="e978t2ABcpT3"><path id="e978t2ABcpT4" d="M53.9952,72.7737L53.9952,92.173L0,32.6474L0.114619,32.5137L19.7432,32.5137L53.9952,72.7737Z" fill="rgb(30,198,142)" stroke="none" stroke-width="1" stroke-miterlimit="1"/><path id="e978t2ABcpT5" d="M79.9474,0L74.0254,12.9233L33.985,12.9233L28.0439,0L79.9474,0Z" fill="rgb(99,252,201)" stroke="none" stroke-width="1" stroke-miterlimit="1"/><path id="e978t2ABcpT6" d="M108,32.6474L90.7502,32.5137L74.0254,12.9233L79.9474,0L108,32.6474Z" fill="rgb(30,198,142)" stroke="none" stroke-width="1" stroke-miterlimit="1"/><path id="e978t2ABcpT7" d="M108,32.6474L53.9951,92.173L53.9951,72.7737L90.7497,32.5137L108,32.6474Z" fill="rgb(45,132,95)" stroke="none" stroke-width="1" stroke-miterlimit="1"/><path id="e978t2ABcpT8" d="M33.9852,12.9233L19.7438,32.5137L0.115234,32.5137L28.0441,0L33.9852,12.9233Z" fill="rgb(161,255,219)" stroke="none" stroke-width="1" stroke-miterlimit="1"/><path id="e978t2ABcpT9" d="M96.2432,33.975L54.9898,79.4502C54.8106,79.6534,54.5901,79.8162,54.3431,79.9277C54.096,80.0393,53.8281,80.0969,53.5571,80.0969C53.2861,80.0969,53.0181,80.0393,52.7711,79.9277C52.5241,79.8162,52.3036,79.6534,52.1243,79.4502L10.8996,33.975C10.5881,33.6251,10.416,33.173,10.416,32.7046C10.416,32.2362,10.5881,31.7841,10.8996,31.4343L30.595,8.51041C30.7744,8.30072,30.997,8.13238,31.2477,8.01696C31.4983,7.90154,31.7709,7.84178,32.0469,7.8418L75.1342,7.8418C75.4101,7.84178,75.6827,7.90154,75.9334,8.01696C76.184,8.13238,76.4066,8.30072,76.586,8.51041L96.2814,31.4343C96.5877,31.7888,96.753,32.2435,96.746,32.7119C96.7389,33.1803,96.56,33.6299,96.2432,33.975Z" fill="rgb(34,220,162)" stroke="none" stroke-width="1" stroke-miterlimit="1"/><g id="e978t2ABcpT10" mask="url(#e978t2ABcpT13)"><g id="e978t2ABcpT11_to" transform="translate(37.654028,0.804671)"><g id="e978t2ABcpT11_tr" transform="rotate(0)"><g id="e978t2ABcpT11" transform="translate(-21.695664,-12.6214)" opacity="0"><path id="e978t2ABcpT12" d="M5.00781,-1.6582L42.3424,20.1117L38.3835,26.901L1.04893,5.13114L5.00781,-1.6582Z" opacity="0.45" fill="rgb(255,255,255)" stroke="none" stroke-width="1" stroke-miterlimit="1"/></g></g></g><mask id="e978t2ABcpT13" mask-type="alpha"><path id="e978t2ABcpT14" d="M31.6897,7.91934C31.5461,7.9486,31.4059,7.99437,31.2721,8.05602C31.0214,8.17144,30.7988,8.33979,30.6194,8.54947L10.924,31.4733C10.6125,31.8232,10.4404,32.2753,10.4404,32.7437C10.4404,33.2121,10.6125,33.6642,10.924,34.014L52.1488,79.4892C52.328,79.6925,52.5485,79.8553,52.7955,79.9668C53.0425,80.0783,53.3105,80.136,53.5815,80.136C53.7227,80.136,53.8631,80.1203,54.0001,80.0896L54.0001,92.173L0.004883,32.6474L0.119502,32.5137L28.049,0L31.6897,7.91934Z" transform="matrix(1 0 0 1 0.000001 0)" clip-rule="evenodd" fill="rgb(161,255,219)" fill-rule="evenodd" stroke="none" stroke-width="1" stroke-miterlimit="1"/></mask></g></g><mask id="e978t2ABcpT15" mask-type="alpha"><path id="e978t2ABcpT16" d="M1.73154,30.4902L27.1024,1.04187C27.6723,0.380385,28.5021,0,29.3752,0L78.6248,0C79.4979,0,80.3277,0.380384,80.8976,1.04187L106.268,30.4902C107.257,31.6379,107.235,33.3427,106.217,34.4645L56.2215,89.5522C55.031,90.864,52.969,90.864,51.7785,89.5522L1.78287,34.4645C0.76477,33.3427,0.742754,31.6379,1.73154,30.4902Z" transform="matrix(1 0 0 1 0 0.000001)" fill="rgb(196,196,196)" stroke="none" stroke-width="1" stroke-miterlimit="1"/></mask></g><path id="e978t2ABcpT17" d="M57.9815,42.9032C57.7478,42.9194,56.5416,42.9894,53.8574,42.9894C51.7111,42.9894,50.206,42.9301,49.6735,42.9032L49.6735,42.9086C41.4199,42.5475,35.2636,41.1246,35.2636,39.4161C35.2636,37.713,41.4253,36.2847,49.6735,35.9236L49.6735,41.4911C50.2114,41.5288,51.76,41.6205,53.8954,41.6205C56.4601,41.6205,57.7424,41.5127,57.9815,41.4911L57.9815,35.929C66.2188,36.2955,72.3588,37.7184,72.3588,39.4215C72.3588,41.1246,66.2134,42.5475,57.9815,42.914L57.9815,42.9032ZM57.9815,35.3523L57.9815,30.3723L69.4735,30.3723L69.4735,22.7783L38.1869,22.7783L38.1869,30.3723L49.6789,30.3723L49.6789,35.3523C40.3386,35.7781,33.3184,37.6106,33.3184,39.8095C33.3184,42.0085,40.344,43.841,49.6789,44.2722L49.6789,60.2362L57.9869,60.2362L57.9869,44.2722C67.3109,43.8464,74.3203,42.0139,74.3203,39.8149C74.3203,37.6214,67.3109,35.7835,57.9869,35.3577" transform="matrix(1 0 0 1 -0.617988 -0.094346)" fill="rgb(255,255,255)" stroke="none" stroke-width="1" stroke-miterlimit="1"/><g id="e978t2ABcpT18" transform="matrix(1 0 0 1 -0.617988 -0.094346)" mask="url(#e978t2ABcpT22)"><g id="e978t2ABcpT19_to" transform="translate(0.023419,0.828994)"><g id="e978t2ABcpT19" transform="translate(-53.908185,-45.979185)" opacity="0"><rect id="e978t2ABcpT20" width="139.027" height="22.2955" rx="0" ry="0" transform="matrix(0.707107 -0.707107 0.707107 0.707107 1.172866 92.197306)" opacity="0.28" fill="rgb(255,255,255)" stroke="none" stroke-width="1" stroke-miterlimit="1"/><rect id="e978t2ABcpT21" width="139.027" height="9.20502" rx="0" ry="0" transform="matrix(0.707107 -0.707107 0.707107 0.707107 -7.428694 82.302688)" opacity="0.28" fill="rgb(255,255,255)" stroke="none" stroke-width="1" stroke-miterlimit="1"/></g></g><mask id="e978t2ABcpT22" mask-type="alpha"><path id="e978t2ABcpT23" d="M96.251,34.014L54.9976,79.4892C54.8184,79.6925,54.5979,79.8553,54.3509,79.9668C54.1039,80.0783,53.8359,80.136,53.5649,80.136C53.2939,80.136,53.0259,80.0783,52.7789,79.9668C52.5319,79.8553,52.3114,79.6925,52.1322,79.4892L10.9074,34.014C10.5959,33.6642,10.4238,33.2121,10.4238,32.7437C10.4238,32.2753,10.5959,31.8232,10.9074,31.4733L30.6028,8.54947C30.7822,8.33979,31.0048,8.17144,31.2555,8.05602C31.5061,7.9406,31.7788,7.88084,32.0547,7.88086L75.142,7.88086C75.4179,7.88084,75.6906,7.9406,75.9412,8.05602C76.1918,8.17144,76.4145,8.33979,76.5938,8.54947L96.2892,31.4733C96.5955,31.8278,96.7608,32.2825,96.7538,32.751C96.7467,33.2194,96.5678,33.6689,96.251,34.014Z" transform="matrix(1 0 0 1 0.000001 0)" fill="rgb(34,220,162)" stroke="none" stroke-width="1" stroke-miterlimit="1"/></mask></g><g id="e978t2ABcpT24_tr" transform="translate(37.599351,22.683914) rotate(0)"><g id="e978t2ABcpT24_ts" transform="scale(0,0)"><path id="e978t2ABcpT24" d="M42.1348,19.0057L40.8406,21.0918C40.5298,21.5958,40.3653,22.1762,40.3653,22.7683C40.3653,23.3604,40.5298,23.9409,40.8406,24.4449L42.1348,26.5356C42.1482,26.5575,42.1538,26.5833,42.1506,26.6088C42.1474,26.6343,42.1356,26.658,42.1172,26.6759C42.0988,26.6938,42.0748,26.7049,42.0492,26.7074C42.0236,26.7098,41.9979,26.7035,41.9764,26.6894L39.8903,25.3997C39.3854,25.0891,38.8042,24.9246,38.2115,24.9246C37.6187,24.9246,37.0375,25.0891,36.5326,25.3997L34.4465,26.6894C34.4272,26.6957,34.4066,26.6967,34.3868,26.6923C34.3669,26.688,34.3487,26.6783,34.3339,26.6644C34.3191,26.6505,34.3083,26.6329,34.3026,26.6134C34.297,26.5939,34.2966,26.5733,34.3017,26.5536L35.5914,24.463C35.9021,23.959,36.0666,23.3785,36.0666,22.7864C36.0666,22.1943,35.9021,21.6139,35.5914,21.1099L34.3017,19.0238C34.2876,19.0022,34.2813,18.9766,34.2837,18.951C34.2862,18.9254,34.2973,18.9014,34.3152,18.883C34.3331,18.8645,34.3568,18.8527,34.3823,18.8495C34.4078,18.8463,34.4337,18.8519,34.4556,18.8654L36.5417,20.155C37.0451,20.4697,37.6268,20.6365,38.2205,20.6365C38.8142,20.6365,39.3959,20.4697,39.8993,20.155L41.9945,18.8609C42.0144,18.8547,42.0357,18.8542,42.0559,18.8594C42.0761,18.8646,42.0945,18.8753,42.109,18.8903C42.1235,18.9053,42.1336,18.924,42.1382,18.9443C42.1427,18.9647,42.1415,18.9859,42.1348,19.0057Z" transform="translate(-38.217339,-22.77826)" opacity="0" fill="rgb(255,255,255)" stroke="none" stroke-width="1" stroke-miterlimit="1"/></g></g><g id="e978t2ABcpT25_tr" transform="translate(72.734135,39.984716) rotate(0)"><g id="e978t2ABcpT25_ts" transform="scale(0,0)"><path id="e978t2ABcpT25" d="M77.2695,36.3064L75.9753,38.3925C75.6646,38.8966,75.5001,39.477,75.5001,40.0691C75.5001,40.6612,75.6646,41.2417,75.9753,41.7457L77.2695,43.8363C77.283,43.8582,77.2886,43.8841,77.2854,43.9096C77.2822,43.9351,77.2704,43.9588,77.252,43.9767C77.2335,43.9946,77.2095,44.0057,77.1839,44.0082C77.1583,44.0106,77.1327,44.0043,77.1112,43.9902L75.025,42.7005C74.5202,42.3899,73.939,42.2254,73.3462,42.2254C72.7534,42.2254,72.1723,42.3899,71.6674,42.7005L69.5813,43.9902C69.562,43.9965,69.5414,43.9975,69.5215,43.9931C69.5017,43.9887,69.4834,43.9791,69.4686,43.9652C69.4538,43.9513,69.443,43.9337,69.4374,43.9142C69.4317,43.8947,69.4314,43.8741,69.4365,43.8544L70.7261,41.7638C71.0369,41.2598,71.2014,40.6793,71.2014,40.0872C71.2014,39.4951,71.0369,38.9147,70.7261,38.4106L69.4365,36.3245C69.4224,36.303,69.416,36.2774,69.4185,36.2518C69.4209,36.2262,69.432,36.2022,69.4499,36.1837C69.4679,36.1653,69.4915,36.1535,69.5171,36.1503C69.5426,36.1471,69.5684,36.1527,69.5903,36.1662L71.6764,37.4558C72.1799,37.7705,72.7616,37.9373,73.3552,37.9373C73.9489,37.9373,74.5307,37.7705,75.0341,37.4558L77.1292,36.1616C77.1492,36.1555,77.1704,36.155,77.1906,36.1602C77.2109,36.1654,77.2292,36.1761,77.2438,36.1911C77.2583,36.206,77.2684,36.2247,77.2729,36.2451C77.2775,36.2655,77.2763,36.2867,77.2695,36.3064Z" transform="translate(-73.352123,-40.079062)" opacity="0" fill="rgb(255,255,255)" stroke="none" stroke-width="1" stroke-miterlimit="1"/></g></g><g id="e978t2ABcpT26_to" transform="translate(29.34127,9.561329)"><g id="e978t2ABcpT26_tr" transform="rotate(0)"><g id="e978t2ABcpT26_ts" transform="scale(0,0)"><path id="e978t2ABcpT26" d="M77.2695,36.3064L75.9753,38.3925C75.6646,38.8966,75.5001,39.477,75.5001,40.0691C75.5001,40.6612,75.6646,41.2417,75.9753,41.7457L77.2695,43.8363C77.283,43.8582,77.2886,43.8841,77.2854,43.9096C77.2822,43.9351,77.2704,43.9588,77.252,43.9767C77.2335,43.9946,77.2095,44.0057,77.1839,44.0082C77.1583,44.0106,77.1327,44.0043,77.1112,43.9902L75.025,42.7005C74.5202,42.3899,73.939,42.2254,73.3462,42.2254C72.7534,42.2254,72.1723,42.3899,71.6674,42.7005L69.5813,43.9902C69.562,43.9965,69.5414,43.9975,69.5215,43.9931C69.5017,43.9887,69.4834,43.9791,69.4686,43.9652C69.4538,43.9513,69.443,43.9337,69.4374,43.9142C69.4317,43.8947,69.4314,43.8741,69.4365,43.8544L70.7261,41.7638C71.0369,41.2598,71.2014,40.6793,71.2014,40.0872C71.2014,39.4951,71.0369,38.9147,70.7261,38.4106L69.4365,36.3245C69.4224,36.303,69.416,36.2774,69.4185,36.2518C69.4209,36.2262,69.432,36.2022,69.4499,36.1837C69.4679,36.1653,69.4915,36.1535,69.5171,36.1503C69.5426,36.1471,69.5684,36.1527,69.5903,36.1662L71.6764,37.4558C72.1799,37.7705,72.7616,37.9373,73.3552,37.9373C73.9489,37.9373,74.5307,37.7705,75.0341,37.4558L77.1292,36.1616C77.1492,36.1555,77.1704,36.155,77.1906,36.1602C77.2109,36.1654,77.2292,36.1761,77.2438,36.1911C77.2583,36.206,77.2684,36.2247,77.2729,36.2451C77.2775,36.2655,77.2763,36.2867,77.2695,36.3064Z" transform="translate(-73.352123,-40.079062)" opacity="0" fill="rgb(255,255,255)" stroke="none" stroke-width="1" stroke-miterlimit="1"/></g></g></g></svg>