<svg width="84" height="109.5" id="e0sdGuv3BNY1" xmlns="http://www.w3.org/2000/svg" xmlns:xlink="http://www.w3.org/1999/xlink" viewBox="0 0 84 109.5" shape-rendering="geometricPrecision" text-rendering="geometricPrecision"><style><![CDATA[#e0sdGuv3BNY6_to {animation: e0sdGuv3BNY6_to__to 1111.111111111111ms linear infinite normal forwards}@keyframes e0sdGuv3BNY6_to__to { 0% {transform: translate(9.653345px,0.000017px)} 5% {transform: translate(9.653345px,0.000017px)} 85% {transform: translate(88.767461px,102.83634px)} 100% {transform: translate(88.767461px,102.83634px)}} #e0sdGuv3BNY6 {animation: e0sdGuv3BNY6_c_o 1111.111111111111ms linear infinite normal forwards}@keyframes e0sdGuv3BNY6_c_o { 0% {opacity: 0} 5% {opacity: 0} 20% {opacity: 1} 60% {opacity: 1} 85% {opacity: 0} 100% {opacity: 0}} #e0sdGuv3BNY12_to {animation: e0sdGuv3BNY12_to__to 1111.111111111111ms linear infinite normal forwards}@keyframes e0sdGuv3BNY12_to__to { 0% {offset-distance: 0%} 20% {offset-distance: 0%} 35% {offset-distance: 33.333333%} 55% {offset-distance: 66.666667%} 80% {offset-distance: 100%} 100% {offset-distance: 100%}} #e0sdGuv3BNY12_tr {animation: e0sdGuv3BNY12_tr__tr 1111.111111111111ms linear infinite normal forwards}@keyframes e0sdGuv3BNY12_tr__tr { 0% {transform: rotate(0deg)} 20% {transform: rotate(0deg)} 65% {transform: rotate(-117.769899deg)} 80% {transform: rotate(-149.888962deg)} 100% {transform: rotate(-149.888962deg)}} #e0sdGuv3BNY12 {animation: e0sdGuv3BNY12_c_o 1111.111111111111ms linear infinite normal forwards}@keyframes e0sdGuv3BNY12_c_o { 0% {opacity: 0} 20% {opacity: 0} 35% {opacity: 1} 65% {opacity: 1} 80% {opacity: 0} 100% {opacity: 0}} #e0sdGuv3BNY16_tr {animation: e0sdGuv3BNY16_tr__tr 1111.111111111111ms linear infinite normal forwards}@keyframes e0sdGuv3BNY16_tr__tr { 0% {transform: translate(26.697912px,30.264561px) rotate(0deg)} 75% {transform: translate(26.697912px,30.264561px) rotate(0deg)} 100% {transform: translate(26.697912px,30.264561px) rotate(180deg)}} #e0sdGuv3BNY16_ts {animation: e0sdGuv3BNY16_ts__ts 1111.111111111111ms linear infinite normal forwards}@keyframes e0sdGuv3BNY16_ts__ts { 0% {transform: scale(0,0)} 75% {transform: scale(0,0)} 85% {transform: scale(1,1)} 90% {transform: scale(1,1)} 100% {transform: scale(0,0)}} #e0sdGuv3BNY16 {animation: e0sdGuv3BNY16_c_o 1111.111111111111ms linear infinite normal forwards}@keyframes e0sdGuv3BNY16_c_o { 0% {opacity: 0} 75% {opacity: 0} 90% {opacity: 1} 100% {opacity: 0}} #e0sdGuv3BNY17_to {animation: e0sdGuv3BNY17_to__to 1111.111111111111ms linear infinite normal forwards}@keyframes e0sdGuv3BNY17_to__to { 0% {offset-distance: 0%} 10% {offset-distance: 0%} 25% {offset-distance: 25%} 50% {offset-distance: 50%} 75% {offset-distance: 75%} 85% {offset-distance: 100%} 100% {offset-distance: 100%}} #e0sdGuv3BNY17_tr {animation: e0sdGuv3BNY17_tr__tr 1111.111111111111ms linear infinite normal forwards}@keyframes e0sdGuv3BNY17_tr__tr { 0% {transform: rotate(0deg)} 10% {transform: rotate(0deg)} 85% {transform: rotate(220deg)} 100% {transform: rotate(220deg)}} #e0sdGuv3BNY17_ts {animation: e0sdGuv3BNY17_ts__ts 1111.111111111111ms linear infinite normal forwards}@keyframes e0sdGuv3BNY17_ts__ts { 0% {transform: scale(0,0)} 10% {transform: scale(0,0)} 35% {transform: scale(1,1)} 65% {transform: scale(1,1)} 85% {transform: scale(0,0)} 100% {transform: scale(0,0)}} #e0sdGuv3BNY17 {animation: e0sdGuv3BNY17_c_o 1111.111111111111ms linear infinite normal forwards}@keyframes e0sdGuv3BNY17_c_o { 0% {opacity: 0} 10% {opacity: 0} 20% {opacity: 1} 35% {opacity: 1} 65% {opacity: 1} 85% {opacity: 0} 100% {opacity: 0}}]]></style><defs><linearGradient id="e0sdGuv3BNY4-fill" x1="13.4247" y1="13.848" x2="71.7247" y2="98.198" spreadMethod="pad" gradientUnits="userSpaceOnUse"><stop id="e0sdGuv3BNY4-fill-0" offset="8%" stop-color="rgb(234,170,110)"/><stop id="e0sdGuv3BNY4-fill-1" offset="91%" stop-color="rgb(132,78,27)"/></linearGradient><linearGradient id="e0sdGuv3BNY15-fill" x1="13.4247" y1="13.848" x2="71.7247" y2="98.198" spreadMethod="pad" gradientUnits="userSpaceOnUse"><stop id="e0sdGuv3BNY15-fill-0" offset="8%" stop-color="rgb(234,170,110)"/><stop id="e0sdGuv3BNY15-fill-1" offset="91%" stop-color="rgb(132,78,27)"/></linearGradient></defs><path id="e0sdGuv3BNY2" d="M75.8255,42.818C75.8255,24.1398,60.6838,8.99805,42.0055,8.99805C23.3273,8.99805,8.18555,24.1398,8.18555,42.818L8.18555,67.548C8.18555,86.2263,23.3273,101.368,42.0055,101.368C60.6838,101.368,75.8255,86.2263,75.8255,67.548L75.8255,42.818Z" transform="matrix(1 0 0 1 0.093184 -0.853564)" fill="rgb(178,123,72)" stroke="none" stroke-width="1" stroke-miterlimit="1"/><path id="e0sdGuv3BNY3" d="M40.2726,31.1199L26.3593,31.1199L26.3593,52.5449L20.6455,52.5449L20.6455,57.7931L26.3601,57.7931L26.3601,79.2162L42.5712,79.2162C42.5712,79.2162,65.3647,81.1157,65.3647,55.5703C65.3647,30.4411,43.5639,31.1199,40.2726,31.1199ZM42.1995,70.3258L35.4905,70.3258L35.4905,57.7927L45.5531,57.7927L45.5531,52.5446L35.4905,52.5446L35.4905,40.0104L41.8862,40.0104C44.2783,40.0104,56.313,40.9676,56.3323,55.7444C56.3516,70.5212,43.9234,70.3262,42.1995,70.3262L42.1995,70.3258Z" transform="matrix(1 0 0 1 0.098709 -0.853564)" fill="rgb(255,255,255)" stroke="none" stroke-width="1" stroke-miterlimit="1"/><path id="e0sdGuv3BNY4" d="M42.0447,8.99805C50.9983,9.03498,59.574,12.6116,65.9005,18.9475C72.2271,25.2834,75.791,33.8644,75.8147,42.818L75.8147,67.5581C75.791,76.5117,72.2271,85.0927,65.9005,91.4286C59.574,97.7645,50.9983,101.341,42.0447,101.378C33.0762,101.362,24.4791,97.7952,18.1337,91.4573C11.7883,85.1194,8.21111,76.5265,8.18469,67.5581L8.18469,42.818C8.21111,33.8496,11.7883,25.2567,18.1337,18.9188C24.4791,12.5809,33.0762,9.01387,42.0447,8.99805ZM42.0447,0.998047C30.9505,1.00069,20.3108,5.40629,12.4623,13.2473C4.6137,21.0884,0.197936,31.7238,0.184688,42.818L0.184688,67.5581C0.098925,73.1037,1.11713,78.611,3.18004,83.7594C5.24295,88.9078,8.30934,93.5944,12.2007,97.5464C16.0921,101.498,20.7308,104.637,25.8466,106.779C30.9625,108.921,36.4534,110.025,41.9997,110.025C47.546,110.025,53.0369,108.921,58.1528,106.779C63.2686,104.637,67.9073,101.498,71.7986,97.5464C75.69,93.5944,78.7564,88.9078,80.8193,83.7594C82.8822,78.611,83.9004,73.1037,83.8147,67.5581L83.8147,42.818C83.8041,31.7386,79.4016,21.1152,71.5719,13.2762C63.7422,5.43712,53.1241,1.02186,42.0447,0.998047Z" transform="matrix(1 0 0 1 0.098709 -0.853564)" fill="url(#e0sdGuv3BNY4-fill)" stroke="none" stroke-width="1" stroke-miterlimit="1"/><g id="e0sdGuv3BNY5" transform="matrix(1 0 0 1 0.098709 -0.853564)" mask="url(#e0sdGuv3BNY9)"><g id="e0sdGuv3BNY6_to" transform="translate(9.653345,0.000017)"><g id="e0sdGuv3BNY6" transform="translate(-41.908215,-55.97708)" opacity="0"><rect id="e0sdGuv3BNY7" width="139.027" height="22.2955" rx="0" ry="0" transform="matrix(0.707107 -0.707107 0.707107 0.707107 -10.827138 102.194993)" opacity="0.23" fill="rgb(255,255,255)" stroke="none" stroke-width="1" stroke-miterlimit="1"/><rect id="e0sdGuv3BNY8" width="139.027" height="9.20502" rx="0" ry="0" transform="matrix(0.707107 -0.707107 0.707107 0.707107 -19.428744 92.300787)" opacity="0.23" fill="rgb(255,255,255)" stroke="none" stroke-width="1" stroke-miterlimit="1"/></g></g><mask id="e0sdGuv3BNY9" mask-type="alpha"><path id="e0sdGuv3BNY10" d="M75.8255,42.818C75.8255,24.1398,60.6838,8.99805,42.0055,8.99805C23.3273,8.99805,8.18555,24.1398,8.18555,42.818L8.18555,67.548C8.18555,86.2263,23.3273,101.368,42.0055,101.368C60.6838,101.368,75.8255,86.2263,75.8255,67.548L75.8255,42.818Z" fill="rgb(178,123,72)" stroke="none" stroke-width="1" stroke-miterlimit="1"/></mask></g><g id="e0sdGuv3BNY11" transform="matrix(1 0 0 1 0.098709 -0.853564)" mask="url(#e0sdGuv3BNY14)"><g id="e0sdGuv3BNY12_to" style="offset-path:path('M15.388452,18.514689L4.519354,39.123004C4.813837,36.663032,2.760636,72.538804,4.27164,68.286471C9.722284,103.040369,36.440634,106.225582,40.627645,104.736357');offset-rotate:0deg"><g id="e0sdGuv3BNY12_tr" transform="rotate(0)"><g id="e0sdGuv3BNY12" transform="translate(-15.388452,-18.514689)" opacity="0"><rect id="e0sdGuv3BNY13" width="23.4016" height="7.85926" rx="0" ry="0" transform="matrix(0.722382 0.691494 -0.691494 0.722382 9.65332 7.584963)" opacity="0.25" fill="rgb(255,255,255)" stroke="none" stroke-width="1" stroke-miterlimit="1"/></g></g></g><mask id="e0sdGuv3BNY14" mask-type="alpha"><path id="e0sdGuv3BNY15" d="M42.0447,8.99805C50.9983,9.03498,59.574,12.6116,65.9005,18.9475C72.2271,25.2834,75.791,33.8644,75.8147,42.818L75.8147,67.5581C75.791,76.5117,72.2271,85.0927,65.9005,91.4286C59.574,97.7645,50.9983,101.341,42.0447,101.378C33.0762,101.362,24.4791,97.7952,18.1337,91.4573C11.7883,85.1194,8.21111,76.5265,8.18469,67.5581L8.18469,42.818C8.21111,33.8496,11.7883,25.2567,18.1337,18.9188C24.4791,12.5809,33.0762,9.01387,42.0447,8.99805ZM42.0447,0.998047C30.9505,1.00069,20.3108,5.40629,12.4623,13.2473C4.6137,21.0884,0.197936,31.7238,0.184688,42.818L0.184688,67.5581C0.098925,73.1037,1.11713,78.611,3.18004,83.7594C5.24295,88.9078,8.30934,93.5944,12.2007,97.5464C16.0921,101.498,20.7308,104.637,25.8466,106.779C30.9625,108.921,36.4534,110.025,41.9997,110.025C47.546,110.025,53.0369,108.921,58.1528,106.779C63.2686,104.637,67.9073,101.498,71.7986,97.5464C75.69,93.5944,78.7564,88.9078,80.8193,83.7594C82.8822,78.611,83.9004,73.1037,83.8147,67.5581L83.8147,42.818C83.8041,31.7386,79.4016,21.1152,71.5719,13.2762C63.7422,5.43712,53.1241,1.02186,42.0447,0.998047Z" transform="matrix(1 0 0 1 0 0.000001)" fill="url(#e0sdGuv3BNY15-fill)" stroke="none" stroke-width="1" stroke-miterlimit="1"/></mask></g><g id="e0sdGuv3BNY16_tr" transform="translate(26.697912,30.264561) rotate(0)"><g id="e0sdGuv3BNY16_ts" transform="scale(0,0)"><path id="e0sdGuv3BNY16" d="M30.5166,27.3455L29.2224,29.4316C28.9117,29.9356,28.7471,30.5161,28.7471,31.1082C28.7471,31.7003,28.9117,32.2808,29.2224,32.7848L30.5166,34.8754C30.5301,34.8973,30.5356,34.9231,30.5325,34.9486C30.5293,34.9742,30.5175,34.9978,30.499,35.0158C30.4806,35.0337,30.4566,35.0448,30.431,35.0472C30.4054,35.0497,30.3797,35.0433,30.3582,35.0292L28.2721,33.7396C27.7672,33.4289,27.1861,33.2645,26.5933,33.2645C26.0005,33.2645,25.4193,33.4289,24.9144,33.7396L22.8283,35.0292C22.8091,35.0356,22.7884,35.0366,22.7686,35.0322C22.7488,35.0278,22.7305,35.0182,22.7157,35.0043C22.7009,34.9904,22.6901,34.9728,22.6844,34.9533C22.6788,34.9338,22.6785,34.9131,22.6835,34.8935L23.9732,32.8029C24.2839,32.2988,24.4485,31.7184,24.4485,31.1263C24.4485,30.5342,24.2839,29.9537,23.9732,29.4497L22.6835,27.3636C22.6694,27.3421,22.6631,27.3164,22.6656,27.2908C22.668,27.2652,22.6791,27.2412,22.697,27.2228C22.7149,27.2044,22.7386,27.1925,22.7641,27.1894C22.7896,27.1862,22.8155,27.1918,22.8374,27.2052L24.9235,28.4949C25.4269,28.8095,26.0086,28.9764,26.6023,28.9764C27.196,28.9764,27.7777,28.8095,28.2812,28.4949L30.3763,27.2007C30.3963,27.1946,30.4175,27.1941,30.4377,27.1993C30.4579,27.2045,30.4763,27.2151,30.4908,27.2301C30.5053,27.2451,30.5154,27.2638,30.52,27.2842C30.5245,27.3045,30.5234,27.3258,30.5166,27.3455Z" transform="translate(-26.599203,-31.118125)" opacity="0" fill="rgb(255,255,255)" stroke="none" stroke-width="1" stroke-miterlimit="1"/></g></g><g id="e0sdGuv3BNY17_to" style="offset-path:path('M17.407587,19.349736C13.355582,24.50717,9.989577,28.871444,8.847663,37.115259Q7.383155,64.963642,9.124244,71.476624C14.774129,93.949038,30.912245,98.51005,38.47962,100.826564Q52.687151,101.286794,65.525328,91.607551');offset-rotate:0deg"><g id="e0sdGuv3BNY17_tr" transform="rotate(0)"><g id="e0sdGuv3BNY17_ts" transform="scale(0,0)"><path id="e0sdGuv3BNY17" d="M39.8564,66.3416L38.5623,68.4277C38.2515,68.9317,38.087,69.5122,38.087,70.1043C38.087,70.6964,38.2515,71.2768,38.5623,71.7809L39.8564,73.8715C39.8699,73.8934,39.8755,73.9192,39.8723,73.9447C39.8691,73.9703,39.8573,73.9939,39.8389,74.0119C39.8204,74.0298,39.7964,74.0409,39.7708,74.0433C39.7453,74.0458,39.7196,74.0394,39.6981,74.0253L37.6119,72.7357C37.1071,72.425,36.5259,72.2606,35.9331,72.2606C35.3403,72.2606,34.7592,72.425,34.2543,72.7357L32.1682,74.0253C32.1489,74.0317,32.1283,74.0327,32.1084,74.0283C32.0886,74.0239,32.0704,74.0142,32.0556,74.0004C32.0407,73.9865,32.0299,73.9689,32.0243,73.9494C32.0186,73.9299,32.0183,73.9092,32.0234,73.8896L33.313,71.799C33.6238,71.2949,33.7883,70.7145,33.7883,70.1224C33.7883,69.5303,33.6238,68.9498,33.313,68.4458L32.0234,66.3597C32.0093,66.3382,32.0029,66.3125,32.0054,66.2869C32.0078,66.2613,32.0189,66.2373,32.0369,66.2189C32.0548,66.2004,32.0785,66.1886,32.104,66.1854C32.1295,66.1823,32.1553,66.1879,32.1772,66.2013L34.2633,67.491C34.7668,67.8056,35.3485,67.9725,35.9422,67.9725C36.5358,67.9725,37.1176,67.8056,37.621,67.491L39.7162,66.1968C39.7361,66.1907,39.7574,66.1902,39.7776,66.1954C39.7978,66.2006,39.8162,66.2112,39.8307,66.2262C39.8452,66.2412,39.8553,66.2599,39.8598,66.2803C39.8644,66.3006,39.8632,66.3219,39.8564,66.3416Z" transform="translate(-35.939024,-70.114197)" opacity="0" fill="rgb(255,255,255)" stroke="none" stroke-width="1" stroke-miterlimit="1"/></g></g></g></svg>