<svg width="107" height="102" id="eGjF8Wb1tJZ1" xmlns="http://www.w3.org/2000/svg" xmlns:xlink="http://www.w3.org/1999/xlink" viewBox="0 0 107 102" shape-rendering="geometricPrecision" text-rendering="geometricPrecision"><style><![CDATA[#eGjF8Wb1tJZ12_to {animation: eGjF8Wb1tJZ12_to__to 1111.111111111111ms linear infinite normal forwards}@keyframes eGjF8Wb1tJZ12_to__to { 0% {transform: translate(16.950702px,0.00001px)} 10% {transform: translate(16.950702px,0.00001px)} 80% {transform: translate(105.00213px,102.07117px)} 100% {transform: translate(105.00213px,102.07117px)}} #eGjF8Wb1tJZ12 {animation: eGjF8Wb1tJZ12_c_o 1111.111111111111ms linear infinite normal forwards}@keyframes eGjF8Wb1tJZ12_c_o { 0% {opacity: 0} 10% {opacity: 0} 30% {opacity: 1} 60% {opacity: 1} 80% {opacity: 0} 100% {opacity: 0}} #eGjF8Wb1tJZ18_to {animation: eGjF8Wb1tJZ18_to__to 1111.111111111111ms linear infinite normal forwards}@keyframes eGjF8Wb1tJZ18_to__to { 0% {transform: translate(5.132696px,47.06035px)} 15% {transform: translate(5.132696px,47.06035px)} 45% {transform: translate(23.258195px,98.161832px)} 80% {transform: translate(87.921797px,100.29227px)} 100% {transform: translate(87.921797px,100.29227px)}} #eGjF8Wb1tJZ18_tr {animation: eGjF8Wb1tJZ18_tr__tr 1111.111111111111ms linear infinite normal forwards}@keyframes eGjF8Wb1tJZ18_tr__tr { 0% {transform: rotate(0deg)} 15% {transform: rotate(0deg)} 45% {transform: rotate(-52.721119deg)} 80% {transform: rotate(-52deg)} 100% {transform: rotate(-52deg)}} #eGjF8Wb1tJZ18 {animation: eGjF8Wb1tJZ18_c_o 1111.111111111111ms linear infinite normal forwards}@keyframes eGjF8Wb1tJZ18_c_o { 0% {opacity: 0} 15% {opacity: 0} 30% {opacity: 1} 65% {opacity: 1} 80% {opacity: 0} 100% {opacity: 0}} #eGjF8Wb1tJZ24_tr {animation: eGjF8Wb1tJZ24_tr__tr 1111.111111111111ms linear infinite normal forwards}@keyframes eGjF8Wb1tJZ24_tr__tr { 0% {transform: translate(47.894212px,33.157854px) rotate(0deg)} 66% {transform: translate(47.894212px,33.157854px) rotate(0deg)} 90% {transform: translate(47.894212px,33.157854px) rotate(100deg)} 90.5% {transform: translate(47.894212px,33.157854px) rotate(180deg)} 100% {transform: translate(47.894212px,33.157854px) rotate(180deg)}} #eGjF8Wb1tJZ24_ts {animation: eGjF8Wb1tJZ24_ts__ts 1111.111111111111ms linear infinite normal forwards}@keyframes eGjF8Wb1tJZ24_ts__ts { 0% {transform: scale(0,0)} 65.5% {transform: scale(0,0)} 66% {transform: scale(1,1)} 75% {transform: scale(1,1)} 75.5% {transform: scale(1,1)} 80% {transform: scale(1,1)} 80.5% {transform: scale(1,1)} 90.5% {transform: scale(0,0)} 100% {transform: scale(0,0)}} #eGjF8Wb1tJZ24 {animation: eGjF8Wb1tJZ24_c_o 1111.111111111111ms linear infinite normal forwards}@keyframes eGjF8Wb1tJZ24_c_o { 0% {opacity: 0} 65.5% {opacity: 0} 75.5% {opacity: 1} 80.5% {opacity: 1} 90.5% {opacity: 0} 100% {opacity: 0}} #eGjF8Wb1tJZ25_tr {animation: eGjF8Wb1tJZ25_tr__tr 1111.111111111111ms linear infinite normal forwards}@keyframes eGjF8Wb1tJZ25_tr__tr { 0% {transform: translate(73.206017px,67.484016px) rotate(0deg)} 75.5% {transform: translate(73.206017px,67.484016px) rotate(0deg)} 100% {transform: translate(73.206017px,67.484016px) rotate(180deg)}} #eGjF8Wb1tJZ25_ts {animation: eGjF8Wb1tJZ25_ts__ts 1111.111111111111ms linear infinite normal forwards}@keyframes eGjF8Wb1tJZ25_ts__ts { 0% {transform: scale(0,0)} 75% {transform: scale(0,0)} 75.5% {transform: scale(1,1)} 85% {transform: scale(0.9,0.9)} 90% {transform: scale(0.9,0.9)} 100% {transform: scale(0,0)}} #eGjF8Wb1tJZ25 {animation: eGjF8Wb1tJZ25_c_o 1111.111111111111ms linear infinite normal forwards}@keyframes eGjF8Wb1tJZ25_c_o { 0% {opacity: 0} 75% {opacity: 0} 85% {opacity: 1} 90% {opacity: 1} 100% {opacity: 0}} #eGjF8Wb1tJZ26_to {animation: eGjF8Wb1tJZ26_to__to 1111.111111111111ms linear infinite normal forwards}@keyframes eGjF8Wb1tJZ26_to__to { 0% {transform: translate(22.723932px,31.901078px)} 10% {transform: translate(22.723932px,31.901078px)} 25% {transform: translate(9.559186px,43.131253px)} 60% {transform: translate(26.86018px,95.35507px)} 85% {transform: translate(78.073386px,95.35507px)} 100% {transform: translate(78.073386px,95.35507px)}} #eGjF8Wb1tJZ26_tr {animation: eGjF8Wb1tJZ26_tr__tr 1111.111111111111ms linear infinite normal forwards}@keyframes eGjF8Wb1tJZ26_tr__tr { 0% {transform: rotate(0deg)} 10% {transform: rotate(0deg)} 85% {transform: rotate(360deg)} 100% {transform: rotate(360deg)}} #eGjF8Wb1tJZ26_ts {animation: eGjF8Wb1tJZ26_ts__ts 1111.111111111111ms linear infinite normal forwards}@keyframes eGjF8Wb1tJZ26_ts__ts { 0% {transform: scale(0,0)} 10% {transform: scale(0,0)} 35% {transform: scale(0.9,0.9)} 60% {transform: scale(1,1)} 85% {transform: scale(0,0)} 100% {transform: scale(0,0)}} #eGjF8Wb1tJZ26 {animation: eGjF8Wb1tJZ26_c_o 1111.111111111111ms linear infinite normal forwards}@keyframes eGjF8Wb1tJZ26_c_o { 0% {opacity: 0} 10% {opacity: 0} 25% {opacity: 1} 65% {opacity: 1} 85% {opacity: 0} 100% {opacity: 0}}]]></style><g id="eGjF8Wb1tJZ2" transform="matrix(1 0 0 1 -0.341404 2.589557)" mask="url(#eGjF8Wb1tJZ22)"><g id="eGjF8Wb1tJZ3"><path id="eGjF8Wb1tJZ4" d="M53.997,56.7641L53.997,56.7838L26.359,94.8169L26.359,94.8267L20.6245,102.709L18.8608,97.2604L1.77551,44.6744L0.001953,39.2256L9.26388,42.2406L9.27373,42.2406L53.997,56.7641Z" transform="matrix(1 0 0 1 0 -3)" fill="rgb(97,210,255)" stroke="none" stroke-width="1" stroke-miterlimit="1"/><path id="eGjF8Wb1tJZ5" d="M87.37,102.709L20.625,102.709L26.3595,94.8262L26.3595,94.8163L53.9975,56.7833L53.9975,56.7734L54.0074,56.7734L81.6453,94.8262L87.37,102.709Z" transform="matrix(1 0 0 1 0 -3)" fill="rgb(53,166,242)" stroke="none" stroke-width="1" stroke-miterlimit="1"/><path id="eGjF8Wb1tJZ6" d="M108.002,39.2256L106.228,44.6744L89.143,97.2604L87.3695,102.709L81.6448,94.8267L54.0068,56.774L98.7301,42.2406L108.002,39.2256Z" transform="matrix(1 0 0 1 0 -3)" fill="rgb(29,134,221)" stroke="none" stroke-width="1" stroke-miterlimit="1"/><path id="eGjF8Wb1tJZ7" d="M108.002,39.2253L98.7302,42.2403L54.0069,56.7737L53.9971,56.7737L53.9971,0L58.6379,3.35991L103.371,35.8653L108.002,39.2253Z" transform="matrix(1 0 0 1 0 -3)" fill="rgb(53,166,242)" stroke="none" stroke-width="1" stroke-miterlimit="1"/><path id="eGjF8Wb1tJZ8" d="M53.997,0L53.997,56.7638L9.27373,42.2403L9.26388,42.2403L0.001953,39.2253L4.63292,35.8653L49.3661,3.35991L53.997,0Z" transform="matrix(1 0 0 1 0 -3)" fill="rgb(164,220,255)" stroke="none" stroke-width="1" stroke-miterlimit="1"/><path id="eGjF8Wb1tJZ9" d="M52.7458,10.6509L10.5153,41.3236C10.1445,41.5835,9.86627,41.9548,9.72097,42.3836C9.57567,42.8124,9.57091,43.2764,9.70738,43.7081L25.8763,93.3481C26.0156,93.777,26.2869,94.1509,26.6514,94.4164C27.016,94.6818,27.4551,94.8252,27.9061,94.826L80.1276,94.826C80.5799,94.8258,81.0205,94.6828,81.3868,94.4174C81.753,94.152,82.0261,93.7778,82.1672,93.3481L98.2869,43.7081C98.4274,43.2804,98.4287,42.8192,98.2906,42.3908C98.1525,41.9623,97.8821,41.5887,97.5183,41.3236L55.2485,10.6509C54.8848,10.3865,54.4467,10.2441,53.9971,10.2441C53.5475,10.2441,53.1095,10.3865,52.7458,10.6509Z" transform="matrix(1 0 0 1 0 -3)" fill="rgb(59,190,255)" stroke="none" stroke-width="1" stroke-miterlimit="1"/><path id="eGjF8Wb1tJZ10" d="M51.9197,67.7298L54.6754,57.3002L61.1995,54.9045L62.8223,48.7751L62.7669,48.623L56.3448,50.9812L60.972,33.4688L47.8492,33.4688L41.798,56.3229L36.7456,58.1781L35.0762,64.4971L40.1247,62.6435L36.5583,76.1125L71.4831,76.1125L73.7221,67.7298L51.9197,67.7298Z" transform="matrix(1 0 0 1 0 -3)" fill="rgb(255,255,255)" stroke="none" stroke-width="1" stroke-miterlimit="1"/><g id="eGjF8Wb1tJZ11" mask="url(#eGjF8Wb1tJZ15)"><g id="eGjF8Wb1tJZ12_to" transform="translate(16.950702,0.00001)"><g id="eGjF8Wb1tJZ12" transform="translate(-53.910135,-50.979182)" opacity="0"><rect id="eGjF8Wb1tJZ13" width="139.027" height="22.2955" rx="0" ry="0" transform="matrix(0.707107 -0.707107 0.707107 0.707107 0.548316 94.197261)" opacity="0.28" fill="rgb(255,255,255)" stroke="none" stroke-width="1" stroke-miterlimit="1"/><rect id="eGjF8Wb1tJZ14" width="139.027" height="9.20502" rx="0" ry="0" transform="matrix(0.707107 -0.707107 0.707107 0.707107 -7.426781 84.302744)" opacity="0.28" fill="rgb(255,255,255)" stroke="none" stroke-width="1" stroke-miterlimit="1"/></g></g><mask id="eGjF8Wb1tJZ15" mask-type="alpha"><path id="eGjF8Wb1tJZ16" d="M52.7018,10.6704L10.4714,41.3432C10.1006,41.603,9.82233,41.9743,9.67703,42.4031C9.53172,42.8319,9.52696,43.2959,9.66344,43.7276L25.8324,93.3676C25.9716,93.7965,26.2429,94.1705,26.6075,94.4359C26.972,94.7014,27.4112,94.8447,27.8621,94.8456L80.0836,94.8456C80.5359,94.8453,80.9766,94.7023,81.3428,94.4369C81.709,94.1715,81.9822,93.7973,82.1232,93.3676L98.2429,43.7276C98.3835,43.3,98.3848,42.8388,98.2467,42.4103C98.1086,41.9819,97.8382,41.6083,97.4744,41.3432L55.2045,10.6704C54.8409,10.4061,54.4028,10.2637,53.9532,10.2637C53.5036,10.2637,53.0655,10.4061,52.7018,10.6704Z" transform="matrix(1 0 0 1 0.000001 -3)" fill="rgb(59,190,255)" stroke="none" stroke-width="1" stroke-miterlimit="1"/></mask></g><g id="eGjF8Wb1tJZ17" mask="url(#eGjF8Wb1tJZ20)"><g id="eGjF8Wb1tJZ18_to" transform="translate(5.132696,47.06035)"><g id="eGjF8Wb1tJZ18_tr" transform="rotate(0)"><g id="eGjF8Wb1tJZ18" transform="translate(-5.132696,-47.06035)" opacity="0"><path id="eGjF8Wb1tJZ19" d="M-6.43945,42.7666L16.9507,43.4987L16.7049,51.3541L-6.68531,50.622L-6.43945,42.7666Z" transform="matrix(1 0 0 1 0 -3)" opacity="0.35" fill="rgb(255,255,255)" stroke="none" stroke-width="1" stroke-miterlimit="1"/></g></g></g><mask id="eGjF8Wb1tJZ20" mask-type="alpha"><path id="eGjF8Wb1tJZ21" d="M9.71929,42.3856C9.57468,42.8139,9.57015,43.2771,9.7064,43.7081L25.8754,93.3481C26.0146,93.777,26.2859,94.1509,26.6504,94.4164C27.015,94.6818,27.4542,94.8252,27.9051,94.826L80.1266,94.826C80.5685,94.8258,80.9992,94.6893,81.3603,94.4356L87.369,102.709L20.6235,102.709L18.8598,97.2604L0.000977,39.2256L9.2629,42.2406L9.27276,42.2406L9.71929,42.3856Z" transform="matrix(1 0 0 1 0 -3)" clip-rule="evenodd" fill="rgb(53,166,242)" fill-rule="evenodd" stroke="none" stroke-width="1" stroke-miterlimit="1"/></mask></g></g><mask id="eGjF8Wb1tJZ22" mask-type="alpha"><path id="eGjF8Wb1tJZ23" d="M2.36027,37.2968L51.6518,1.69733C53.0538,0.684759,54.9478,0.687897,56.3465,1.70511L105.565,37.5007C106.965,38.5185,107.551,40.3208,107.018,41.9672L88.2597,99.9314C87.7242,101.586,86.1808,102.705,84.4416,102.7L23.4043,102.509C21.6733,102.504,20.1421,101.385,19.6103,99.738L0.89568,41.7684C0.362866,40.118,0.954307,38.3122,2.36027,37.2968Z" transform="matrix(1 0 0 1 0 -3)" fill="rgb(196,196,196)" stroke="none" stroke-width="1" stroke-miterlimit="1"/></mask></g><g id="eGjF8Wb1tJZ24_tr" transform="translate(47.894212,33.157854) rotate(0)"><g id="eGjF8Wb1tJZ24_ts" transform="scale(0,0)"><path id="eGjF8Wb1tJZ24" d="M51.9043,29.7957L50.6101,31.8818C50.2994,32.3858,50.1348,32.9663,50.1348,33.5584C50.1348,34.1505,50.2994,34.7309,50.6101,35.235L51.9043,37.3256C51.9178,37.3475,51.9233,37.3733,51.9201,37.3988C51.917,37.4244,51.9052,37.448,51.8867,37.466C51.8683,37.4839,51.8443,37.495,51.8187,37.4974C51.7931,37.4999,51.7674,37.4935,51.7459,37.4794L49.6598,36.1898C49.1549,35.8791,48.5738,35.7147,47.981,35.7147C47.3882,35.7147,46.807,35.8791,46.3021,36.1898L44.216,37.4794C44.1968,37.4858,44.1761,37.4868,44.1563,37.4824C44.1365,37.478,44.1182,37.4683,44.1034,37.4545C44.0886,37.4406,44.0778,37.423,44.0721,37.4035C44.0665,37.384,44.0662,37.3633,44.0712,37.3437L45.3609,35.2531C45.6716,34.749,45.8362,34.1686,45.8362,33.5765C45.8362,32.9844,45.6716,32.4039,45.3609,31.8999L44.0712,29.8138C44.0571,29.7923,44.0508,29.7666,44.0532,29.741C44.0557,29.7154,44.0668,29.6914,44.0847,29.673C44.1026,29.6545,44.1263,29.6427,44.1518,29.6395C44.1773,29.6364,44.2032,29.642,44.2251,29.6554L46.3112,30.9451C46.8146,31.2597,47.3963,31.4266,47.99,31.4266C48.5837,31.4266,49.1654,31.2597,49.6689,30.9451L51.764,29.6509C51.784,29.6448,51.8052,29.6443,51.8254,29.6495C51.8456,29.6547,51.864,29.6653,51.8785,29.6803C51.893,29.6953,51.9031,29.714,51.9077,29.7344C51.9122,29.7547,51.9111,29.776,51.9043,29.7957Z" transform="translate(-47.986845,-33.568297)" opacity="0" fill="rgb(255,255,255)" stroke="none" stroke-width="1" stroke-miterlimit="1"/></g></g><g id="eGjF8Wb1tJZ25_tr" transform="translate(73.206017,67.484016) rotate(0)"><g id="eGjF8Wb1tJZ25_ts" transform="scale(0,0)"><path id="eGjF8Wb1tJZ25" d="M77.4648,64.1219L76.1706,66.208C75.8599,66.712,75.6954,67.2925,75.6954,67.8846C75.6954,68.4767,75.8599,69.0571,76.1706,69.5611L77.4648,71.6518C77.4783,71.6737,77.4839,71.6995,77.4807,71.725C77.4775,71.7505,77.4657,71.7742,77.4473,71.7921C77.4288,71.81,77.4048,71.8211,77.3792,71.8236C77.3537,71.826,77.328,71.8197,77.3065,71.8056L75.2203,70.5159C74.7155,70.2053,74.1343,70.0409,73.5415,70.0409C72.9487,70.0409,72.3676,70.2053,71.8627,70.5159L69.7766,71.8056C69.7573,71.8119,69.7367,71.813,69.7168,71.8086C69.697,71.8042,69.6788,71.7945,69.664,71.7806C69.6491,71.7668,69.6383,71.7491,69.6327,71.7297C69.627,71.7102,69.6267,71.6895,69.6318,71.6699L70.9214,69.5792C71.2322,69.0752,71.3967,68.4947,71.3967,67.9026C71.3967,67.3105,71.2322,66.7301,70.9214,66.2261L69.6318,64.14C69.6177,64.1185,69.6113,64.0928,69.6138,64.0672C69.6162,64.0416,69.6273,64.0176,69.6453,63.9992C69.6632,63.9807,69.6869,63.9689,69.7124,63.9657C69.7379,63.9625,69.7637,63.9681,69.7856,63.9816L71.8717,65.2713C72.3752,65.5859,72.9569,65.7528,73.5506,65.7528C74.1442,65.7528,74.726,65.5859,75.2294,65.2713L77.3246,63.9771C77.3445,63.9709,77.3657,63.9704,77.386,63.9756C77.4062,63.9808,77.4246,63.9915,77.4391,64.0065C77.4536,64.0215,77.4637,64.0402,77.4682,64.0605C77.4728,64.0809,77.4716,64.1021,77.4648,64.1219Z" transform="translate(-73.547421,-67.894459)" opacity="0" fill="rgb(255,255,255)" stroke="none" stroke-width="1" stroke-miterlimit="1"/></g></g><g id="eGjF8Wb1tJZ26_to" transform="translate(22.723932,31.901078)"><g id="eGjF8Wb1tJZ26_tr" transform="rotate(0)"><g id="eGjF8Wb1tJZ26_ts" transform="scale(0,0)"><path id="eGjF8Wb1tJZ26" d="M51.9043,29.7957L50.6101,31.8818C50.2994,32.3858,50.1348,32.9663,50.1348,33.5584C50.1348,34.1505,50.2994,34.7309,50.6101,35.235L51.9043,37.3256C51.9178,37.3475,51.9233,37.3733,51.9201,37.3988C51.917,37.4244,51.9052,37.448,51.8867,37.466C51.8683,37.4839,51.8443,37.495,51.8187,37.4974C51.7931,37.4999,51.7674,37.4935,51.7459,37.4794L49.6598,36.1898C49.1549,35.8791,48.5738,35.7147,47.981,35.7147C47.3882,35.7147,46.807,35.8791,46.3021,36.1898L44.216,37.4794C44.1968,37.4858,44.1761,37.4868,44.1563,37.4824C44.1365,37.478,44.1182,37.4683,44.1034,37.4545C44.0886,37.4406,44.0778,37.423,44.0721,37.4035C44.0665,37.384,44.0662,37.3633,44.0712,37.3437L45.3609,35.2531C45.6716,34.749,45.8362,34.1686,45.8362,33.5765C45.8362,32.9844,45.6716,32.4039,45.3609,31.8999L44.0712,29.8138C44.0571,29.7923,44.0508,29.7666,44.0532,29.741C44.0557,29.7154,44.0668,29.6914,44.0847,29.673C44.1026,29.6545,44.1263,29.6427,44.1518,29.6395C44.1773,29.6364,44.2032,29.642,44.2251,29.6554L46.3112,30.9451C46.8146,31.2597,47.3963,31.4266,47.99,31.4266C48.5837,31.4266,49.1654,31.2597,49.6689,30.9451L51.764,29.6509C51.784,29.6448,51.8052,29.6443,51.8254,29.6495C51.8456,29.6547,51.864,29.6653,51.8785,29.6803C51.893,29.6953,51.9031,29.714,51.9077,29.7344C51.9122,29.7547,51.9111,29.776,51.9043,29.7957Z" transform="translate(-47.986847,-33.5683)" opacity="0" fill="rgb(255,255,255)" stroke="none" stroke-width="1" stroke-miterlimit="1"/></g></g></g></svg>