<svg width="101" height="99" id="eb4fJ1cgUpu1" xmlns="http://www.w3.org/2000/svg" xmlns:xlink="http://www.w3.org/1999/xlink" viewBox="0 0 101 99" shape-rendering="geometricPrecision" text-rendering="geometricPrecision"><style><![CDATA[#eb4fJ1cgUpu14_to {animation: eb4fJ1cgUpu14_to__to 1111.111111111111ms linear infinite normal forwards}@keyframes eb4fJ1cgUpu14_to__to { 0% {transform: translate(14.533562px,15.264898px)} 10% {transform: translate(14.533562px,15.264898px)} 35% {transform: translate(3.761509px,59.214898px)} 60% {transform: translate(30.805757px,94.455498px)} 85% {transform: translate(79.68943px,94.455513px)} 100% {transform: translate(79.68943px,94.455513px)}} #eb4fJ1cgUpu14_tr {animation: eb4fJ1cgUpu14_tr__tr 1111.111111111111ms linear infinite normal forwards}@keyframes eb4fJ1cgUpu14_tr__tr { 0% {transform: rotate(-5.034531deg)} 10% {transform: rotate(-5.034531deg)} 30% {transform: rotate(-17.977249deg)} 60% {transform: rotate(-63.943221deg)} 65% {transform: rotate(-56.22986deg)} 85% {transform: rotate(-60deg)} 100% {transform: rotate(-60deg)}} #eb4fJ1cgUpu14 {animation: eb4fJ1cgUpu14_c_o 1111.111111111111ms linear infinite normal forwards}@keyframes eb4fJ1cgUpu14_c_o { 0% {opacity: 0} 10% {opacity: 0} 25% {opacity: 0.7} 65% {opacity: 0.7} 85% {opacity: 0} 100% {opacity: 0}} #eb4fJ1cgUpu21_to {animation: eb4fJ1cgUpu21_to__to 1111.111111111111ms linear infinite normal forwards}@keyframes eb4fJ1cgUpu21_to__to { 0% {transform: translate(9.142053px,7.213045px)} 10% {transform: translate(9.142053px,7.213045px)} 85% {transform: translate(96.296338px,94.367334px)} 100% {transform: translate(96.296338px,94.367334px)}} #eb4fJ1cgUpu21 {animation: eb4fJ1cgUpu21_c_o 1111.111111111111ms linear infinite normal forwards}@keyframes eb4fJ1cgUpu21_c_o { 0% {opacity: 0} 10% {opacity: 0} 25% {opacity: 0.98} 65% {opacity: 0.98} 85% {opacity: 0} 100% {opacity: 0}} #eb4fJ1cgUpu26_tr {animation: eb4fJ1cgUpu26_tr__tr 1111.111111111111ms linear infinite normal forwards}@keyframes eb4fJ1cgUpu26_tr__tr { 0% {transform: translate(27.051317px,32.318297px) rotate(0deg)} 70% {transform: translate(27.051317px,32.318297px) rotate(0deg)} 95% {transform: translate(27.051317px,32.318297px) rotate(160deg)} 100% {transform: translate(27.051317px,32.318297px) rotate(160deg)}} #eb4fJ1cgUpu26_ts {animation: eb4fJ1cgUpu26_ts__ts 1111.111111111111ms linear infinite normal forwards}@keyframes eb4fJ1cgUpu26_ts__ts { 0% {transform: scale(0,0)} 70% {transform: scale(0,0)} 85% {transform: scale(1,1)} 95% {transform: scale(0,0)} 100% {transform: scale(0,0)}} #eb4fJ1cgUpu26 {animation: eb4fJ1cgUpu26_c_o 1111.111111111111ms linear infinite normal forwards}@keyframes eb4fJ1cgUpu26_c_o { 0% {opacity: 0} 70% {opacity: 0} 85% {opacity: 1} 95% {opacity: 0} 100% {opacity: 0}} #eb4fJ1cgUpu27_tr {animation: eb4fJ1cgUpu27_tr__tr 1111.111111111111ms linear infinite normal forwards}@keyframes eb4fJ1cgUpu27_tr__tr { 0% {transform: translate(75.445815px,71.854427px) rotate(0deg)} 58% {transform: translate(75.445815px,71.854427px) rotate(0deg)} 88% {transform: translate(75.445815px,71.854427px) rotate(160deg)} 100% {transform: translate(75.445815px,71.854427px) rotate(160deg)}} #eb4fJ1cgUpu27_ts {animation: eb4fJ1cgUpu27_ts__ts 1111.111111111111ms linear infinite normal forwards}@keyframes eb4fJ1cgUpu27_ts__ts { 0% {transform: scale(0,0)} 58% {transform: scale(0,0)} 75% {transform: scale(1,1)} 88% {transform: scale(0,0)} 100% {transform: scale(0,0)}} #eb4fJ1cgUpu27 {animation: eb4fJ1cgUpu27_c_o 1111.111111111111ms linear infinite normal forwards}@keyframes eb4fJ1cgUpu27_c_o { 0% {opacity: 0} 58% {opacity: 0} 73% {opacity: 1} 88% {opacity: 0} 100% {opacity: 0}} #eb4fJ1cgUpu28_to {animation: eb4fJ1cgUpu28_to__to 1111.111111111111ms linear infinite normal forwards}@keyframes eb4fJ1cgUpu28_to__to { 0% {transform: translate(17.964073px,25.974015px)} 10% {transform: translate(17.964073px,25.974015px)} 40% {transform: translate(9.860824px,61.878426px)} 65% {transform: translate(30.85143px,91.324886px)} 85% {transform: translate(70.679452px,91.056744px)} 100% {transform: translate(70.679452px,91.056744px)}} #eb4fJ1cgUpu28_tr {animation: eb4fJ1cgUpu28_tr__tr 1111.111111111111ms linear infinite normal forwards}@keyframes eb4fJ1cgUpu28_tr__tr { 0% {transform: rotate(0deg)} 10% {transform: rotate(0deg)} 85% {transform: rotate(720deg)} 100% {transform: rotate(720deg)}} #eb4fJ1cgUpu28_ts {animation: eb4fJ1cgUpu28_ts__ts 1111.111111111111ms linear infinite normal forwards}@keyframes eb4fJ1cgUpu28_ts__ts { 0% {transform: scale(0,0)} 10% {transform: scale(0,0)} 35% {transform: scale(1,1)} 65% {transform: scale(1,1)} 85% {transform: scale(0,0)} 100% {transform: scale(0,0)}} #eb4fJ1cgUpu28 {animation: eb4fJ1cgUpu28_c_o 1111.111111111111ms linear infinite normal forwards}@keyframes eb4fJ1cgUpu28_c_o { 0% {opacity: 0} 10% {opacity: 0} 40% {opacity: 1} 65% {opacity: 1} 85% {opacity: 0} 100% {opacity: 0}}]]></style><g id="eb4fJ1cgUpu2" transform="matrix(1 0 0 1 0.091777 0)" mask="url(#eb4fJ1cgUpu18)"><g id="eb4fJ1cgUpu3"><path id="eb4fJ1cgUpu4" d="M91.2704,19.559L50.6504,51.949L50.6504,-0.000977L54.1204,1.66902L87.8004,17.889L91.2704,19.559Z" fill="rgb(242,90,234)" stroke="none" stroke-width="1" stroke-miterlimit="1"/><path id="eb4fJ1cgUpu5" d="M101.3,63.5086L50.6504,51.9486L91.2704,19.5586L92.1204,23.3086L100.44,59.7486L101.3,63.5086Z" fill="rgb(193,47,186)" stroke="none" stroke-width="1" stroke-miterlimit="1"/><path id="eb4fJ1cgUpu6" d="M101.3,63.5092L98.9004,66.5192L75.5904,95.7392L73.1904,98.7492L50.6504,51.9492L101.3,63.5092Z" fill="rgb(160,36,163)" stroke="none" stroke-width="1" stroke-miterlimit="1"/><path id="eb4fJ1cgUpu7" d="M73.1904,98.7492L28.1104,98.7492L50.6504,51.9492L73.1904,98.7492Z" fill="rgb(193,47,186)" stroke="none" stroke-width="1" stroke-miterlimit="1"/><path id="eb4fJ1cgUpu8" d="M50.65,51.9492L28.11,98.7492L25.71,95.7392L2.41,66.5192L0,63.5092L50.65,51.9492Z" fill="rgb(242,90,234)" stroke="none" stroke-width="1" stroke-miterlimit="1"/><path id="eb4fJ1cgUpu9" d="M50.65,51.9486L0,63.5086L0.860001,59.7486L9.18,23.3086L10.04,19.5586L50.65,51.9486Z" fill="rgb(252,126,252)" stroke="none" stroke-width="1" stroke-miterlimit="1"/><path id="eb4fJ1cgUpu10" d="M50.65,-0.000977L50.65,51.949L10.04,19.559L13.51,17.889L47.18,1.66902L50.65,-0.000977Z" fill="rgb(244,160,249)" stroke="none" stroke-width="1" stroke-miterlimit="1"/><path id="eb4fJ1cgUpu11" d="M49.7196,9.33878L17.9296,24.6388C17.6267,24.7771,17.3599,24.9835,17.15,25.242C16.9401,25.5005,16.7928,25.804,16.7196,26.1288L8.88958,60.4988C8.8162,60.8212,8.81677,61.156,8.89124,61.4781C8.96571,61.8002,9.11215,62.1013,9.31958,62.3588L31.3196,89.9288C31.5269,90.1851,31.789,90.3918,32.0867,90.5337C32.3843,90.6756,32.7099,90.7491,33.0396,90.7488L68.2796,90.7488C68.6081,90.7505,68.9327,90.6775,69.2289,90.5355C69.5251,90.3934,69.7852,90.186,69.9896,89.9288L91.9896,62.3588C92.1934,62.0994,92.3368,61.7979,92.4094,61.4762C92.4821,61.1544,92.4821,60.8205,92.4096,60.4988L84.5596,26.1288C84.4864,25.8068,84.3413,25.5055,84.1353,25.2475C83.9292,24.9894,83.6674,24.7814,83.3696,24.6388L51.5996,9.33878C51.3055,9.20057,50.9845,9.12891,50.6596,9.12891C50.3346,9.12891,50.0137,9.20057,49.7196,9.33878Z" fill="rgb(226,64,211)" stroke="none" stroke-width="1" stroke-miterlimit="1"/><path id="eb4fJ1cgUpu12" d="M67.8297,31.9014L74.858,31.9014L60.2336,46.3132C54.9395,51.5308,46.3576,51.5308,41.0635,46.3132L26.441,31.9014L33.4694,31.9014L44.5787,42.8497C47.9305,46.1545,53.3666,46.1545,56.7204,42.8497L67.8297,31.9014ZM33.3799,71.9773L26.3516,71.9773L41.0655,57.4764C46.3596,52.2588,54.9414,52.2588,60.2355,57.4764L74.9494,71.9773L67.9211,71.9773L56.7204,60.94C53.3685,57.6352,47.9325,57.6352,44.5787,60.94L33.3799,71.9773Z" fill="rgb(255,255,255)" stroke="none" stroke-width="1" stroke-miterlimit="1"/><g id="eb4fJ1cgUpu13" mask="url(#eb4fJ1cgUpu16)"><g id="eb4fJ1cgUpu14_to" transform="translate(14.533562,15.264898)"><g id="eb4fJ1cgUpu14_tr" transform="rotate(-5.034531)"><g id="eb4fJ1cgUpu14" transform="scale(1.723054,1) translate(-11.827061,-35.2117)" opacity="0"><path id="eb4fJ1cgUpu15" d="M0.254883,30.918L23.6451,31.65L23.3992,39.5054L0.009023,38.7734L0.254883,30.918Z" opacity="0.35" fill="rgb(255,255,255)" stroke="none" stroke-width="1" stroke-miterlimit="1"/></g></g></g><mask id="eb4fJ1cgUpu16" mask-type="alpha"><path id="eb4fJ1cgUpu17" d="M17.1684,25.2196C17.1622,25.227,17.1561,25.2345,17.15,25.242C16.9401,25.5005,16.7928,25.804,16.7196,26.1288L8.88958,60.4988C8.8162,60.8212,8.81677,61.156,8.89124,61.4781C8.96571,61.8002,9.11215,62.1013,9.31958,62.3588L31.3196,89.9288C31.5269,90.1851,31.789,90.3918,32.0867,90.5337C32.3843,90.6756,32.7099,90.7491,33.0396,90.7488L68.2796,90.7488C68.6081,90.7505,68.9327,90.6775,69.2289,90.5355C69.2351,90.5325,69.2412,90.5295,69.2474,90.5265L73.1991,98.7316L28.1191,98.7316L2.41879,66.5016L0.008789,63.4916L10.0488,19.541L17.1684,25.2196Z" clip-rule="evenodd" fill="rgb(252,126,252)" fill-rule="evenodd" stroke="none" stroke-width="1" stroke-miterlimit="1"/></mask></g></g><mask id="eb4fJ1cgUpu18" mask-type="alpha"><path id="eb4fJ1cgUpu19" d="M11.8444,18.7174L48.9072,0.843696C50.0038,0.31486,51.2816,0.314223,52.3787,0.841967L89.5361,18.7157C90.6338,19.2437,91.4311,20.2432,91.702,21.4308L100.871,61.63C101.142,62.8173,100.857,64.0633,100.097,65.015L74.384,97.2267C73.625,98.1776,72.4745,98.7313,71.2579,98.7313L30.0134,98.7313C28.7955,98.7313,27.6438,98.1764,26.8849,97.2238L1.21093,64.9982C0.451366,64.0448,0.16799,62.7971,0.441214,61.6091L9.68368,21.4237C9.95583,20.2404,10.7507,19.2448,11.8444,18.7174Z" transform="matrix(1 0 0 1 0.000001 0)" fill="rgb(196,196,196)" stroke="none" stroke-width="1" stroke-miterlimit="1"/></mask></g><g id="eb4fJ1cgUpu20" transform="matrix(1 0 0 1 0.091777 0)" mask="url(#eb4fJ1cgUpu24)"><g id="eb4fJ1cgUpu21_to" transform="translate(9.142053,7.213045)"><g id="eb4fJ1cgUpu21" transform="translate(-50.908191,-48.979181)" opacity="0"><rect id="eb4fJ1cgUpu22" width="139.027" height="22.2955" rx="0" ry="0" transform="matrix(0.707107 -0.707107 0.707107 0.707107 -1.827134 93.270818)" opacity="0.28" fill="rgb(255,255,255)" stroke="none" stroke-width="1" stroke-miterlimit="1"/><rect id="eb4fJ1cgUpu23" width="139.027" height="9.20502" rx="0" ry="0" transform="matrix(0.707107 -0.707107 0.707107 0.707107 -10.428687 85.302722)" opacity="0.28" fill="rgb(255,255,255)" stroke="none" stroke-width="1" stroke-miterlimit="1"/></g></g><mask id="eb4fJ1cgUpu24" mask-type="alpha"><path id="eb4fJ1cgUpu25" d="M49.7196,9.36027L17.9296,24.6603C17.6267,24.7986,17.3599,25.005,17.15,25.2635C16.9401,25.5219,16.7928,25.8254,16.7196,26.1503L8.88958,60.5203C8.8162,60.8427,8.81677,61.1775,8.89124,61.4996C8.96571,61.8217,9.11215,62.1228,9.31958,62.3803L31.3196,89.9503C31.5269,90.2066,31.789,90.4133,32.0867,90.5552C32.3843,90.697,32.7099,90.7705,33.0396,90.7703L68.2796,90.7703C68.6081,90.7719,68.9327,90.699,69.2289,90.557C69.5251,90.4149,69.7852,90.2075,69.9896,89.9503L91.9896,62.3803C92.1934,62.1209,92.3368,61.8194,92.4094,61.4977C92.4821,61.1759,92.4821,60.842,92.4096,60.5203L84.5596,26.1503C84.4864,25.8283,84.3413,25.527,84.1353,25.2689C83.9292,25.0109,83.6674,24.8028,83.3696,24.6603L51.5996,9.36027C51.3055,9.22205,50.9845,9.15039,50.6596,9.15039C50.3346,9.15039,50.0137,9.22205,49.7196,9.36027Z" fill="rgb(226,64,211)" stroke="none" stroke-width="1" stroke-miterlimit="1"/></mask></g><g id="eb4fJ1cgUpu26_tr" transform="translate(27.051317,32.318297) rotate(0)"><g id="eb4fJ1cgUpu26_ts" transform="scale(0,0)"><path id="eb4fJ1cgUpu26" d="M30.877,28.5457L29.5828,30.6318C29.272,31.1358,29.1075,31.7163,29.1075,32.3084C29.1075,32.9005,29.272,33.4809,29.5828,33.985L30.877,36.0756C30.8904,36.0975,30.896,36.1233,30.8928,36.1488C30.8896,36.1744,30.8778,36.198,30.8594,36.216C30.8409,36.2339,30.817,36.245,30.7914,36.2474C30.7658,36.2499,30.7401,36.2435,30.7186,36.2294L28.6325,34.9398C28.1276,34.6291,27.5464,34.4647,26.9536,34.4647C26.3609,34.4647,25.7797,34.6291,25.2748,34.9398L23.1887,36.2294C23.1694,36.2358,23.1488,36.2368,23.129,36.2324C23.1091,36.228,23.0909,36.2183,23.0761,36.2045C23.0613,36.1906,23.0505,36.173,23.0448,36.1535C23.0391,36.134,23.0388,36.1133,23.0439,36.0937L24.3335,34.0031C24.6443,33.499,24.8088,32.9186,24.8088,32.3265C24.8088,31.7344,24.6443,31.1539,24.3335,30.6499L23.0439,28.5638C23.0298,28.5423,23.0235,28.5166,23.0259,28.491C23.0284,28.4654,23.0394,28.4414,23.0574,28.423C23.0753,28.4045,23.099,28.3927,23.1245,28.3895C23.15,28.3864,23.1758,28.392,23.1978,28.4054L25.2838,29.6951C25.7873,30.0097,26.369,30.1766,26.9627,30.1766C27.5563,30.1766,28.1381,30.0097,28.6415,29.6951L30.7367,28.4009C30.7566,28.3948,30.7779,28.3943,30.7981,28.3995C30.8183,28.4047,30.8367,28.4153,30.8512,28.4303C30.8657,28.4453,30.8758,28.464,30.8803,28.4844C30.8849,28.5047,30.8837,28.526,30.877,28.5457Z" transform="translate(-26.95954,-32.318297)" opacity="0" fill="rgb(255,255,255)" stroke="none" stroke-width="1" stroke-miterlimit="1"/></g></g><g id="eb4fJ1cgUpu27_tr" transform="translate(75.445815,71.854427) rotate(0)"><g id="eb4fJ1cgUpu27_ts" transform="scale(0,0)"><path id="eb4fJ1cgUpu27" d="M79.2715,68.0818L77.9773,70.1679C77.6666,70.672,77.502,71.2524,77.502,71.8445C77.502,72.4366,77.6666,73.0171,77.9773,73.5211L79.2715,75.6117C79.2849,75.6336,79.2905,75.6595,79.2873,75.685C79.2841,75.7105,79.2724,75.7342,79.2539,75.7521C79.2355,75.77,79.2115,75.7811,79.1859,75.7835C79.1603,75.786,79.1346,75.7797,79.1131,75.7656L77.027,74.4759C76.5221,74.1653,75.941,74.0008,75.3482,74.0008C74.7554,74.0008,74.1742,74.1653,73.6693,74.4759L71.5832,75.7656C71.5639,75.7719,71.5433,75.7729,71.5235,75.7685C71.5037,75.7641,71.4854,75.7545,71.4706,75.7406C71.4558,75.7267,71.445,75.7091,71.4393,75.6896C71.4337,75.6701,71.4333,75.6495,71.4384,75.6298L72.7281,73.5392C73.0388,73.0352,73.2034,72.4547,73.2034,71.8626C73.2034,71.2705,73.0388,70.69,72.7281,70.186L71.4384,68.0999C71.4243,68.0784,71.418,68.0528,71.4204,68.0272C71.4229,68.0016,71.434,67.9776,71.4519,67.9591C71.4698,67.9407,71.4935,67.9289,71.519,67.9257C71.5445,67.9225,71.5704,67.9281,71.5923,67.9416L73.6784,69.2312C74.1818,69.5459,74.7635,69.7127,75.3572,69.7127C75.9509,69.7127,76.5326,69.5459,77.036,69.2312L79.1312,67.937C79.1511,67.9309,79.1724,67.9304,79.1926,67.9356C79.2128,67.9408,79.2312,67.9515,79.2457,67.9664C79.2602,67.9814,79.2703,68.0001,79.2749,68.0205C79.2794,68.0409,79.2782,68.0621,79.2715,68.0818Z" transform="translate(-75.354038,-71.854427)" opacity="0" fill="rgb(255,255,255)" stroke="none" stroke-width="1" stroke-miterlimit="1"/></g></g><g id="eb4fJ1cgUpu28_to" transform="translate(17.964073,25.974015)"><g id="eb4fJ1cgUpu28_tr" transform="rotate(0)"><g id="eb4fJ1cgUpu28_ts" transform="scale(0,0)"><path id="eb4fJ1cgUpu28" d="M79.2715,68.0818L77.9773,70.1679C77.6666,70.672,77.502,71.2524,77.502,71.8445C77.502,72.4366,77.6666,73.0171,77.9773,73.5211L79.2715,75.6117C79.2849,75.6336,79.2905,75.6595,79.2873,75.685C79.2841,75.7105,79.2724,75.7342,79.2539,75.7521C79.2355,75.77,79.2115,75.7811,79.1859,75.7835C79.1603,75.786,79.1346,75.7797,79.1131,75.7656L77.027,74.4759C76.5221,74.1653,75.941,74.0008,75.3482,74.0008C74.7554,74.0008,74.1742,74.1653,73.6693,74.4759L71.5832,75.7656C71.5639,75.7719,71.5433,75.7729,71.5235,75.7685C71.5037,75.7641,71.4854,75.7545,71.4706,75.7406C71.4558,75.7267,71.445,75.7091,71.4393,75.6896C71.4337,75.6701,71.4333,75.6495,71.4384,75.6298L72.7281,73.5392C73.0388,73.0352,73.2034,72.4547,73.2034,71.8626C73.2034,71.2705,73.0388,70.69,72.7281,70.186L71.4384,68.0999C71.4243,68.0784,71.418,68.0528,71.4204,68.0272C71.4229,68.0016,71.434,67.9776,71.4519,67.9591C71.4698,67.9407,71.4935,67.9289,71.519,67.9257C71.5445,67.9225,71.5704,67.9281,71.5923,67.9416L73.6784,69.2312C74.1818,69.5459,74.7635,69.7127,75.3572,69.7127C75.9509,69.7127,76.5326,69.5459,77.036,69.2312L79.1312,67.937C79.1511,67.9309,79.1724,67.9304,79.1926,67.9356C79.2128,67.9408,79.2312,67.9515,79.2457,67.9664C79.2602,67.9814,79.2703,68.0001,79.2749,68.0205C79.2794,68.0409,79.2782,68.0621,79.2715,68.0818Z" transform="translate(-75.354038,-71.854427)" opacity="0" fill="rgb(255,255,255)" stroke="none" stroke-width="1" stroke-miterlimit="1"/></g></g></g></svg>