<svg width="106" height="106" id="eYpQ3JZfS4H1" xmlns="http://www.w3.org/2000/svg" xmlns:xlink="http://www.w3.org/1999/xlink" viewBox="0 0 106 106" shape-rendering="geometricPrecision" text-rendering="geometricPrecision"><style><![CDATA[#eYpQ3JZfS4H5_to {animation: eYpQ3JZfS4H5_to__to 1111.111111111111ms linear infinite normal forwards}@keyframes eYpQ3JZfS4H5_to__to { 0% {offset-distance: 0%} 5% {offset-distance: 0%} 30% {offset-distance: 33.333333%} 55% {offset-distance: 66.666667%} 85% {offset-distance: 100%} 100% {offset-distance: 100%}} #eYpQ3JZfS4H5_tr {animation: eYpQ3JZfS4H5_tr__tr 1111.111111111111ms linear infinite normal forwards}@keyframes eYpQ3JZfS4H5_tr__tr { 0% {transform: rotate(0deg)} 5% {transform: rotate(0deg)} 35% {transform: rotate(-15.567849deg)} 45% {transform: rotate(-87.855514deg)} 75% {transform: rotate(-88.966496deg)} 90% {transform: rotate(-136.630178deg)} 100% {transform: rotate(-136.630178deg)}} #eYpQ3JZfS4H5 {animation: eYpQ3JZfS4H5_c_o 1111.111111111111ms linear infinite normal forwards}@keyframes eYpQ3JZfS4H5_c_o { 0% {opacity: 0} 5% {opacity: 0} 40% {opacity: 1} 65% {opacity: 1} 80% {opacity: 0} 100% {opacity: 0}} #eYpQ3JZfS4H10_to {animation: eYpQ3JZfS4H10_to__to 1111.111111111111ms linear infinite normal forwards}@keyframes eYpQ3JZfS4H10_to__to { 0% {transform: translate(18.607011px,6.862596px)} 5% {transform: translate(18.607011px,6.862596px)} 90% {transform: translate(97.862653px,86.11824px)} 100% {transform: translate(97.862653px,86.11824px)}} #eYpQ3JZfS4H10 {animation: eYpQ3JZfS4H10_c_o 1111.111111111111ms linear infinite normal forwards}@keyframes eYpQ3JZfS4H10_c_o { 0% {opacity: 0} 5% {opacity: 0} 20% {opacity: 1} 55% {opacity: 1} 90% {opacity: 0} 100% {opacity: 0}} #eYpQ3JZfS4H18_tr {animation: eYpQ3JZfS4H18_tr__tr 1111.111111111111ms linear infinite normal forwards}@keyframes eYpQ3JZfS4H18_tr__tr { 0% {transform: translate(49.498076px,29.322527px) rotate(0deg)} 60.5% {transform: translate(49.498076px,29.322527px) rotate(0deg)} 90.5% {transform: translate(49.498076px,29.322527px) rotate(160deg)} 100% {transform: translate(49.498076px,29.322527px) rotate(160deg)}} #eYpQ3JZfS4H18_ts {animation: eYpQ3JZfS4H18_ts__ts 1111.111111111111ms linear infinite normal forwards}@keyframes eYpQ3JZfS4H18_ts__ts { 0% {transform: scale(0,0)} 60.5% {transform: scale(0,0)} 75% {transform: scale(1,1)} 75.5% {transform: scale(1,1)} 90.5% {transform: scale(0,0)} 100% {transform: scale(0,0)}} #eYpQ3JZfS4H18 {animation: eYpQ3JZfS4H18_c_o 1111.111111111111ms linear infinite normal forwards}@keyframes eYpQ3JZfS4H18_c_o { 0% {opacity: 0} 60.5% {opacity: 0} 75.5% {opacity: 1} 90.5% {opacity: 0} 100% {opacity: 0}} #eYpQ3JZfS4H19_tr {animation: eYpQ3JZfS4H19_tr__tr 1111.111111111111ms linear infinite normal forwards}@keyframes eYpQ3JZfS4H19_tr__tr { 0% {transform: translate(36.609877px,76.732689px) rotate(0deg)} 70% {transform: translate(36.609877px,76.732689px) rotate(0deg)} 100% {transform: translate(36.609877px,76.732689px) rotate(160deg)}} #eYpQ3JZfS4H19_ts {animation: eYpQ3JZfS4H19_ts__ts 1111.111111111111ms linear infinite normal forwards}@keyframes eYpQ3JZfS4H19_ts__ts { 0% {transform: scale(0,0)} 70% {transform: scale(0,0)} 85% {transform: scale(1,1)} 100% {transform: scale(0,0)}} #eYpQ3JZfS4H19 {animation: eYpQ3JZfS4H19_c_o 1111.111111111111ms linear infinite normal forwards}@keyframes eYpQ3JZfS4H19_c_o { 0% {opacity: 0} 70% {opacity: 0} 85% {opacity: 1} 100% {opacity: 0}} #eYpQ3JZfS4H20_to {animation: eYpQ3JZfS4H20_to__to 1111.111111111111ms linear infinite normal forwards}@keyframes eYpQ3JZfS4H20_to__to { 0% {offset-distance: 0%} 10% {offset-distance: 0%} 30% {offset-distance: 25%} 45% {offset-distance: 50%} 75% {offset-distance: 75%} 90% {offset-distance: 100%} 100% {offset-distance: 100%}} #eYpQ3JZfS4H20_tr {animation: eYpQ3JZfS4H20_tr__tr 1111.111111111111ms linear infinite normal forwards}@keyframes eYpQ3JZfS4H20_tr__tr { 0% {transform: rotate(0deg)} 10% {transform: rotate(0deg)} 90% {transform: rotate(360deg)} 100% {transform: rotate(360deg)}} #eYpQ3JZfS4H20_ts {animation: eYpQ3JZfS4H20_ts__ts 1111.111111111111ms linear infinite normal forwards}@keyframes eYpQ3JZfS4H20_ts__ts { 0% {transform: scale(0,0)} 10% {transform: scale(0,0)} 30% {transform: scale(1,1)} 70% {transform: scale(1,1)} 90% {transform: scale(0,0)} 100% {transform: scale(0,0)}} #eYpQ3JZfS4H20 {animation: eYpQ3JZfS4H20_c_o 1111.111111111111ms linear infinite normal forwards}@keyframes eYpQ3JZfS4H20_c_o { 0% {opacity: 0} 10% {opacity: 0} 30% {opacity: 1} 70% {opacity: 1} 90% {opacity: 0} 100% {opacity: 0}}]]></style><defs><linearGradient id="eYpQ3JZfS4H3-fill" x1="19.972" y1="19.9701" x2="83.712" y2="83.7001" spreadMethod="pad" gradientUnits="userSpaceOnUse"><stop id="eYpQ3JZfS4H3-fill-0" offset="6%" stop-color="rgb(133,209,255)"/><stop id="eYpQ3JZfS4H3-fill-1" offset="23%" stop-color="rgb(112,191,247)"/><stop id="eYpQ3JZfS4H3-fill-2" offset="65%" stop-color="rgb(44,131,219)"/><stop id="eYpQ3JZfS4H3-fill-3" offset="71%" stop-color="rgb(33,121,214)"/><stop id="eYpQ3JZfS4H3-fill-4" offset="90%" stop-color="rgb(0,93,201)"/></linearGradient><linearGradient id="eYpQ3JZfS4H8-fill" x1="19.972" y1="19.9701" x2="83.712" y2="83.7001" spreadMethod="pad" gradientUnits="userSpaceOnUse"><stop id="eYpQ3JZfS4H8-fill-0" offset="6%" stop-color="rgb(133,209,255)"/><stop id="eYpQ3JZfS4H8-fill-1" offset="23%" stop-color="rgb(112,191,247)"/><stop id="eYpQ3JZfS4H8-fill-2" offset="65%" stop-color="rgb(44,131,219)"/><stop id="eYpQ3JZfS4H8-fill-3" offset="71%" stop-color="rgb(33,121,214)"/><stop id="eYpQ3JZfS4H8-fill-4" offset="90%" stop-color="rgb(0,93,201)"/></linearGradient></defs><path id="eYpQ3JZfS4H2" d="M91.3974,39.8144L64.7466,13.1636C57.8616,6.27861,46.6989,6.27861,39.814,13.1636L13.1631,39.8144C6.27819,46.6994,6.27818,57.8621,13.1631,64.747L39.814,91.3979C46.6989,98.2828,57.8616,98.2828,64.7466,91.3979L91.3974,64.747C98.2824,57.8621,98.2824,46.6994,91.3974,39.8144Z" transform="matrix(1 0 0 1 1.091753 1.020828)" fill="rgb(18,125,239)" stroke="none" stroke-width="1" stroke-miterlimit="1"/><path id="eYpQ3JZfS4H3" d="M52.322,8.00007C54.6379,7.99691,56.9316,8.45111,59.0715,9.3366C61.2115,10.2221,63.1555,11.5214,64.792,13.1601L91.402,39.8101C94.705,43.1175,96.5603,47.6008,96.5603,52.2751C96.5603,56.9494,94.705,61.4326,91.402,64.7401L64.752,91.4001C61.4445,94.7031,56.9613,96.5583,52.287,96.5583C47.6127,96.5583,43.1295,94.7031,39.822,91.4001L13.172,64.7401C11.5341,63.1037,10.2348,61.1605,9.34824,59.0217C8.46173,56.8829,8.00544,54.5903,8.00544,52.2751C8.00544,49.9598,8.46173,47.6672,9.34824,45.5284C10.2348,43.3896,11.5341,41.4465,13.172,39.8101L39.822,13.1601C41.4614,11.517,43.4102,10.215,45.5557,9.32929C47.7012,8.44363,50.0009,7.99186,52.322,8.00007ZM52.322,0.000071C48.9552,-0.007867,45.6203,0.65177,42.5101,1.94083C39.3998,3.22989,36.576,5.1228,34.202,7.51007L7.512,34.1601C5.13059,36.5386,3.24139,39.3632,1.95242,42.4724C0.663454,45.5815,0,48.9143,0,52.2801C0,55.6458,0.663454,58.9786,1.95242,62.0878C3.24139,65.197,5.13059,68.0216,7.512,70.4001L34.162,97.0501C36.5405,99.4315,39.3651,101.321,42.4743,102.61C45.5835,103.899,48.9162,104.562,52.282,104.562C55.6478,104.562,58.9805,103.899,62.0897,102.61C65.1989,101.321,68.0235,99.4315,70.402,97.0501L97.062,70.4001C101.859,65.5899,104.553,59.0736,104.553,52.2801C104.553,45.4865,101.859,38.9703,97.062,34.1601L70.402,7.51007C68.0334,5.12669,65.2162,3.23597,62.113,1.94699C59.0099,0.658019,55.6822,-0.003682,52.322,0.000071Z" transform="matrix(1 0 0 1 1.091753 1.020828)" fill="url(#eYpQ3JZfS4H3-fill)" stroke="none" stroke-width="1" stroke-miterlimit="1"/><g id="eYpQ3JZfS4H4" transform="matrix(1 0 0 1 1.091753 1.020828)" mask="url(#eYpQ3JZfS4H7)"><g id="eYpQ3JZfS4H5_to" style="offset-path:path('M25.32419,20.839569L11.93357,34.448282C-1.548138,47.99512,4.332593,62.749537,11.93357,69.727898Q30.329423,87.736776,37.930402,94.715139');offset-rotate:0deg"><g id="eYpQ3JZfS4H5_tr" transform="rotate(0)"><g id="eYpQ3JZfS4H5" transform="translate(-25.32419,-20.839569)" opacity="0"><path id="eYpQ3JZfS4H6" d="M12.5029,3.00684L43.6028,33.0168L38.1454,38.6723L7.04558,8.66238L12.5029,3.00684Z" transform="matrix(0.999971 -0.007599 0.007599 0.999971 -0.157623 0.193034)" opacity="0.35" fill="rgb(255,255,255)" stroke="none" stroke-width="1" stroke-miterlimit="1"/></g></g></g><mask id="eYpQ3JZfS4H7" mask-type="alpha"><path id="eYpQ3JZfS4H8" d="M52.322,8.00007C54.6379,7.99691,56.9316,8.45111,59.0715,9.3366C61.2115,10.2221,63.1555,11.5214,64.792,13.1601L91.402,39.8101C94.705,43.1175,96.5603,47.6008,96.5603,52.2751C96.5603,56.9494,94.705,61.4326,91.402,64.7401L64.752,91.4001C61.4445,94.7031,56.9613,96.5583,52.287,96.5583C47.6127,96.5583,43.1295,94.7031,39.822,91.4001L13.172,64.7401C11.5341,63.1037,10.2348,61.1605,9.34824,59.0217C8.46173,56.8829,8.00544,54.5903,8.00544,52.2751C8.00544,49.9598,8.46173,47.6672,9.34824,45.5284C10.2348,43.3896,11.5341,41.4465,13.172,39.8101L39.822,13.1601C41.4614,11.517,43.4102,10.215,45.5557,9.32929C47.7012,8.44363,50.0009,7.99186,52.322,8.00007ZM52.322,0.000071C48.9552,-0.007867,45.6203,0.65177,42.5101,1.94083C39.3998,3.22989,36.576,5.1228,34.202,7.51007L7.512,34.1601C5.13059,36.5386,3.24139,39.3632,1.95242,42.4724C0.663454,45.5815,0,48.9143,0,52.2801C0,55.6458,0.663454,58.9786,1.95242,62.0878C3.24139,65.197,5.13059,68.0216,7.512,70.4001L34.162,97.0501C36.5405,99.4315,39.3651,101.321,42.4743,102.61C45.5835,103.899,48.9162,104.562,52.282,104.562C55.6478,104.562,58.9805,103.899,62.0897,102.61C65.1989,101.321,68.0235,99.4315,70.402,97.0501L97.062,70.4001C101.859,65.5899,104.553,59.0736,104.553,52.2801C104.553,45.4865,101.859,38.9703,97.062,34.1601L70.402,7.51007C68.0334,5.12669,65.2162,3.23597,62.113,1.94699C59.0099,0.658019,55.6822,-0.003682,52.322,0.000071Z" transform="matrix(1 0 0 1 0 0.000001)" fill="url(#eYpQ3JZfS4H8-fill)" stroke="none" stroke-width="1" stroke-miterlimit="1"/></mask></g><g id="eYpQ3JZfS4H9" transform="matrix(1 0 0 1 1.091753 1.020828)" mask="url(#eYpQ3JZfS4H13)"><g id="eYpQ3JZfS4H10_to" transform="translate(18.607011,6.862596)"><g id="eYpQ3JZfS4H10" transform="translate(-51.908185,-51.979185)" opacity="0"><rect id="eYpQ3JZfS4H11" width="139.027" height="22.2955" rx="0" ry="0" transform="matrix(0.707107 -0.707107 0.707107 0.707107 -1.085782 97.773737)" opacity="0.28" fill="rgb(255,255,255)" stroke="none" stroke-width="1" stroke-miterlimit="1"/><rect id="eYpQ3JZfS4H12" width="139.027" height="9.20502" rx="0" ry="0" transform="matrix(0.707107 -0.707107 0.707107 0.707107 -9.428667 88.302743)" opacity="0.28" fill="rgb(255,255,255)" stroke="none" stroke-width="1" stroke-miterlimit="1"/></g></g><mask id="eYpQ3JZfS4H13" mask-type="alpha"><path id="eYpQ3JZfS4H14" d="M91.3974,39.8144L64.7466,13.1636C57.8616,6.27861,46.6989,6.27861,39.814,13.1636L13.1631,39.8144C6.27819,46.6994,6.27818,57.8621,13.1631,64.747L39.814,91.3979C46.6989,98.2828,57.8616,98.2828,64.7466,91.3979L91.3974,64.747C98.2824,57.8621,98.2824,46.6994,91.3974,39.8144Z" fill="rgb(18,125,239)" stroke="none" stroke-width="1" stroke-miterlimit="1"/></mask></g><g id="eYpQ3JZfS4H15" transform="matrix(1 0 0 1 -17 -16.999999)"><path id="eYpQ3JZfS4H16" d="M79.3687,33.1455C77.0752,33.9284,75.6103,34.5024,74.1838,35.0163C70.8817,36.2026,67.6493,38.3568,66.9576,43.0878C66.3452,47.3145,67.7693,49.1324,67.1449,54.0507C66.0499,62.6361,57.8054,65.5924,53.9582,67.3887C52.4333,68.0948,46.2373,70.8181,46.1869,70.8397C43.0649,72.2326,35.3345,76.2599,35.3345,76.2599L41.0861,68.467L48.5308,57.3768C54.1215,58.3638,57.049,55.177,57.815,54.1684C57.815,54.1684,57.815,54.1684,57.7934,54.1468C53.5956,58.9666,42.0731,53.7865,34.991,47.2256C34.2033,46.4931,33.4469,45.8231,32.724,45.2059L32.6976,45.1819C32.2605,44.7544,27.4719,40.1147,23.1924,36.6133C26.8883,37.4322,27.5151,37.4586,33.7591,39.0412C42.7191,41.2458,52.3996,46.0729,55.2406,46.7453C57.3347,42.2208,56.5783,42.2112,58.1681,37.9605C60.1733,32.5739,66.4101,34.1181,68.132,34.3367C70.9585,34.7209,79.3687,33.1455,79.3687,33.1455Z" transform="matrix(1 0 0 1 18.091753 18.020828)" fill="rgb(255,255,255)" stroke="none" stroke-width="1" stroke-miterlimit="1"/><path id="eYpQ3JZfS4H17" d="M54.6359,45.4198C54.6359,45.4198,49.7032,44.2382,48.6321,41.6974C47.7555,39.6057,48.8963,36.856,49.2805,28.3018C50.0754,28.4218,53.913,33.1864,54.6359,45.4198Z" transform="matrix(1 0 0 1 18.091753 18.020828)" fill="rgb(255,255,255)" stroke="none" stroke-width="1" stroke-miterlimit="1"/></g><g id="eYpQ3JZfS4H18_tr" transform="translate(49.498076,29.322527) rotate(0)"><g id="eYpQ3JZfS4H18_ts" transform="scale(0,0)"><path id="eYpQ3JZfS4H18" d="M53.3799,24.5291L52.0857,26.6152C51.775,27.1192,51.6104,27.6997,51.6104,28.2918C51.6104,28.8839,51.775,29.4643,52.0857,29.9684L53.3799,32.059C53.3933,32.0809,53.3989,32.1067,53.3957,32.1322C53.3925,32.1578,53.3808,32.1814,53.3623,32.1994C53.3439,32.2173,53.3199,32.2284,53.2943,32.2308C53.2687,32.2333,53.243,32.2269,53.2215,32.2128L51.1354,30.9232C50.6305,30.6125,50.0494,30.4481,49.4566,30.4481C48.8638,30.4481,48.2826,30.6125,47.7777,30.9232L45.6916,32.2128C45.6723,32.2192,45.6517,32.2202,45.6319,32.2158C45.6121,32.2114,45.5938,32.2017,45.579,32.1879C45.5642,32.174,45.5534,32.1564,45.5477,32.1369C45.5421,32.1174,45.5417,32.0967,45.5468,32.0771L46.8365,29.9865C47.1472,29.4824,47.3118,28.902,47.3118,28.3099C47.3118,27.7178,47.1472,27.1373,46.8365,26.6333L45.5468,24.5472C45.5327,24.5257,45.5264,24.5,45.5288,24.4744C45.5313,24.4488,45.5424,24.4248,45.5603,24.4064C45.5782,24.3879,45.6019,24.3761,45.6274,24.3729C45.6529,24.3698,45.6788,24.3754,45.7007,24.3888L47.7868,25.6785C48.2902,25.9931,48.8719,26.16,49.4656,26.16C50.0593,26.16,50.641,25.9931,51.1444,25.6785L53.2396,24.3843C53.2595,24.3782,53.2808,24.3777,53.301,24.3829C53.3212,24.3881,53.3396,24.3987,53.3541,24.4137C53.3686,24.4287,53.3787,24.4474,53.3833,24.4678C53.3878,24.4881,53.3866,24.5094,53.3799,24.5291Z" transform="translate(-49.462439,-28.301699)" opacity="0" fill="rgb(255,255,255)" stroke="none" stroke-width="1" stroke-miterlimit="1"/></g></g><g id="eYpQ3JZfS4H19_tr" transform="translate(36.609877,76.732689) rotate(0)"><g id="eYpQ3JZfS4H19_ts" transform="scale(0,0)"><path id="eYpQ3JZfS4H19" d="M39.4355,71.9393L38.1414,74.0254C37.8306,74.5294,37.6661,75.1098,37.6661,75.7019C37.6661,76.294,37.8306,76.8745,38.1414,77.3785L39.4355,79.4691C39.449,79.4911,39.4546,79.5169,39.4514,79.5424C39.4482,79.5679,39.4364,79.5916,39.418,79.6095C39.3995,79.6274,39.3755,79.6385,39.35,79.641C39.3244,79.6434,39.2987,79.6371,39.2772,79.623L37.1911,78.3333C36.6862,78.0227,36.105,77.8582,35.5122,77.8582C34.9194,77.8582,34.3383,78.0227,33.8334,78.3333L31.7473,79.623C31.728,79.6293,31.7074,79.6303,31.6875,79.6259C31.6677,79.6216,31.6495,79.6119,31.6347,79.598C31.6198,79.5841,31.6091,79.5665,31.6034,79.547C31.5977,79.5275,31.5974,79.5069,31.6025,79.4872L32.8921,77.3966C33.2029,76.8926,33.3674,76.3121,33.3674,75.72C33.3674,75.1279,33.2029,74.5475,32.8921,74.0434L31.6025,71.9574C31.5884,71.9358,31.582,71.9102,31.5845,71.8846C31.587,71.859,31.598,71.835,31.616,71.8165C31.6339,71.7981,31.6576,71.7863,31.6831,71.7831C31.7086,71.7799,31.7344,71.7855,31.7563,71.799L33.8424,73.0886C34.3459,73.4033,34.9276,73.5701,35.5213,73.5701C36.1149,73.5701,36.6967,73.4033,37.2001,73.0886L39.2953,71.7945C39.3152,71.7883,39.3365,71.7878,39.3567,71.793C39.3769,71.7982,39.3953,71.8089,39.4098,71.8239C39.4243,71.8389,39.4344,71.8576,39.4389,71.8779C39.4435,71.8983,39.4423,71.9195,39.4355,71.9393Z" transform="translate(-35.518124,-75.711861)" opacity="0" fill="rgb(255,255,255)" stroke="none" stroke-width="1" stroke-miterlimit="1"/></g></g><g id="eYpQ3JZfS4H20_to" style="offset-path:path('M31.340687,23.765387L12.928673,41.714638C7.996689,46.879391,7.939307,57.737378,13.600539,64.76192Q33.588708,84.701922,39.72362,91.489623Q52.738573,102.491681,64.453561,93.114612');offset-rotate:0deg"><g id="eYpQ3JZfS4H20_tr" transform="rotate(0)"><g id="eYpQ3JZfS4H20_ts" transform="scale(0,0)"><path id="eYpQ3JZfS4H20" d="M39.4355,71.9393L38.1414,74.0254C37.8306,74.5294,37.6661,75.1098,37.6661,75.7019C37.6661,76.294,37.8306,76.8745,38.1414,77.3785L39.4355,79.4691C39.449,79.4911,39.4546,79.5169,39.4514,79.5424C39.4482,79.5679,39.4364,79.5916,39.418,79.6095C39.3995,79.6274,39.3755,79.6385,39.35,79.641C39.3244,79.6434,39.2987,79.6371,39.2772,79.623L37.1911,78.3333C36.6862,78.0227,36.105,77.8582,35.5122,77.8582C34.9194,77.8582,34.3383,78.0227,33.8334,78.3333L31.7473,79.623C31.728,79.6293,31.7074,79.6303,31.6875,79.6259C31.6677,79.6216,31.6495,79.6119,31.6347,79.598C31.6198,79.5841,31.6091,79.5665,31.6034,79.547C31.5977,79.5275,31.5974,79.5069,31.6025,79.4872L32.8921,77.3966C33.2029,76.8926,33.3674,76.3121,33.3674,75.72C33.3674,75.1279,33.2029,74.5475,32.8921,74.0434L31.6025,71.9574C31.5884,71.9358,31.582,71.9102,31.5845,71.8846C31.587,71.859,31.598,71.835,31.616,71.8165C31.6339,71.7981,31.6576,71.7863,31.6831,71.7831C31.7086,71.7799,31.7344,71.7855,31.7563,71.799L33.8424,73.0886C34.3459,73.4033,34.9276,73.5701,35.5213,73.5701C36.1149,73.5701,36.6967,73.4033,37.2001,73.0886L39.2953,71.7945C39.3152,71.7883,39.3365,71.7878,39.3567,71.793C39.3769,71.7982,39.3953,71.8089,39.4098,71.8239C39.4243,71.8389,39.4344,71.8576,39.4389,71.8779C39.4435,71.8983,39.4423,71.9195,39.4355,71.9393Z" transform="translate(-35.518124,-75.711861)" opacity="0" fill="rgb(255,255,255)" stroke="none" stroke-width="1" stroke-miterlimit="1"/></g></g></g></svg>