<svg width="650" height="479" viewBox="0 0 650 479" fill="none" xmlns="http://www.w3.org/2000/svg">
<g clip-path="url(#clip0)">
<path d="M649.911 0H-178.106V481.74H649.911V0Z" fill="#142945"/>
<path d="M649.911 314.673C624.116 297.619 595.208 289.622 572.882 283.552C490.961 261.007 476.107 291.356 405.571 277.579C302.658 257.346 221.715 170.729 206.505 153.868C139.705 79.9688 155.449 40.3698 106.884 8.57495C101.991 5.39547 96.9214 2.60138 91.6734 0.0963287H-54.1123C-112.818 19.1732 -158.093 53.5695 -151.688 68.5998C-144.928 84.5935 -83.6431 69.5632 -18.9779 119.182C13.5771 144.137 8.15125 155.698 37.3262 176.895C99.0561 221.986 140.061 182.387 208.551 220.637C267.702 253.781 264.499 298.679 330.588 326.427C365.9 341.265 376.841 332.69 401.924 350.032C445.331 379.997 435.102 421.33 468.902 457.557C477.352 466.613 487.937 474.707 500.034 481.74H650V314.673H649.911Z" fill="#1B3557" fill-opacity="0.28"/>
<path d="M649.911 0H215.311C198.678 69.3706 240.217 156.855 277.219 203.198C297.588 228.827 335.391 265.535 351.935 255.226C376.129 240.196 326.941 141.343 354.604 116.485C382.355 91.5306 460.185 165.43 584.09 239.328C594.941 245.784 619.046 260.14 649.911 276.904V0Z" fill="#0F2036" fill-opacity="0.28"/>
<path d="M317.513 376.913C307.728 376.817 305.238 423.45 292.696 423.931C278.553 424.413 278.731 365.159 245.731 308.025C207.751 242.219 146.377 214.952 117.646 202.234C58.8517 176.124 -2.70034 171.499 -6.43616 183.061C-8.9267 190.962 17.4909 200.018 39.1942 237.016C48.4448 252.721 63.8328 279.024 56.2722 299.353C45.5984 327.776 2.81444 311.204 -23.9589 343.095C-53.6676 378.455 -39.0801 444.453 -21.6463 479.813C-21.2905 480.488 -21.0236 481.066 -20.6678 481.74H22.1162C22.2941 464.397 23.0056 446.573 32.1673 441.563C43.7305 435.204 61.698 453.125 88.4714 481.74H338.504C334.679 424.895 327.475 377.01 317.513 376.913Z" fill="#0F2036" fill-opacity="0.36"/>
</g>
<defs>
<clipPath id="clip0">
<rect width="650" height="479" fill="white"/>
</clipPath>
</defs>
</svg>
